<?xml version="1.0" encoding="UTF-8"?>
<svg id="_レイヤー_2" data-name="レイヤー 2" xmlns="http://www.w3.org/2000/svg" width="446.5799866" height="78.5245972" xmlns:xlink="http://www.w3.org/1999/xlink" viewBox="0 0 446.5799866 78.5245972">
  <defs>
    <style>
      .cls-1 {
        fill: none;
      }

      .cls-2 {
        clip-path: url(#clippath-1);
      }

      .cls-3 {
        fill: #fff;
      }

      .cls-4 {
        clip-path: url(#clippath);
      }
    </style>
    <clipPath id="clippath">
      <rect class="cls-1" width="446.5799866" height="78.5245972"/>
    </clipPath>
    <clipPath id="clippath-1">
      <rect class="cls-1" y="-.0004044" width="446.5799866" height="78.5250015"/>
    </clipPath>
  </defs>
  <g id="_コンテンツ" data-name="コンテンツ">
    <g id="_アートワーク_11" data-name="アートワーク 11">
      <g class="cls-4">
        <g class="cls-2">
          <path class="cls-3" d="M55.6122017,13.7037964c-.1689987-4.1279984-.4500008-8.0849991-.9340019-9.7419968-.362999-1.2400055-1.6009979-2.0540009-2.6809998-1.9840012-1.0789986-.0699997-2.317997.7439957-2.6800003,1.9840012-.2509995.8569946-.4459991,2.3309937-.5999985,4.121994-4.7910004-3.1729965-10.4939995-5.7080002-17.1459999-7.3159943C23.5391998-1.174202,13.1262016.3417969,9.4692001,7.9307938c-1.4729996,3.0559998-3.4889984,4.2980042-7.2029991,4.8990021,1.5019989.4150009,2.7859993.6650009,3.5149994.5960007C.5892029,18.8157959,6.5251999,24.7927971.0002022,33.2257957c3.0569992-2.2659988,5.526001-6.7910004,9.4239998-7.7469978C2.7821999,29.9577942,1.1202011,37.3597946,1.9071999,43.0487976c.7290001,5.2709999,2.1050034,8.6389999.8010025,15.3889999,1.737999-3.5680008,1.9389992-7.4990005,1.9860001-8.5830002.9409981,2.5089989.875,3.7549973.1699982,5.4640007,2.3500023-3.3610001,2.6940002-7.0430031,2.9440002-8.6160011.6660004,2.7879982.3470001,4.2709999-.1119995,5.7749977,3.6150017-2.7679977,4.387001-15.5449982,15.6790009-18.8549995,15.6349983-4.5830002,13.8129997-20.3190002,24.8829994-16.1940002-.1009979,3.7340012-.1310005,7.0670013-.1599998,8.3100014-.0690002,2.9939995-.0690002,18.1720009-.0690002,18.5550003-.0410004.1629982-.0099983.3889999.0219994.5550003.007.0819969.0130005.1409988.0130005.1409988,0,0,.0149994.012001.0209999.0160027.0060005.0239983.0130005.0540009.0130005.0540009,0,0,.1160011.303997.3110008.4109955.0139999.0480042.0349998.0920029.0379982.1460037.0340004.8699989.5909996,5.5349998.5909996,6.7179985,0,.9409981.0699997,2.9249992.1050034,3.6559982,0,.0040016-.0010033.0100021-.0010033.0139999-.0249977.012001-.0529976.0250015-.0690002.038002-.1909981.1569977-.0689964,1.1489983,0,1.3919983.0700035.2439995.3129997.5400009.3129997.5400009,0,0,.0139999-.0050011.0350037-.012001.0419998.0920029.079998.1710014.1049995.2210007.0900002.1800003.3209991.4770012.6679993.4410019-.0229988.6719971-.0670013,1.9109993-.1110001,2.4129982-.0530014.5919991-.3380013,2.4370003-.3479996,2.8030014-.0180016.5919991.2080002,1.0789986.382,1.3400002.1170006.1749992.8880005,1.5669975,1.0620003,2.0019989s.5399971,1.5489998.6089973,1.9669991c.0699997.4169998.0349998,1.531002.2089996,1.5660019.1740036-.0349998.1400032-1.1490021.2090034-1.5660019.0699997-.4179993.4349976-1.5319977.6089973-1.9669991.1749992-.4350014.9449997-1.8269997,1.0620003-2.0019989.1739998-.2610016.401001-.7480011.3829994-1.3400002-.0109978-.3660011-.2959976-2.2110023-.3479996-2.8030014-.0439987-.5019989-.0879974-1.7410011-.1110001-2.4129982.3470001.0359993.5779991-.2610016.6679993-.4410019.0250015-.0499992.0629997-.1289978.1050034-.2210007.0209999.007.0339966.012001.0339966.012001,0,0,.2440033-.2960014.314003-.5400009.0690002-.243.1909981-1.2350006,0-1.3919983-.0170021-.0130005-.0440025-.026001-.0699997-.038002.0009995-.0039978,0-.0099983,0-.0139999.0349998-.730999.1040001-2.7150002.1040001-3.6559982,0-1.1829987.5569992-5.8479996.5919991-6.7179985.0019989-.0460014.0209999-.0810013.0309982-.1230011.2229996-.0790024.3520012-.4339981.3520012-.4339981,0,0,.1389999-.4880028.0699997-.7660027-.0079994-.0060005-.0250015-.012001-.0349998-.0180016,0-.5839996-.0009995-15.5639992-.0699997-18.5369987-.0149994-.6720009-.031002-1.9559975-.0579987-3.579998,11.1869965,10.3269958,12.7939987,32.2579994-3.8410034,48.5569992,18.8600006-14.9750023,19.8499985-40.7260017,3.6150017-57.012001"/>
          <path class="cls-3" d="M5.652,60.9337978c0-.0739994-.046-.1110001-.1360002-.1110001v-.1119995h.9530001v.1119995c-.0289998,0-.0549998.0090008-.0769997.0279999-.0230002.019001-.0340004.0459995-.0340004.0830002v2.8120003c0,.0369997.0110002.0639992.0340004.0830002.0219998.0179996.0479999.0279999.0769997.0279999v.1110001h-.9530001v-.1110001c.0900002,0,.1360002-.0370007.1360002-.1110001v-1.165h-1.994v1.165c0,.0369997.0109999.0639992.0339999.0830002.023.0179996.0480001.0279999.0780001.0279999v.1110001h-.9349999v-.1110001c.0779998,0,.1169999-.0370007.1169999-.1110001v-2.8120003c0-.0739994-.039-.1110001-.1169999-.1110001v-.1119995h.9349999v.1119995c-.03,0-.0550001.0090008-.0780001.0279999-.023.019001-.0339999.0459995-.0339999.0830002v1.0529995h1.994v-1.0529995Z"/>
          <path class="cls-3" d="M8.4878998,60.8224964c-.0909996,0-.1359997.0370007-.1359997.1110001v1.8579998c0,.2600002.0829992.4379997.25.5360003.1679993.0970001.4119997.1449995.7339993.1449995.3220005,0,.5670004-.0479994.7340002-.1449995.1669998-.0980005.2510004-.276.2510004-.5360003v-1.8579998c0-.0739994-.0620003-.1110001-.1859999-.1110001v-.1110001h.9910002v.1110001c-.0990009,0-.1490002.0370007-.1490002.1110001v1.8269997c0,.2440004-.0349998.4449997-.1050005.6040001-.0710001.1590004-.1759996.2860003-.316.3810005-.1400003.0949993-.3149996.1589994-.5229998.191-.2089996.033-.4490004.0499992-.7220001.0499992-.2720003,0-.5120001-.0169992-.7209997-.0499992-.2080002-.0320005-.3830004-.0960007-.5229998-.191-.1410003-.0950003-.2460003-.2220001-.3160005-.3810005s-.105-.3599997-.105-.6040001v-1.8269997c0-.0739994-.0580001-.1110001-.1739998-.1110001v-.1110001h1.0159998v.1110001Z"/>
          <path class="cls-3" d="M12.0791998,63.8565969c.033,0,.0620003-.0100002.0860004-.0279999.0249996-.0190001.0379992-.0460005.0379992-.0830002v-2.8249998c0-.0370007-.0129995-.0620003-.0379992-.0769997-.0240002-.0139999-.0530005-.0209999-.0860004-.0209999v-.1119995h1.158v.1119995c-.0209999,0-.0419998.0059986-.0649996.0179996-.0230007.0130005-.0340004.0319996-.0340004.0559998,0,.0209999.0080004.0480003.0240002.0809994.0170002.0320015.0360003.0670013.0559998.1050014l.8860006,1.6099987.8919992-1.5919991c.0279999-.0540009.0500002-.0960007.0640001-.1270008.0150003-.0300007.0220003-.0580006.0220003-.0830002,0-.0459995-.0270004-.0679989-.0810003-.0679989v-.1119995h1.1459999v.1119995c-.032999,0-.0620003.007-.0869999.0209999-.0240002.0149994-.0370007.039999-.0370007.0769997v2.8249998c0,.0369997.0130005.0640001.0370007.0830002.0249996.0179996.0540009.0279999.0869999.0279999v.1110001h-.9720001v-.1110001c.1120005,0,.1669998-.0369997.1669998-.1110001v-2.0560007h-.0119991l-1.2450008,2.2780008h-.0179996l-1.2200003-2.2850008h-.0129995v2.0630007c0,.0740004.0579996.1110001.1739998.1110001v.1110001h-.9289999v-.1110001Z"/>
          <path class="cls-3" d="M16.822401,63.8562975c.0529995-.0080004.0959988-.0349998.1259995-.0810003.0319996-.0450001.0620003-.0959997.0900002-.1539993l1.1459999-2.4090004c.0289993-.0529995.0550003-.1030006.0769997-.1490002.0230007-.0450001.0340004-.0839996.0340004-.1170006,0-.0409985-.0139999-.0699997-.0429993-.0869999-.0290012-.0159988-.0600014-.0279999-.0930004-.0369987v-.1110001h1.046999v.1110001c-.0289993.0089989-.0579987.0199986-.0869999.0339985-.0289993.0150013-.0439987.0440006-.0439987.0900002,0,.0330009.0079994.066.0219994.0990009.0149994.032999.0370007.0769997.0650005.1299992l1.2880001,2.5200005c.0209999.0460005.0489998.0780001.0839996.099s.0749989.0420008.1210003.0620003v.1120005h-1.0900002v-.1120005c.0159988,0,.0369987-.0050001.0620003-.0179996.0249996-.0130005.0369987-.0310001.0369987-.0560007,0-.0409994-.0170002-.0949993-.0499992-.1609993l-.2350006-.4580002h-1.5109997l-.2229996.4390001c-.0410004.0869999-.0620003.1489992-.0620003.1859999,0,.0459995.0389996.0679998.118.0679998v.1120005h-.8789997v-.1120005ZM19.1564007,62.7052975l-.5200005-1.1520004-.5819988,1.1520004h1.1019993Z"/>
          <path class="cls-3" d="M21.3854008,63.8565969c.0779991,0,.118-.0369997.118-.1110001v-2.8119993c0-.0740013-.0400009-.1110001-.118-.1110001v-.1119995h1.059v.1119995c-.0330009,0-.0499992.0200005-.0499992.0609989,0,.0340004.0409985.0910015.1239986.1739998l1.7770004,1.8450012v-1.9689999c0-.0740013-.0539989-.1110001-.1609993-.1110001v-.1119995h.9349995v.1119995c-.0779991,0-.118.0369987-.118.1110001v2.8119993c0,.0740004.0400009.1110001.118.1110001v.1110001h-1.0030003v-.1110001c.0540009,0,.0809994-.0190001.0809994-.0559998,0-.0290003-.032999-.0760002-.098999-.1420002l-1.8889999-1.9690008v2.0560007c0,.0740004.046999.1110001.1429996.1110001v.1110001h-.9169998v-.1110001Z"/>
          <path class="cls-3" d="M26.1534004,63.8565969c.1070004,0,.1609993-.0369997.1609993-.1110001v-2.8119993c0-.0740013-.0539989-.1110001-.1609993-.1110001v-.1119995h1.0279999v.1119995c-.1079998,0-.1609993.0369987-.1609993.1110001v2.8119993c0,.0740004.0529995.1110001.1609993.1110001v.1110001h-1.0279999v-.1110001Z"/>
          <path class="cls-3" d="M29.9430008,63.7452974c0,.0740004.0450001.1110001.1359997.1110001v.1119995h-.9529991v-.1119995c.0279999,0,.0539989-.0089998.0769997-.0279999s.0340004-.0460005.0340004-.0830002v-2.4649992h-1.0220013c-.0369987,0-.073.0109997-.1079998.0310001-.0349998.0209999-.0529995.0599995-.0529995.118h-.1110001v-.8670006h.1110001c0,.0579987.0179996.0970001.0529995.118.0349998.0200005.0710011.0310001.1079998.0310001h2.7490005c.0380001,0,.0739994-.0109997.1089993-.0310001.0350018-.0209999.0530014-.0600014.0530014-.118h.1110001v.8670006h-.1110001c0-.0580006-.0179996-.0970001-.0530014-.118-.0349998-.0200005-.0709991-.0310001-.1089993-.0310001h-1.0209999v2.4649992Z"/>
          <path class="cls-3" d="M35.0758018,61.3800964c0-.0459995-.0180016-.0799999-.0530014-.1030006-.0349998-.0219994-.0949974-.0339985-.1819992-.0339985h-2.007v.7679996h1.2140007c.0830002,0,.1469994-.0109997.1920013-.0330009.0449982-.0240002.067997-.0819988.067997-.177h.1120033v.9660006h-.1120033c0-.0950003-.0229988-.1570005-.067997-.1829996-.045002-.0270004-.1090012-.0400009-.1920013-.0400009h-1.2140007v.8550005h2.0690002c.0620003,0,.1119995-.0150003.1520004-.0439997.0390015-.0290003.0579987-.0680008.0579987-.118h.1110001v.8479996h-.1110001c0-.0609999-.0189972-.0970001-.0579987-.1040001-.0400009-.0089998-.0900002-.0129995-.1520004-.0129995h-2.8860016v-.1110001c.0290031,0,.0550003-.0100002.0780029-.0290003.0219994-.0179996.0340004-.0459995.0340004-.0830002v-2.8109989c0-.0370007-.012001-.0650005-.0340004-.0830002-.0230026-.019001-.0489998-.0290012-.0780029-.0290012v-.1110001h2.8240013c.0870018,0,.1469994-.0139999.1819992-.039999.0349998-.0270004.0530014-.0629997.0530014-.1079998h.1110001v.8169994h-.1110001Z"/>
          <path class="cls-3" d="M39.5835991,63.521697c-.0130005,0-.0239983-.0010004-.0340004-.0030003-.0099983-.0019999-.0219994-.0029993-.0340004-.0029993-.0249977,0-.0839996.026-.1769981.0739994-.0930023.0500002-.2100029.1059999-.3530006.1669998-.1420021.0630007-.3040009.1170006-.4860001.1610003-.1819992.0460005-.3710022.0690002-.5690002.0690002-.2610016,0-.5099983-.033-.75-.099-.2389984-.066-.4510002-.1690006-.6339989-.3059998-.1840019-.1390009-.3300018-.3110008-.4370003-.5180006-.1070023-.2059994-.1609993-.4469995-.1609993-.7249994,0-.2720013.053997-.512001.1609993-.7200012.1069984-.2089996.2529984-.3829994.4370003-.5240002.1829987-.1399994.3950005-.2449989.6339989-.3149986.2400017-.0710011.4889984-.1060009.75-.1060009.2099991,0,.401001.0170002.5719986.0500011.1710014.0319996.321003.0679989.4490013.1049995s.2290001.0720005.3030014.1049995c.0749969.0330009.1209984.0499992.1369972.0499992.0209999,0,.038002-.0109997.052002-.0309982.0149994-.0209999.026001-.0370007.0349998-.0500011l.0919991.0750008-.4829979.7490005-.0620003-.0440006c0-.012001-.0010033-.0240002-.0030022-.0370007-.0009995-.0119991-.0049973-.0259991-.0089989-.0429993-.0079994-.0459995-.0499992-.092001-.1240005-.1400013-.0740013-.0459995-.1660004-.0889988-.2750015-.1269989-.1099968-.0370007-.2249985-.0669994-.3469963-.092001-.1220016-.0249996-.2340012-.0369987-.3370018-.0369987-.1739998,0-.3400002.0240002-.4990005.0739994s-.2970009.1219997-.4150009.217001c-.118.0939999-.2109985.2119999-.2819977.348999-.0699997.1389999-.1049995.2970009-.1049995.4740009,0,.1779995.0349998.3359995.1049995.4729996.0709991.1389999.1639977.2559996.2819977.3509998s.2560005.1669998.4150009.217c.1590004.0489998.3250008.0739994.4990005.0739994.132,0,.2700005-.0159998.4140015-.0469999.1449966-.0309992.2769966-.0699997.3969994-.1169996.1189995-.0480003.218998-.1020002.2999992-.1610003.0810013-.0599995.1209984-.1169996.1209984-.1709995,0-.0279999-.0089989-.0530005-.0249977-.0740004l.086998-.0489998.4080009.6560001-.0489998.0489998Z"/>
          <path class="cls-3" d="M5.8375001,68.5997972c0-.0459995-.0180001-.0799999-.053-.1029997-.0349998-.0220003-.0950003-.0340004-.1820002-.0340004h-2.007v.7679996h1.2140002c.0829997,0,.1469998-.0109997.1919999-.033.0450001-.0239992.0679998-.0819998.0679998-.1769991h.112v.9659996h-.112c0-.0950003-.0229998-.1569996-.0679998-.1830006-.0450001-.0269995-.1090002-.039999-.1919999-.039999h-1.2140002v.8549995h2.0690002c.0619998,0,.112-.0150003.152-.0440001.039-.0289998.0580001-.0680003.0580001-.1179996h.1110001v.8479996h-.1110001c0-.0609999-.0190001-.0970001-.0580001-.1040001-.04-.0089998-.0900002-.0129995-.152-.0129995h-2.8860002v-.1110001c.029,0,.0550001-.0100002.0780001-.0290003.0219998-.0179996.0339999-.046.0339999-.0830002v-2.8109999c0-.0369997-.0120001-.0649996-.0339999-.0830002-.023-.0190001-.049-.0289993-.0780001-.0289993v-.1110001h2.8239999c.0869999,0,.1470003-.0139999.1820002-.04.0349998-.0270004.053-.0630007.053-.1080008h.1110001v.8170004h-.1110001Z"/>
          <path class="cls-3" d="M8.8902006,67.9304972c.2270002,0,.4390001.0339994.6339998.099.1970005.066.3669996.1669998.5120001.3009996.1440001.1339998.257.3039999.3400002.5080004.0819998.2039995.1239996.4440002.1239996.7200003,0,.2779999-.0419998.5179996-.1239996.7219992-.0830002.2040005-.1960001.3740005-.3400002.5080004-.1450005.1340003-.3149996.2340002-.5120001.3010001-.1949997.0650001-.4069996.098-.6339998.098h-2.0560002v-.1110001c.0949998,0,.1420002-.0370002.1420002-.1110001v-2.8120003c0-.0739994-.0470004-.1109991-.1420002-.1109991v-.1120005h2.0560002ZM8.6422005,70.6554971c.1940002,0,.3629999-.0170002.5080004-.0500002.1440001-.033.2639999-.0919995.3589993-.1769996.0950003-.0840006.1660004-.1970005.2140007-.3360004.0469999-.1409998.0710001-.3190002.0710001-.5339994,0-.2140007-.0240002-.3910007-.0710001-.5320005-.0480003-.1409998-.1190004-.2530003-.2140007-.3369999-.0949993-.085-.2149992-.1429996-.3589993-.177-.1450005-.033-.3140001-.0489998-.5080004-.0489998h-.9590001v2.1919999h.9590001Z"/>
          <path class="cls-3" d="M12.2711,68.0421972c-.0909996,0-.1359997.0369997-.1359997.1110001v1.8579998c0,.2600002.0829992.4380007.25.5360003.1679993.0970001.4119997.145.7339993.145.3220005,0,.5670004-.0479999.7340002-.145.1669998-.0979996.2510004-.276.2510004-.5360003v-1.8579998c0-.0740004-.0620003-.1110001-.1859999-.1110001v-.1110001h.9909992v.1110001c-.098999,0-.1489992.0369997-.1489992.1110001v1.8269997c0,.2440004-.0350008.4450006-.1050005.6040001-.0710001.1590004-.1759996.2860003-.316.3810005-.1399994.0949993-.3149996.1589994-.5229998.191-.2090006.033-.4490004.0499997-.7220001.0499997-.2720003,0-.5120001-.0169997-.7209997-.0499997-.2080002-.0320005-.3830004-.0960007-.5230007-.191-.1409998-.0950003-.2459993-.2220001-.316-.3810005-.0699997-.1589994-.1049995-.3599997-.1049995-.6040001v-1.8269997c0-.0740004-.0579996-.1110001-.1739998-.1110001v-.1110001h1.0159998v.1110001Z"/>
          <path class="cls-3" d="M19.2866993,70.7413974c-.0130005,0-.0240002-.0009999-.0340004-.0029998-.0100002-.0020003-.0219994-.0030003-.0340004-.0030003-.0249996,0-.0839996.026-.177.0739999-.0929985.0500002-.2099991.1059999-.3529987.1670003-.1420002.0629997-.3040009.1169996-.4860001.1609998-.1820011.046-.3710003.0690002-.5690002.0690002-.2609997,0-.5100002-.033-.75-.099-.2390003-.066-.4510002-.1690001-.6340008-.3060002-.184-.1389999-.3299999-.3109999-.4369993-.5179996-.1070004-.2060003-.1610003-.4470005-.1610003-.7250004,0-.2720003.0539999-.5120001.1610003-.7200003.1069994-.2089996.2529993-.3829994.4369993-.5239992.1830006-.1400003.3950005-.2450008.6340008-.3150005.2399998-.0710001.4890003-.1059999.75-.1059999.2099991,0,.4009991.0170002.5720005.0500002.1709995.0319996.3209991.0679998.4489994.1049995.1280003.0370007.2290001.0720005.3029995.1050005.0750008.033.1210003.0500002.137001.0500002.0209999,0,.0380001-.0110006.052-.0310001.0149994-.0209999.0259991-.0370007.0349998-.0500002l.0919991.0749998-.4829998.7490005-.0620003-.0440006c0-.0120001-.0009995-.0240002-.0030003-.0369997-.0009995-.0120001-.0049992-.026-.0089989-.0430002-.0079994-.0459995-.0500011-.092-.1240005-.1399994-.0739994-.0460005-.1660004-.0890007-.2749996-.1270008-.1100006-.0369997-.2250004-.0669994-.3470001-.092-.1219997-.0249996-.2339993-.0369997-.3369999-.0369997-.1739998,0-.3400002.0240002-.4990005.0740004s-.296999.1219997-.414999.217c-.118.0939999-.2110004.2119999-.2820015.349-.0699997.1389999-.1049995.2969999-.1049995.474,0,.1779995.0349998.3359995.1049995.4729996.0710011.1389999.1640015.2560005.2820015.3509998.118.0950003.2559986.1670003.414999.2170005.1590004.0489998.3250008.0739999.4990005.0739999.132,0,.2700005-.0159998.4139996-.0469999.1450005-.0310001.2770004-.0700002.3969994-.1169996.1190014-.0480003.2190018-.1020002.3000011-.1610003.0809994-.0600004.1210003-.1170006.1210003-.1710005,0-.0279999-.0090008-.0529995-.0249996-.0739994l.0869999-.0490007.407999.6560006-.0489998.0489998Z"/>
          <path class="cls-3" d="M19.9186001,71.0759974c.0529995-.0079999.0959988-.0349998.1259995-.0809999.0319996-.0450001.0620003-.0960002.0900002-.1540003l1.1459999-2.4089999c.0289993-.0529995.0550003-.1029997.0769997-.1490002.0230007-.0450001.0340004-.0839996.0340004-.1169996,0-.0410004-.0139999-.0700006-.0429993-.0869999-.0290012-.0159998-.0600014-.0279999-.0930004-.0370007v-.1109991h1.046999v.1109991c-.0289993.0090008-.0579987.0200005-.0869999.0340004-.0289993.0150003-.0439987.0439997-.0439987.0900002,0,.033.0079994.066.0219994.099.0149994.033.0370007.0769997.0650005.1300001l1.2880001,2.5199995c.0209999.0460005.0489998.0780001.0839996.099.0349998.0210004.0749989.0420003.1210003.0620003v.112h-1.0900002v-.112c.0159988,0,.0369987-.0050001.0620003-.0180001.0249996-.013.0369987-.0309997.0369987-.0559998,0-.0409999-.0170002-.0950003-.0499992-.1610003l-.2350006-.4579997h-1.5109997l-.2229996.4389997c-.0410004.0870004-.0620003.1490002-.0620003.1860003,0,.0459995.0389996.0679998.118.0679998v.112h-.8789997v-.112ZM22.2525997,69.9249973l-.5200005-1.1520004-.5819988,1.1520004h1.1019993Z"/>
          <path class="cls-3" d="M26.1597996,70.9649973c0,.0739999.0450001.1110001.1359997.1110001v.112h-.9529991v-.112c.0279999,0,.0539989-.0089998.0769997-.0279999.0229988-.0190001.0340004-.046.0340004-.0830002v-2.4650002h-1.0220013c-.0369987,0-.073.0110006-.1079998.0310001-.0349998.0209999-.0529995.0600004-.0529995.118h-.1110001v-.8669996h.1110001c0,.0579996.0179996.0970001.0529995.118.0349998.0199995.0710011.0310001.1079998.0310001h2.7490005c.0380001,0,.0739994-.0110006.1089993-.0310001.0349998-.0209999.0530014-.0600004.0530014-.118h.1110001v.8669996h-.1110001c0-.0579996-.0180016-.0970001-.0530014-.118-.0349998-.0199995-.0709991-.0310001-.1089993-.0310001h-1.0209999v2.4650002Z"/>
          <path class="cls-3" d="M28.2154999,71.0763969c.1070004,0,.1609993-.0370002.1609993-.1110001v-2.8120003c0-.0739994-.0539989-.1110001-.1609993-.1110001v-.1119995h1.0279999v.1119995c-.1079998,0-.1609993.0370007-.1609993.1110001v2.8120003c0,.0739999.0529995.1110001.1609993.1110001v.1110001h-1.0279999v-.1110001Z"/>
          <path class="cls-3" d="M32.1720009,67.8940973c.2270012,0,.4580002.0340004.6930008.1009998.2360001.0690002.4510002.1710005.644001.3070002.1939964.1370001.3529968.3080006.4769974.5170002.1240005.2080002.1860008.4560003.1860008.7399998,0,.2849998-.0620003.5320005-.1860008.7399998-.1240005.2090006-.2830009.3810005-.4769974.5180006-.1930008.1350002-.4080009.2349997-.644001.296-.2350006.0619998-.4659996.0929999-.6930008.0929999-.2269993,0-.4580002-.0310001-.6930008-.0929999-.2360001-.0610003-.4510002-.1609998-.6439991-.296-.1949997-.1370001-.3530006-.309-.4769993-.5180006-.1240005-.2079992-.1860008-.4549999-.1860008-.7399998,0-.2839994.0620003-.5319996.1860008-.7399998.1239986-.2089996.2819996-.3800001.4769993-.5170002.1929989-.1359997.407999-.2379999.6439991-.3070002.2350006-.0669994.4660015-.1009998.6930008-.1009998M32.1720009,68.4630976c-.1570015,0-.3139992.0249996-.4710007.0740004-.1560001.0499992-.2979984.1209993-.4239998.2139997-.1259995.0929995-.2279987.2069998-.3059998.3439999-.0790005.1359997-.118.2910004-.118.4639997,0,.1739998.0389996.3280001.118.4650002.078001.1350002.1800003.2510004.3059998.3430004.1260014.0929995.2679996.1639996.4239998.2139997.1570015.0489998.3139992.0739999.4710007.0739999s.3129997-.0250001.4710007-.0739999c.1559982-.0500002.2980003-.1210003.4239998-.2139997.1259995-.092.2280006-.2080002.3059998-.3430004.0789986-.1370001.118-.2910004.118-.4650002,0-.1729994-.0390015-.3280001-.118-.4639997-.0779991-.1370001-.1800003-.2510004-.3059998-.3439999-.1259995-.0930004-.2680016-.1640005-.4239998-.2139997-.1580009-.0490007-.3139992-.0740004-.4710007-.0740004"/>
          <path class="cls-3" d="M35.1441994,71.0763969c.0779991,0,.118-.0370002.118-.1110001v-2.8120003c0-.0739994-.0400009-.1110001-.118-.1110001v-.1119995h1.0590019v.1119995c-.0330009,0-.0500031.0200005-.0500031.0610008,0,.0339994.0410004.0909996.1240005.1739998l1.7770004,1.8449993v-1.9689999c0-.0739994-.0540009-.1110001-.1609993-.1110001v-.1119995h.9350014v.1119995c-.0780029,0-.1180038.0370007-.1180038.1110001v2.8120003c0,.0739999.0400009.1110001.1180038.1110001v.1110001h-1.0030022v-.1110001c.0540009,0,.0810013-.0190001.0810013-.0560002,0-.0289998-.0330009-.0759997-.0990028-.1419997l-1.8889999-1.9689999v2.0559998c0,.0739999.0470009.1110001.1430016.1110001v.1110001h-.9169998v-.1110001Z"/>
          <path class="cls-3" d="M39.5284004,71.0759974c.0530014-.0079999.0960007-.0349998.1259995-.0809999.0320015-.0450001.0620003-.0960002.0900002-.1540003l1.1459999-2.4089999c.0289993-.0529995.0550003-.1029997.0769997-.1490002.0229988-.0450001.0340004-.0839996.0340004-.1169996,0-.0410004-.0139999-.0700006-.0429993-.0869999-.0289993-.0159998-.0600014-.0279999-.0930023-.0370007v-.1109991h1.0470009v.1109991c-.0289993.0090008-.0579987.0200005-.086998.0340004-.0290031.0150003-.0440025.0439997-.0440025.0900002,0,.033.0079994.066.0220032.099.0149994.033.0369987.0769997.0649986.1300001l1.2879982,2.5199995c.0209999.0460005.0489998.0780001.0839996.099.0349998.0210004.0750008.0420003.1210022.0620003v.112h-1.0900002v-.112c.0159988,0,.0369987-.0050001.0620003-.0180001.0249977-.013.0369987-.0309997.0369987-.0559998,0-.0409999-.0169983-.0950003-.0499992-.1610003l-.2350006-.4579997h-1.5109978l-.2230034.4389997c-.0409966.0870004-.0620003.1490002-.0620003.1860003,0,.0459995.0390015.0679998.118.0679998v.112h-.8789978v-.112ZM41.8624001,69.9249973l-.5200005-1.1520004-.5820007,1.1520004h1.1020012Z"/>
          <path class="cls-3" d="M47.0821991,71.3048973c0-.0619998-.0200005-.0970001-.0589981-.1040001-.0390015-.0089998-.0890007-.013-.151001-.013h-2.9480019v-.112c.1240005,0,.1860008-.0369997.1860008-.1110001v-2.8109999c0-.0749998-.0620003-.1120005-.1860008-.1120005v-.1110001h1.0650024v.1110001c-.1150017,0-.1730003.0370007-.1730003.1120005v2.4640002h2.0559998c.0620003,0,.1119995-.0140004.151001-.0430002.0389977-.0289998.0589981-.0680003.0589981-.1179996h.1110001v.8479996h-.1110001Z"/>
          <path class="cls-3" d="M3.0201001,77.3858972l.062.031c0,.0369999.0079999.0699999.0249999.099.029.05.085.098.1700001.145.085.048.181.09.2909999.127.1090002.037.2240002.068.3440001.09.1190002.023.227.034.3220003.034.0699997,0,.1609998-.005.2719998-.015.112-.011.2210002-.032.3280001-.066.1069999-.032.2009997-.078.2789998-.135.0780001-.058.1170001-.134.1170001-.23,0-.095-.0359998-.1650001-.1080003-.21-.0719995-.046-.1669998-.079-.2849998-.099-.1169996-.021-.2519999-.035-.402-.041-.151-.005-.3049998-.015-.461-.028-.1570001-.012-.3109999-.0320001-.4619999-.061-.1500001-.029-.2840002-.0780001-.4020002-.146s-.2129998-.161-.2849998-.278c-.072-.118-.108-.2719998-.108-.4619999,0-.1280003.03-.2540002.0899999-.3770001.059-.1240001.151-.233.2750001-.3280001.1240001-.096.2809999-.1729999.471-.233.1890001-.059.4119999-.089.6679997-.089.2190003,0,.4090004.016.5700002.049.1610003.033.3000002.0680001.4179997.105.118.0369999.217.072.2970004.105.0799999.0339999.1480002.05.2020001.05.0569997,0,.099-.0129998.1230001-.0369999l.0749998.05-.4280005.773-.0619998-.0239999c-.0079999-.0579998-.0239997-.1060002-.0490003-.1429999-.033-.0500002-.0879993-.0970001-.1639996-.145-.0770001-.0480001-.1660004-.0900002-.2690001-.1270003-.1040001-.0369997-.2150002-.0679998-.335-.0899997-.1199999-.0230002-.2399998-.0340002-.3590002-.0340002-.0909996,0-.1849999.0080001-.2819998.0210001-.0969999.0149999-.1849999.0359998-.263.066-.0779998.0289998-.1429999.0669999-.1949999.1139998-.052.0479999-.0780001.1059999-.0780001.177,0,.098.036.1729999.109.2220001.072.0499997.1670001.0869999.2850001.112.118.0249999.2509999.0419998.402.0489998.151.0090001.3039999.0190001.4619999.0320001.1560001.0110002.3099999.0339999.461.0640001.1500001.0309999.2849998.0809999.4020004.1489999.118.068.2129998.16.2849998.276.072.115.1090002.2659999.1090002.451,0,.215-.0570002.391-.1710005.527-.1129999.136-.2550001.244-.4239998.322s-.3520002.131-.5479999.158c-.1960001.026-.3780003.04-.5480003.04-.2349997,0-.4329998-.0139999-.5909998-.04-.1589999-.027-.2909999-.06-.3970001-.1-.105-.039-.188-.074-.25-.104-.0619998-.031-.1159999-.047-.161-.047-.0289998,0-.056.017-.0809999.05l-.086-.05.3399999-.749Z"/>
          <path class="cls-3" d="M7.8003998,75.2618971c-.0910001,0-.1360002.0369999-.1360002.1110001v1.8579999c0,.2600001.0830002.4380001.25.5360001.1679997.0969999.4120002.145.7339997.145.3220005,0,.5670004-.0480001.7340002-.145.1669998-.098.2510004-.276.2510004-.5360001v-1.8579999c0-.0740001-.0620003-.1110001-.1859999-.1110001v-.1110001h.9910002v.1110001c-.0990009,0-.1490002.0369999-.1490002.1110001v1.8269999c0,.244-.0349998.4449999-.1050005.6040001-.0710001.1589999-.1759996.286-.316.381-.1400003.0949998-.3149996.1589999-.5229998.191-.2089996.033-.4490004.05-.7220001.05-.2720003,0-.5120001-.017-.7209997-.05-.2080002-.0320001-.3830004-.0960002-.5230002-.191-.1409998-.095-.2459998-.2220001-.316-.381-.0700002-.1590002-.105-.3600001-.105-.6040001v-1.8269999c0-.0740001-.0580001-.1110001-.1739998-.1110001v-.1110001h1.0159998v.1110001Z"/>
          <path class="cls-3" d="M11.3174,78.4078972v-.112c.1519995,0,.2290001-.0369999.2290001-.1109999v-2.8120002c0-.0739999-.0770006-.1110001-.2290001-.1110001v-.1109998h2.1799994c.3959999,0,.7070007.073.934.2190001.2270002.1469998.3410006.3959999.3410006.747,0,.3499999-.1140003.5989999-.3410006.7459999-.2269993.146-.5380001.219-.934.219h-1.2449999v1.103c0,.074.066.1109999.198.1109999v.112h-1.1329994ZM13.5713997,76.5128973c.1359997,0,.2519999-.027.3500004-.0810001.0969992-.0539999.1449995-.158.1449995-.3149998,0-.1580002-.0480003-.2620001-.1449995-.3160002-.0980005-.0539999-.2140007-.0809999-.3500004-.0809999h-1.3190002v.793h1.3190002Z"/>
          <path class="cls-3" d="M15.4473,78.4078972v-.112c.1519995,0,.2290001-.0369999.2290001-.1109999v-2.8120002c0-.0739999-.0770006-.1110001-.2290001-.1110001v-.1109998h2.1800003c.3959999,0,.7069988.073.934.2190001.2269993.1469998.3409996.3959999.3409996.747,0,.3499999-.1140003.5989999-.3409996.7459999-.2270012.146-.5380001.219-.934.219h-1.2450008v1.103c0,.074.066.1109999.198.1109999v.112h-1.1329994ZM17.7012997,76.5128973c.1359997,0,.2520008-.027.3500004-.0810001.0970001-.0539999.1450005-.158.1450005-.3149998,0-.1580002-.0480003-.2620001-.1450005-.3160002-.0979996-.0539999-.2140007-.0809999-.3500004-.0809999h-1.3190002v.793h1.3190002Z"/>
          <path class="cls-3" d="M21.5153008,75.1137972c.2269993,0,.4580002.0339999.6930008.1010001.2360001.069.4510002.171.6439991.3069999.1940002.1370001.3530006.3080001.4769993.517.1240005.2079999.1860008.4560001.1860008.74,0,.2850001-.0620003.5320001-.1860008.74-.1239986.2090001-.282999.381-.4769993.5180001-.1929989.135-.407999.2349999-.6439991.296-.2350006.0619998-.4660015.0929999-.6930008.0929999s-.4580002-.0310001-.6930008-.0929999c-.2360001-.0610001-.4510002-.161-.6439991-.296-.1949997-.1370001-.3530006-.309-.4769993-.5180001-.1240005-.2079999-.1860008-.4549999-.1860008-.74,0-.2839999.0620003-.5320001.1860008-.74.1239986-.2089999.2819996-.3799999.4769993-.517.1929989-.1359999.407999-.2379999.6439991-.3069999.2350006-.0670002.4660015-.1010001.6930008-.1010001M21.5153008,75.6827972c-.1569996,0-.3139992.0250001-.4710007.0740001-.1560001.05-.2979984.1209998-.4239998.2139997-.1259995.0930002-.2279987.2070003-.3059998.3440001-.0790005.1359999-.118.291-.118.464,0,.174.0389996.3280001.118.465.078001.135.1800003.251.3059998.3430001.1260014.0929999.2679996.164.4239998.214.1570015.049.3140011.0739999.4710007.0739999s.3129997-.0249999.4710007-.0739999c.1560001-.05.2979984-.1210001.4239998-.214.1259995-.092.2279987-.2080001.3059998-.3430001.0790005-.137.118-.291.118-.465,0-.173-.0389996-.3280001-.118-.464-.078001-.1369998-.1800003-.2509999-.3059998-.3440001-.1260014-.0929999-.2679996-.1639998-.4239998-.2139997-.1580009-.049-.3140011-.0740001-.4710007-.0740001"/>
          <path class="cls-3" d="M26.5370998,75.1507971c.198,0,.3780003.017.5390015.053.1599998.0350001.2989998.0899999.4139996.1670001.1159992.076.2049999.175.2670002.296.0609989.122.0930004.2719998.0930004.45,0,.2719998-.0810013.4799999-.2420006.6249999-.1610012.1440001-.3780003.242-.6499996.291l.823,1.176c.0289993.041.0629997.067.1029987.075.0390015.008.0750008.012.1079998.012v.112h-1.157999v-.112c.0370007,0,.0690002-.0059999.0960007-.018.0269985-.013.039999-.03.039999-.05,0-.021-.0079994-.044-.0249996-.071-.0160007-.0270001-.0410004-.0630001-.0739994-.1090001l-.6810017-.966h-.8849983v1.103c0,.0369999.0129986.064.039999.0829999.0270004.0190001.0750008.028.1450005.028v.112h-1.0710011v-.112c.1200008,0,.1800003-.0369999.1800003-.1109999v-2.8120002c0-.0739999-.0599995-.1110001-.1800003-.1110001v-.1109998h2.118ZM26.3761005,76.5997971c.1480007,0,.2719994-.012.3719997-.034.0979996-.023.177-.0550001.2340012-.0969999.059-.0410001.0999985-.0900002.1239986-.145.0249996-.056.0380001-.1170001.0380001-.1830001,0-.0650001-.0130005-.1270001-.0380001-.1830001-.0240002-.0549998-.0649986-.1029999-.1239986-.145-.0570011-.0409999-.1360016-.073-.2340012-.096-.1000004-.0220001-.223999-.0339999-.3719997-.0339999h-1.0709991v.9169999h1.0709991Z"/>
          <path class="cls-3" d="M30.6364002,78.1847972c0,.074.0450001.111.1359997.111v.112h-.9529991v-.112c.0279999,0,.0539989-.009.0769997-.028.0229988-.019.0340004-.046.0340004-.083v-2.465h-1.0220013c-.0369987,0-.073.0110002-.1079998.0310001-.0349998.0209999-.0529995.0599999-.0529995.118h-.1110001v-.8670001h.1110001c0,.0580001.0179996.0970001.0529995.118.0349998.02.0710011.0310001.1079998.0310001h2.7490005c.0380001,0,.0739994-.0110002.1089993-.0310001.0349998-.0209999.0530014-.0599999.0530014-.118h.1110001v.8670001h-.1110001c0-.0580001-.0180016-.0970001-.0530014-.118-.0349998-.02-.0709991-.0310001-.1089993-.0310001h-1.0209999v2.465Z"/>
          <path class="cls-3" d="M38.0358009,77.9610972c-.0130005,0-.0239983-.001-.0340004-.003-.0099983-.002-.0219994-.003-.0340004-.003-.0249977,0-.0839996.026-.1769981.074-.0930023.05-.2100029.106-.3530006.167-.1420021.063-.3040009.117-.4860001.161-.1819992.046-.3710022.069-.5690002.069-.2610016,0-.5099983-.033-.75-.099-.2389984-.066-.4510002-.169-.6339989-.306-.1840019-.139-.3300018-.311-.4370003-.518-.1070023-.206-.1609993-.4469999-.1609993-.725,0-.2720001.053997-.5120001.1609993-.72.1069984-.2089999.2529984-.3829999.4370003-.5239999.1829987-.1399999.3950005-.2449999.6339989-.3150001.2400017-.0709999.4889984-.1059999.75-.1059999.2099991,0,.401001.017.5719986.05.1710014.0320001.321003.0680001.4490013.105.1279984.0370002.2290001.072.3030014.105.0749969.033.1209984.05.1369972.05.0209999,0,.038002-.0109999.052002-.0309999.0149994-.0209999.026001-.0369999.0349998-.05l.0919991.075-.4829979.7489998-.0620003-.0439999c0-.0120001-.0010033-.0240002-.0030022-.0370002-.0009995-.0119998-.0049973-.0259998-.0089989-.043-.0079994-.046-.0499992-.0919998-.1240005-.1399999-.0740013-.046-.1660004-.089-.2750015-.1270001-.1099968-.0369999-.2249985-.0669999-.3469963-.092-.1220016-.0249999-.2340012-.0369999-.3370018-.0369999-.1739998,0-.3400002.0240002-.4990005.0740001s-.2970009.122-.4150009.217c-.118.0939999-.2109985.2119999-.2819977.349-.0699997.1389999-.1049995.2969999-.1049995.474,0,.178.0349998.336.1049995.4729999.0709991.1390001.1639977.2559999.2819977.351s.2560005.1670001.4150009.217c.1590004.049.3250008.074.4990005.074.132,0,.2700005-.016.4140015-.047.1449966-.031.2769966-.07.3969994-.117.1189995-.048.218998-.102.2999992-.161.0810013-.06.1209984-.117.1209984-.1709999,0-.0280001-.0089989-.053-.0249977-.0740001l.086998-.0489999.4080009.656-.0489998.049Z"/>
          <path class="cls-3" d="M42.1285019,75.8194971c0-.046-.0180016-.0799999-.0530014-.1029999-.0349998-.0220001-.0949974-.0340002-.1819992-.0340002h-2.007v.7680001h1.2140007c.0830002,0,.1469994-.0110002.1920013-.033.0449982-.0240002.067997-.082.067997-.177h.1120033v.966h-.1120033c0-.0949999-.0229988-.1569999-.067997-.183-.045002-.027-.1090012-.04-.1920013-.04h-1.2140007v.855h2.0690002c.0620003,0,.1119995-.0150001.1520004-.044.0390015-.029.0579987-.0680001.0579987-.118h.1110001v.8479999h-.1110001c0-.0609999-.0189972-.0969999-.0579987-.1039999-.0400009-.0090001-.0900002-.013-.1520004-.013h-2.8859978v-.1110001c.0289993,0,.0549965-.01.0779991-.029.0219994-.0179999.0340004-.046.0340004-.0829999v-2.8110001c0-.0369999-.012001-.0649998-.0340004-.0829999-.0230026-.0189998-.0489998-.029-.0779991-.029v-.1110001h2.8239975c.0870018,0,.1469994-.0139999.1819992-.04.0349998-.027.0530014-.063.0530014-.1079998h.1110001v.8169999h-.1110001Z"/>
          <path class="cls-3" d="M43.2305984,78.2960972c.0779991,0,.118-.037.118-.111v-2.812c0-.0739999-.0400009-.1109998-.118-.1109998v-.112h1.0589981v.112c-.0329971,0-.0499992.02-.0499992.0609999,0,.0340002.0410004.0910001.1240005.174l1.7770004,1.8449999v-1.969c0-.0739999-.0540009-.1109998-.1609993-.1109998v-.112h.9349976v.112c-.0779991,0-.1179962.0369999-.1179962.1109998v2.812c0,.074.0399971.111.1179962.111v.111h-1.0029984v-.111c.0540009,0,.0810013-.019.0810013-.056,0-.029-.0330009-.076-.098999-.142l-1.8890038-1.969v2.0559999c0,.074.0470009.111.1430016.111v.111h-.9169998v-.111Z"/>
          <path class="cls-3" d="M49.7262001,78.1847972c0,.074.0449982.111.1360016.111v.112h-.9530029v-.112c.0279999,0,.0540009-.009.0769997-.028.0230026-.019.0340004-.046.0340004-.083v-2.465h-1.0219994c-.0369987,0-.072998.0110002-.1079979.0310001-.0349998.0209999-.0530014.0599999-.0530014.118h-.1110001v-.8670001h.1110001c0,.0580001.0180016.0970001.0530014.118.0349998.02.0709991.0310001.1079979.0310001h2.7490005c.038002,0,.0740013-.0110002.1090012-.0310001.0349998-.0209999.0529976-.0599999.0529976-.118h.1110001v.8670001h-.1110001c0-.0580001-.0179977-.0970001-.0529976-.118-.0349998-.02-.0709991-.0310001-.1090012-.0310001h-1.0209999v2.465Z"/>
          <path class="cls-3" d="M54.8590012,75.8194971c0-.046-.0180016-.0799999-.0530014-.1029999-.0349998-.0220001-.0949974-.0340002-.1819992-.0340002h-2.007v.7680001h1.2140007c.0830002,0,.1469994-.0110002.1920013-.033.0449982-.0240002.067997-.082.067997-.177h.1120033v.966h-.1120033c0-.0949999-.0229988-.1569999-.067997-.183-.045002-.027-.1090012-.04-.1920013-.04h-1.2140007v.855h2.0690002c.0620003,0,.1119995-.0150001.1520004-.044.0390015-.029.0579987-.0680001.0579987-.118h.1110001v.8479999h-.1110001c0-.0609999-.0189972-.0969999-.0579987-.1039999-.0400009-.0090001-.0900002-.013-.1520004-.013h-2.8859978v-.1110001c.0289993,0,.0549965-.01.0779991-.029.0219994-.0179999.0340004-.046.0340004-.0829999v-2.8110001c0-.0369999-.012001-.0649998-.0340004-.0829999-.0230026-.0189998-.0489998-.029-.0779991-.029v-.1110001h2.8239975c.0870018,0,.1469994-.0139999.1819992-.04.0349998-.027.0530014-.063.0530014-.1079998h.1110001v.8169999h-.1110001Z"/>
          <path class="cls-3" d="M58.0107002,75.1507971c.1980019,0,.3780022.017.5390015.053.1599998.0350001.2989998.0899999.4139977.1670001.1160011.076.2050018.175.2670021.296.0610008.122.0929985.2719998.0929985.45,0,.2719998-.0809975.4799999-.2420006.6249999-.1609993.1440001-.3779984.242-.6499977.291l.822998,1.176c.0289993.041.0629997.067.1030006.075.0390015.008.0750008.012.1080017.012v.112h-1.1580009v-.112c.0369987,0,.0690002-.0059999.0960007-.018.0270004-.013.0400009-.03.0400009-.05,0-.021-.0080032-.044-.0250015-.071-.0159988-.0270001-.0410004-.0630001-.0740013-.1090001l-.6809998-.966h-.8849983v1.103c0,.0369999.0130005.064.0400009.0829999.0269966.0190001.0749969.028.1449966.028v.112h-1.0709991v-.112c.1199989,0,.1800003-.0369999.1800003-.1109999v-2.8120002c0-.0739999-.0600014-.1110001-.1800003-.1110001v-.1109998h2.118ZM57.8497009,76.5997971c.1479988,0,.2719994-.012.3720016-.034.0979996-.023.1769981-.0550001.2339973-.0969999.0590019-.0410001.1000023-.0900002.1240005-.145.0250015-.056.038002-.1170001.038002-.1830001,0-.0650001-.0130005-.1270001-.038002-.1830001-.0239983-.0549998-.0649986-.1029999-.1240005-.145-.0569992-.0409999-.1359978-.073-.2339973-.096-.1000023-.0220001-.2240028-.0339999-.3720016-.0339999h-1.0709991v.9169999h1.0709991Z"/>
          <path class="cls-3" d="M97.0333023,25.7882957c.2030029-.3190002.3180008-.4790001.3909988-.5800018.2600021-.4339981.3909988-.5499992.5650024-.5499992.1589966,0,.2600021.0580025.737999.507l.1740036.1590004.173996.1590004c.2170029.1889992.2900009.3050003.2900009.4350014,0,.1739998-.1600037.2749977-.4059982.2749977h-10.3390045c-.3479996,0-.7819977.0149994-1.1009979.0430031l-.3190002.0149994c-.1729965,0-.2019958-.0149994-.2740021-.1739998-.072998-.1300011-.1159973-.2750015-.1159973-.3479996,0-.0140038,0-.0280037.0139999-.0430031q.0149994-.0139999.0429993-.0139999l.2320023.0139999c.6809998.0730019,1.2169952.1020012,2.1149979.1020012h7.8190002Z"/>
          <path class="cls-3" d="M102.2734985,26.8886986c-.0579987.0139999-.072998.0139999-.1450043.0139999-.086998.2459984-.2169952.4490013-.3040009.4490013-.1009979,0-.4779968-.6660004-.6229935-1.1150017-.0289993-.0719986-.0430069-.1149979-.0580063-.1300011v-.0289993c.0149994-.0579987.029007-.0579987.1740036-.0579987h.3479996l.1880035-.0149994h.3769989l.1299973-.0139999c.0139999-.2019997.0139999-.4920006.0139999-.8980026v-1.9839973c0-.5790024-.0139999-.9990005-.0569992-1.2159996l-.0149994-.0590019c0-.0279999-.0149994-.0999985-.0289993-.1870003-.0289993-.1739998-.0429993-.2459984-.0429993-.3330002,0-.1159973.0569992-.1739998.1589966-.1739998.2170029,0,1.1149979.3910027,1.1730042.507h.447998c.0149994-.086998.0299988-.1159973.072998-.2900009.1740036-.6949997.3040009-1.4339981.3040009-1.7959976,0-.1150017.0579987-.1730003.173996-.1590004l.1450043.0149994c.6660004.1010017,1.2450027.3330002,1.2450027.4920006,0,.086998-.1310043.1879997-.4050064.3040009-.1019974.0429993-.159996.072998-.173996.086998-.072998.0429993-.2180023.2890015-.3330002.5499992-.0579987.1450005-.2610016.4640007-.4919968.7970009h.9119949c.086998-.1019974.1730042-.2029991.1880035-.2319984.1879959-.2320023.2029953-.2470016.3040009-.2470016.1159973,0,.2169952.0740013.6079941.4070015.3040009.2459984.3769989.3330002.3769989.4329987,0,.1020012-.086998.1599998-.3049927.2470016l-.1880035.1009979v3.2719994l.1740036-.0129967q.4639969-.0300026.5499954-.0300026c.1159973,0,.1450043.0149994.1450043.0870018,0,.1299973-.2310028.2319984-.8540039.4199982,0,3.098999,0,3.8240013.0139999,4.8950005v.2019997c0,.3769989-.0579987.5650024-.2600021.7680016-.260994.2459984-.7099991.4490013-1.0139999.4490013h-.0139999c-.1449966,0-.2029953-.0300026-.276001-.1160011-.3609924-.406002-.4049988-.4490013-.8829956-.7240028-.1880035-.1159973-.2610016-.1739998-.2610016-.2169991,0-.0289993.0149994-.0439987.0439987-.072998h.0289993c.0580063,0,.1880035.0149994.927002.072998.2020035.0139999.3619995.0139999.5790024.0139999.173996,0,.2169952-.1009979.2169952-.5349998v-4.5330009c-.6369934.1450005-1.3610001.2750015-2.3460007.4340019-.173996,2.3899994-.5209961,3.9529991-1.1439972,5.0110016-.2460022.4199982-.5069962.6949997-.6800003.7099991q-.0149994,0-.0299988-.0149994c-.0139999-.0289993-.0139999-.0440025-.0139999-.0440025,0-.0719986.0289993-.144001.086998-.2459984.5360031-1.2740021.7820053-2.7080002.9120026-5.2700005l-.0719986.0139999ZM103.3014984,22.2257004c-.0289993.4349976-.0439987.7819977-.0439987,1.0419998v2.6499977l.2900009-.0139999c.9129944-.0719986,1.2739944-.1149979,2.0129929-.1889992v-3.7350006h-2.185997l-.0149994.0149994-.0149994.0130005-.0139999.0149994-.0139999.0149994-.0149994.0139999v.1740036ZM104.4884949,23.4706993c.3050003.3909988.4490051.7529984.4490051,1.1009979,0,.3770027-.1440048.5940018-.4200058.5940018-.2169952,0-.3330002-.1450005-.4049988-.5219994-.173996-.8969994-.2309952-1.0860023-.4199982-1.5489998-.0429993-.1010017-.0719986-.2030029-.0719986-.2610016,0-.0289993.0289993-.0579987.0719986-.0579987.1299973,0,.5219955.3330002.7959976.6949997M104.6334991,29.915699c0,.2889977-.0139999.3610001-.1010056.4770012-.086998.1159973-.2459946.2029991-.3909988.2029991-.1879959,0-.3190002-.1739998-.3190002-.4490013,0-.0439987,0-.1160011.0149994-.593998.0139999-.2900009.0289993-.9990005.0289993-1.2450027,0-.2609978-.0149994-.4489975-.0439987-.7099991-.0139999-.1300011-.0279999-.2750015-.0279999-.3330002,0-.1590004.0569992-.230999.1730042-.230999.0579987,0,.086998,0,.1879959.0279999.0289993.0149994.102005.0149994.1740036.0439987.5069962.1160011.723999.2029991.723999.3180008,0,.0870018-.0719986.1590004-.4339981.3919983,0,.8250008,0,1.1430016.0139999,1.6800003v.420002ZM111.6714935,25.8167c.2460022-.2170029.2900009-.2610016.4050064-.2610016.2029953,0,1.0289993.7529984,1.0289993.9420013,0,.1159973-.1170044.2169991-.4210052.317997-.1009979.0440025-.1159973.0440025-.2019958.0870018-.3769989.9129982-.8690033,1.7659988-1.4339981,2.4620018.7819977.7669983,1.7809982,1.4769974,2.9249954,2.1139984.102005.0579987.1450043.1020012.1450043.1450005s-.0139999.0579987-.1300049.1450005c-.0149994.0139999-.0579987.0579987-.1299973.1149979-.3190002.2610016-.5070038.362999-.6520004.362999-.3909988,0-1.7229996-1.1299973-2.6650009-2.2739983-.8539963.8829994-1.3899994,1.3180008-2.2009964,1.7960014-.6080017.3759995-1.2740021.637001-1.564003.637001-.1009979,0-.1449966-.0300026-.1449966-.0730019,0-.0720024.072998-.1300011.2179947-.2029991,1.3320007-.8100014,2.201004-1.5780029,3.1850052-2.8080025-.7230072-.9989967-1.3320007-2.1579971-1.5340042-2.9109993-.1019974,0-.1309967.0139999-.2900009.0289993-.1449966.0149994-.2459946.0149994-.3190002.0149994-.086998,0-.1009979,0-.1439972-.0299988-.086998-.1160011-.189003-.3470001-.189003-.4770012,0-.0439987.0149994-.0589981.0579987-.0589981.0440063,0,.1310043.0149994.2180023.0289993.3470001.0580025.7809982.0870018,1.2300034.0870018h2.4039993l.2029953-.1879997ZM109.3834991,20.8346977c-.0149994,1.6660004-.2460022,2.6800003-.7820053,3.6350021-.2900009.507-.6520004.8839989-.8539963.8839989-.0299988,0-.0579987-.0289993-.0579987-.0719986,0-.0300026.0139999-.0730019.0579987-.1599998.4919968-.9410019.8249969-2.5050011.8249969-3.939003,0-.2169991,0-.3909988-.0149994-.6079979-.0139999-.1300011-.0139999-.2460022-.0139999-.3040009,0-.1879997.0439987-.2750015.1450043-.2750015.1159973,0,.3619995.1160011.7959976.3619995h1.1879959l.1590042-.1589966.2030029-.2180023c.086998-.0579987.1299973-.0719986.1879959-.0719986.086998,0,.1299973.0139999.3190002.1739998l.2600021.2319984c.0579987.0429993.086998.0720024.1159973.0870018.1880035.1590004.2170029.2019997.2170029.3040009,0,.1009979-.0289993.1159973-.2600021.2459984l-.173996.0870018c-.015007.0139999-.029007.0139999-.0440063.0139999v1.968998c0,1.0719986.0289993,1.1150017.753006,1.1150017.5219955,0,.6229935-.057003.6959991-.420002l.0139999-.0289993v-.0429993s.0139999-.0289993.0139999-.0719986l.0439987-.2610016c.1159973-.6230011.1299973-.6660004.2029953-.6660004.1010056,0,.1300049.1020012.2460022.723999.0579987.3470001.1730042.5790024.3759995.7390022.0730057.0579987.102005.1299973.102005.2019997,0,.1590004-.1600037.3479996-.4060059.4349976-.2319946.1010017-.6079941.144001-1.2599945.144001-.637001,0-.7820053-.0149994-.9840012-.0719986-.4930038-.1450005-.6090012-.4630013-.6090012-1.5930023v-2.4759979h-1.3460007l-.0149994.0139999-.0139999.0149994-.0289993.0139999-.0289993.0149994-.0139999.0279999h-.0149994ZM108.8184967,26.3956985c.5650024.9990005,1,1.637001,1.6360016,2.3600006.5219955-.7960014.927002-1.5629997,1.2309952-2.3600006h-2.8669968Z"/>
          <path class="cls-3" d="M116.0707016,32.478096c-.0289993,0-.0429993-.0149994-.0429993-.0429993,0-.0439987.086998-.189003.1879959-.3050003.7100067-1.0419998,1.1730042-1.868,1.4340057-2.5919991.0569992-.1879997.086998-.2460022.1439972-.2460022.362999,0,1.0719986.420002,1.0719986.6230011.0149994.0870018-.173996.1879997-.4339981.2319984-.927002,1.2740021-1.9990005,2.3310013-2.3610001,2.3310013M117.649704,28.8000946c0,.4050026-.2170029.6809998-.5360031.6809998-.159996,0-.2900009-.086998-.3470001-.2329979-.0149994-.0569992-.0149994-.1000023-.0149994-.2890015v-.8250008c.0149994-.2329979.0149994-.5789986.0149994-1.0139999v-1.447998l.0139999-1.9259987v-1.9980011c0-.6080017,0-.6669998-.0289993-.9850006l-.0149994-.3619995c0-.1730003.0299988-.2599983.1019974-.2599983.0139999,0,.0429993.0129967.0870056.0279999l.1449966.0589981c.2460022.0870018.447998.1730003.6080017.2589989h2.3310013c.0579987-.0429993.2749939-.2589989.3619995-.3610001.0579987-.0719986.1449966-.1159973.2319946-.1159973.2030029,0,.9990005.7099991.9990005.8839989,0,.086998-.086998.1739998-.3330002.3030014l-.1589966.1019974c.0139999,3.026001.0429993,5.8069992.0719986,6.7330017.0149994.1739998.0149994.4349976.0149994.4629974,0,.5220032-.2180023.8260002-.6090012.8260002-.2599945,0-.3619995-.1730003-.3619995-.5929985v-.4199982h-2.5769958v.4919968ZM120.2266998,27.9450951v-2.0559998h-2.5769958v2.0559998h2.5769958ZM117.6637039,20.8940964v2.1279984h2.5629959v-2.1279984h-2.5629959ZM120.2266998,25.2670975v-1.8980026h-2.5629959v2.1580009h2.5629959v-.2599983ZM120.6907043,30.1170959c.5069962.4640007.8539963.9990005.8539963,1.3190002,0,.2740021-.2170029.507-.4779968.507-.1010056,0-.2170029-.0439987-.2890015-.1310005q-.072998-.0579987-.7389984-1.4189987c-.0870056-.1739998-.3910065-.6090012-.5650024-.8110008-.1159973-.1310005-.1449966-.1879997-.1449966-.2179985,0-.0290031.0289993-.0430031.072998-.0430031.2319946,0,.8399963.3620033,1.2890015.7960014M126.9747009,22.9640961c.1449966-.2169991.1880035-.2890015.2750015-.4490013.1449966-.2599983.2750015-.3759995.4059982-.3759995.1299973,0,.3910065.1739998.8249969.5790024.2030029.1879997.2460022.2609978.2460022.3769989,0,.144001-.1300049.2459984-.3040009.2459984h-2.0270004v1.1140022l.0149994,1.9699974c.0139999,2.1430016.0139999,3.3889999.0139999,3.7789993,0,1.2320023,0,1.2890015-.072998,1.4480019-.1589966.3910027-.637001.6520004-1.3320007.723999q-.0279999.0150032-.086998.0150032c-.1009979,0-.1729965-.0430031-.2600021-.1450043-.2900009-.3469963-.4349976-.4489975-.9560013-.7099991-.2169952-.0999985-.3190002-.1739998-.3190002-.230999,0-.0429993.0300064-.0719986.0870056-.0719986l.5799942.0289993.4920044.0429993q.6230011.0289993.6949997.0289993c.1879959,0,.2320023-.086998.2320023-.3909988v-2.0419998l-.0149994-1.4480019v-2.5629997c-.8690033,1.8390007-1.7080002,3.0410004-2.8960037,4.156002-.534996.507-.9700012.8250008-1.1589966.8250008-.0430069,0-.0569992-.0139999-.0569992-.057003,0-.086998.0719986-.1889992.260994-.3769989,1.3320007-1.5359993,2.3889999-3.4469986,3.4020004-6.0960007h-1.447998c-.3909988,0-.723999.0139999-1.1579971.0580025-.102005.0139999-.2030029.0139999-.2460022.0139999q-.1159973,0-.2030029-.1739998c-.0439987-.1010017-.1009979-.2750015-.1009979-.3330002,0-.0440025.0139999-.0580025.0569992-.0580025.0299988,0,.086998,0,.1450043.0139999.4059982.0730019,1.0569992.1020012,1.8099976.1020012h1.5930023v-1.4770012c0-.6660004-.015007-.9849968-.0720062-1.4920006-.0149994-.1299973-.0289993-.2739983-.0289993-.3330002,0-.1299973.0439987-.1739998.1450043-.1739998.1009979,0,.1449966.0150032.3619995.0590019.7669983.1450005,1.0709991.2739983,1.0709991.4199982,0,.1300011-.1439972.2460022-.5650024.4480019v.9860001c0,.4920006,0,.9990005.0149994,1.5629997h.5790024Z"/>
          <path class="cls-3" d="M141.0336914,20.6908989c.2030029-.2460022.3040009-.3190002.4340057-.3190002.1309967,0,.7969971.507,1.1009979.8260002.0140076.0569992.029007.0859985.029007.1299973,0,.0860023-.072998.1599998-.2890015.2600021-.1309967.072998-.1890106.1019974-.2470093.1459999l-.0139923,1.4910011c0,5.197998.0139923,5.9369965.1009979,8.2829971.0139923.1150017.0139923.2460022.0139923.2890015,0,.4489975-.2599945.7249985-.7089996.7249985-.144989,0-.2459869-.0439987-.3329926-.1310005-.029007-.0429993-.0429993-.086998-.0579987-.1889992v-.0859985l-.0149994-.5800018h-8.0650024v.507c0,.3630028-.276001.6380005-.6369934.6380005-.3330078,0-.4350128-.1310005-.4350128-.5789986q0-.0289993.0149994-.9420013c.029007-2.8959999.0429993-4.1409988.0429993-6.2109985l.0150146-2.7670021c0-.6369972,0-.8250008-.0440063-1.2010002-.0140076-.1159973-.029007-.2179985-.029007-.2899971,0-.1160011.0440063-.1739998.1450043-.1739998.1300049,0,.4779968.1309967,1.0570068.3919983h7.746994l.0149994-.0299988.0429993-.0440025c.0149994-.0279999.0440063-.0569992.0440063-.0569992l.071991-.086998ZM141.047699,31.1458969c.0299988-.4489975.0299988-.7529984.0299988-1.6079979l-.0149994-7.0080032v-1.2159996h-8.0220032c-.0289917.0139999-.0439911.0279999-.0579987.0720024-.029007.6949997-.029007.8250008-.029007,3.5760002v.9129982l.0140076,2.4609985v2.0130005l.0149994.7970009h8.0650024ZM138.9046936,24.4988976c.072998-.1160011.1159973-.1730003.2470093-.3470001,0-.0149994.0289917-.0429993.0569916-.1020012.173996-.2749977.3190002-.4199982.4349976-.4199982.1300049,0,.3619995.1739998.8830109.6380005.1879883.1739998.2459869.2609978.2459869.3759995,0,.144001-.1149902.2459984-.3040009.2459984h-1.7949982c0,2.0849991.0140076,3.4179993.0429993,4.243v.2320023c0,.6509972-.5209961,1.0709991-1.4909973,1.1870003-.0289917.0149994-.0439911.0149994-.0869904.0149994-.1010132,0-.1740112-.0440025-.2750092-.1590004-.2610016-.3050003-.4499969-.4350014-1.0139923-.7099991-.3190002-.1300011-.4349976-.2170029-.4349976-.3040009,0-.0590019.0439911-.1020012.1159973-.1020012.0579987,0,.2319946.0149994.5500031.0429993.5939941.0740013,1.071991.1020012,1.3179932.1020012s.3049927-.086998.3049927-.4780006v-4.0690002h-2.2299957c-.3769989,0-.5220032,0-1.1299896.0440025l-.4200134.0149994c-.2169952,0-.2459869-.0149994-.3190002-.1739998-.071991-.1310005-.1149902-.2900009-.1149902-.3479996,0-.0150032,0-.0290031.0139923-.0440025.0140076-.0149994.029007-.0149994.0440063-.0149994l.2019958.0149994c.4929962.0870018,1.0429993.1160011,1.7669983.1160011h2.1869965v-.3899994c0-.5219994-.0289917-1.0429993-.0869904-1.5790024-.0149994-.1599998-.029007-.3479996-.029007-.4199982,0-.1590004.0429993-.2169991.1730042-.2169991.0870056,0,.1450043.0149994.3480072.0429993l.0869904.0149994c.7380066.1590004,1.0130005.2600021,1.0130005.4189987,0,.1020012-.1439972.2320023-.5209961.4640007v.2169991l-.0140076.2750015-.0149994.2900009v.8829994h.2460022ZM135.7046967,26.5548973c.4060059.3769989.6080017.7680016.6080017,1.1590004,0,.3190002-.1880035.5649986-.4629974.5649986-.1159973,0-.2320099-.0579987-.3330078-.1739998q-.1019897-.1019974-.6369934-1.2159996c-.3040009-.5209999-.4199982-.6949997-.5650024-.8689995-.1009979-.1310005-.1880035-.2610016-.1880035-.3190002,0-.0289993.029007-.0579987.0720062-.0579987.2610016,0,1.0429993.4780006,1.5059967.9119987"/>
          <path class="cls-3" d="M146.3742981,23.8760948c.4929962.3770027.7969971.7970009.7969971,1.1010017,0,.2750015-.1880035.4640007-.4489899.4640007-.1890106,0-.3620148-.1170006-.4780121-.3199997-.4489899-.7960014-.5359955-.9120026-.9989929-1.4470024-.173996-.1739998-.2460022-.2749977-.2460022-.3330002,0-.0439987.0429993-.072998.0870056-.072998.2599945,0,.8969879.3040009,1.2879944.6079979M147.5332947,27.2070961c-.4059906,1.0139999-.4629974,1.2449989-.4629974,1.7080002,0,.2330017,0,.2610016.1300049.6529999.1589966.5060005.2899933,1.3460007.2899933,1.8810005,0,.6090012-.2610016.9860001-.6669922.9860001-.1730042,0-.3040009-.1020012-.3760071-.2900009q-.0289917-.1159973-.0289917-.8260002c-.0149994-1.2299995-.2750092-2.2439995-.7820129-2.9969978-.072998-.1160011-.0869904-.1450005-.0869904-.1730003,0-.0300026.0139923-.0440025.0579987-.0440025.0289917,0,.1009979.0139999.1589966.0290031.1009979.0279999.1880035.0429993.2470093.0429993.2019958,0,.2599945-.0580025.5789948-.6090012.4779968-.8100014.897995-1.5779991,1.3320007-2.4319992.3179932-.6520004.4049988-.7960014.4779968-.7960014.0429993,0,.0720062.0429993.0720062.1300011,0,.1879997-.2460022.9269981-.7820129,2.3320007l-.1009979.2459984-.0579987.1590004ZM147.8952942,20.8350983c.5070038.3919983.8110046.8119965.8110046,1.1149979,0,.276001-.173996.4640007-.4349976.4640007-.1150055,0-.2460022-.0579987-.3619995-.1450005q-.0720062-.072998-.5209961-.8549995c-.1450043-.2459984-.4780121-.6660004-.6370087-.8400002-.1450043-.1590004-.2319946-.2890015-.2319946-.3460007,0-.0299988.0289917-.0439987.072998-.0439987.2310028,0,.8829956.3180008,1.3029938.651001M156.2212982,26.0050964c.1300049-.1879997.173996-.2459984.3040009-.4490013.2169952-.3190002.3190002-.4199982.4199982-.4199982.1159973,0,.1589966.0289993.4349976.2459984.6080017.507.723999.6230011.723999.7820015,0,.1450005-.1309967.2319984-.3190002.2319984h-4.4449921c.3470001.1879997.5059967.3040009.5059967.420002,0,.1300011-.2749939.2319984-.651001.2599983-1.0720062,1.9550018-1.6799927,2.9980011-2.1289978,3.5769997,2.5630035-.0569992,3.5619965-.0859985,4.8370056-.1730003-.2900085-.5369987-.5360107-.9119987-.9990082-1.5649986-.3329926-.4480019-.4199982-.6069984-.4199982-.7089996,0-.0439987.0429993-.0719986.1009979-.0719986.2750092,0,1.303009.8099976,1.9689941,1.5629997.5800018.6520004.9560089,1.3909988.9560089,1.8540001,0,.317997-.2319946.5789986-.5209961.5789986-.2030029,0-.4199982-.1590004-.5070038-.3759995-.1450043-.3479996-.2030029-.507-.3040009-.7249985l-.0440063-.1000023c-1.2599945.230999-2.7220001.3899994-6.3860016.6800003.0150146,0,0,.0289993-.0279999.0429993-.0149994.0149994-.0439911.0580025-.0869904.1300011-.102005.1310005-.2460022.2470016-.3330078.2470016-.173996,0-.6380005-.9410019-.6380005-1.3030014,0-.1300011.0440063-.1889992.1600037-.1889992.0579987,0,.1589966.0149994.2600098.0299988.2459869.0289993.318985.0419998.5509949.0419998.4049988.0299988.5059967.0299988.8679962.0299988.7389984-1.4769974,1.2310028-2.7080002,1.5789948-3.9829979q0-.0139999.0140076-.0279999v-.0289993l.0289917-.0870018.0150146-.0579987v-.0290031l.0139923-.0289993h-1.8390045c-.2319946,0-.723999.0289993-1.0279999.0580025l-.2749939.0149994c-.173996,0-.2030029-.0149994-.2750092-.1889992-.072998-.1300011-.1159973-.2600021-.1159973-.3330002,0-.0139999,0-.0290031.0149994-.0440025.0140076-.0139999.0279999-.0279999.0570068-.0279999.0289917,0,.0870056.0139999.1589966.0279999.5220032.0730019,1.173996.1020012,2.0570068.1020012h1.6069946l.0149994-1.1870003.0140076-1.5499992h-1.2590027c-.2470093,0-.7830048.0289993-1.029007.0579987l-.2749939.0149994c-.1300049,0-.1880035-.0289993-.2320099-.1159973-.0869904-.1300011-.1589966-.3330002-.1589966-.406002,0-.0429993.029007-.0569992.0720062-.0569992l.173996.0139999c.4920044.0719986,1.2019958.1010017,2.0559998.1010017h.6520081v-1.1580009c0-.5359993-.029007-1.0580025-.0870056-1.5930023-.0140076-.1450005-.029007-.3329964-.029007-.3919983,0-.1590004.0440063-.230999.1600037-.230999.0870056,0,.1589966.0149994.3330078.0439987.8829956.1739998,1.1439972.2740021,1.1439972.4339981,0,.1300011-.1600037.2600021-.5800018.4490013v1.9840012l.0149994.4630013h1.4049988c.0720062-.1010017.1300049-.2020035.1589966-.2460022l.1439972-.1889992c.2320099-.3610001.3050079-.4189987.4350128-.4189987.1299896,0,.3759918.1730003.8829956.6369972.0289917.0289993.0579987.0580025.0720062.0580025.1309967.1159973.1889954.2169991.1889954.317997,0,.1460037-.1300049.2320023-.3180084.2320023h-2.9689941v1.4329987l.0140076.5219994v.4920006l.0149994.2900009h2.6929932Z"/>
          <path class="cls-3" d="M165.0816956,20.2999954c0-.2459984.0579987-.3190002.2899933-.3190002.6950073,0,1.6500092.3769989,1.6500092.6520004,0,.1300011-.1730042.2459984-.5930023.3610001.1450043,1.3040009.4490051,2.6360016.897995,3.868,1.0570068,2.8670006,2.678009,4.9799995,4.9660034,6.4430008.102005.0579987.1450043.1310005.1450043.2029991,0,.086998-.1009979.1590004-.6080017.4349976-.1300049.0720024-.1450043.0860023-.2310028.144001-.1600037.0870018-.2319946.1150017-.3339996.1150017-.2460022,0-.7379913-.3610001-1.4039917-1.0130005-1.7810059-1.7809982-3.0559998-4.5900002-3.5050049-7.7330017-.1009979-.7529984-.1730042-1.5489998-.1730042-2.0849991v-.3180008l-.0149994.0150032c-.1450043,3.0839996-.4629974,4.5599976-1.3609924,6.3999977-.6660004,1.375-1.57901,2.5769997-2.6500092,3.4609985-.8540039.7090034-1.8099976,1.2160034-2.2879944,1.2160034-.0870056,0-.1450043-.0300026-.1450043-.0870018,0-.0719986.0579987-.1150017.2030029-.2019997.8399963-.4500008,2.0419922-1.637001,2.8820038-2.868,1.4189911-2.0709991,2.2879944-5.0830002,2.2879944-7.9500008q0-.2169991-.0149994-.5209999v-.2169991Z"/>
          <path class="cls-3" d="M103.0010986,57.2247963c.9990005-.0569992,1.1409988-.0849991,1.9970016-.257.5999985-.1130009.913002-.1709995,1.1989975-.1709995.9980011,0,2.3680038,1.0839996,2.3680038,1.8839989,0,.4560013-.2850037.6850014-.8280029.6850014q-.284996,0-2.1110001-.257c-1.427002-.2000008-3.2809982-.3150005-4.9369965-.3150005-3.9660034,0-9.1880035.3710003-10.8990021.743-.7140045.1700001-1.1419983.2280006-1.4560013.2280006-.7699966,0-1.2840042-.2849998-1.8259964-.9710007-.3710022-.4840012-.628006-1.0550003-.628006-1.3969994,0-.4290009.1430054-.6560001.3710022-.6560001.0859985,0,.1719971.0279999.3139954.1139984,1.0270081.5700016,2.5110016.7990017,4.965004.7990017.8270035,0,1.1409988,0,5.7929993-.257q1.9110031-.1140003,2.0540009-.5710011c.1709976-.598999.9700012-7.4190006.9700012-8.4460011,0-.4279976-.1709976-.6559982-.4560013-.6559982-.913002,0-4.2229996.6269989-6.163002,1.197998-.6569977.1710014-.9419937.2290001-1.1699982.2290001-.9420013,0-1.9980011-1.2839985-1.9980011-2.4259987,0-.3139992.0860062-.4850006.2570038-.4850006.1419983,0,.1999969.0279999.5139999.2000008.7129974.3990002,1.4830017.5419998,2.8239975.5419998,1.3700027,0,3.1959991-.2000008,4.9370041-.5419998.6559982-.1139984.7419968-.1430016,1.2269974-.4290009.3990021-.2269974.4280014-.257.6559982-.2849998.0569992-.0279999.1139984-.0279999.1429977-.0279999.3420029,0,.6840057.2000008,1.7120056.9990005,1.0270004.7700005,1.3689957,1.198,1.3689957,1.5690002,0,.257-.1419983.4559994-.5419998.8269997-.4280014.4279995-.5709991.6280003-.8269958,1.3409996-.4850006,1.3700008-1.6269989,5.7649994-1.6269989,6.335001,0,.3429985.1719971.5139999.4860001.5139999.0559998,0,.1699982,0,.284996-.0290012h.314003c.112999,0,.2279968,0,.3419952-.0289993h.3710022Z"/>
          <path class="cls-3" d="M127.3615036,55.883997c-.1139984.0860004-.1709976.2000008-.1709976.3430004,0,.1420002.0279999.1709995.1999969.4559994.8840027,1.2269993,1.2550049,2.026001,1.2550049,2.6820011,0,.8279991-.5709991,1.4559994-1.3690033,1.4559994-.4850006,0-.8560028-.2860012-1.112999-.9139996-.7420044-1.9400005-2.7970047-5.0220013-4.7369995-7.1040001-.114006-.1140003-.1710052-.2290001-.1710052-.3430004,0-.0570011.0569992-.1140003.1710052-.1140003.5999985,0,2.3399963,1.0839996,4.3939972,2.7390003.2290039.1709995.3430023.2290001.4280014.2290001.2859955,0,1.7409973-1.342001,3.3099976-3.0249996,1.7980042-1.9690018,2.7969971-3.4810009,2.7969971-4.2520008,0-.5419998-.3139954-.8269997-.9420013-.8269997-.598999,0-3.3389893.3999996-5.6779938.7989998-.5419998.1140003-.7420044.1429996-1.0839996.1989994-.1149979,0-.6569977.0860004-1.6549988.257-1.427002.2290001-2.5110016.4290009-3.5670013.6560001-.8560028.1720009-1.0270004.2010002-1.2839966.2010002-1.3700027,0-2.5400009-1.3990002-2.5400009-3.0249996,0-.3990021.1139984-.5999985.3419952-.5999985.1429977,0,.3430023.0859985.5139999.2289963,1.112999.8550034,1.5979996.9700012,4.4800034.9700012,2.625,0,5.4209976-.2290001,8.3030014-.6279984,1.5410004-.2280006,1.5979919-.257,2.4259949-.6850014.4850006-.2280006.598999-.2849998.798996-.2849998,1.0270081,0,3.8800049,2.882,3.8800049,3.9379997,0,.3990002-.2850037.6270008-1.1699982.9990005-1.1699982.4560013-1.5400085.6560001-2.5960083,1.5410004-.6279907.4839993-.7419891.5699997-2.1689911,1.6259995-1.227005.9130001-1.427002,1.0550003-1.6829987,1.2840004l-1.3700027,1.198Z"/>
          <path class="cls-3" d="M152.6074066,57.1394958c4.1369934,0,7.2180023-.3139992,8.8170013-.8279991.17099-.0559998.427002-.0849991.6559906-.0849991.7130127,0,1.3410034.2849998,2.1399994.9979992.5140076.4289989.7700043.8000011.7700043,1.085001,0,.4559975-.4559937.7709999-1.1409912.7709999-.2000122,0-.3420105-.0290012-.6850128-.0860023-1.5410004-.3139992-3.394989-.4279976-6.3909912-.4279976-4.480011,0-6.7350006.1709976-8.7610016.6559982-.7409973.1710014-1.1119995.2280006-1.397995.2280006-.5420074,0-.9410095-.2280006-1.4830017-.8269997-.5140076-.5709991-.7990112-1.198-.7990112-1.6259995,0-.3150005.1419983-.4860001.3990021-.4860001q.1430054,0,.6560059.2290001c.9420013.3709984,1.5699921.4839993,2.7400055.4839993.17099,0,.7979889,0,1.4259949-.0279999.1149902,0,.6000061,0,1.1419983-.0280018l1.9120026-.0289993ZM161.1954041,47.7804966c0,.4279995-.3419952.6560001-.9129944.6560001-.1139984,0-.1710052,0-.3140106-.0279999-.798996-.0580006-1.397995-.0860004-2.2249908-.0860004-2.2550049,0-5.6790009.257-6.9629974.5419998-.428009.0860004-.6560059.1140003-.8560028.1140003-1.0559998,0-2.0250092-1.0270004-2.0250092-2.1970005,0-.2569981.1130066-.3990002.3420105-.3990002.1419983,0,.2279968.0279999.6559906.2280006.628006.2849998,1.7689972.4279995,3.1959991.4279995,2.1110077,0,4.6230011-.3999996,5.7920074-.9130001.3430023-.1429977.5709991-.1989975.8849945-.1989975,1.0839996,0,2.4250031.9979973,2.4250031,1.8539982"/>
          <path class="cls-3" d="M176.7394867,51.489399c-.598999.1720009-.8559875.2290001-1.1119995.2290001-.4859924,0-.9420013-.257-1.2849884-.7130013-.3420105-.4569988-.7130127-1.3129997-.7130127-1.6559982,0-.1990013.0859985-.3129997.2570038-.3129997.1419983,0,.2570038.0279999.428009.1139984.6849976.3700008,1.5690002.5699997,2.3399963.5699997,1.1409912,0,8.1320038-.4569988,11.0709991-.7419987,1.7120056-.1420002,1.7980042-.1420002,2.6539917-.427.6270142-.2010002.9700012-.2859993,1.2840118-.2859993.9409943,0,2.3679962,1.2269993,2.3679962,2.0259991,0,.3140011-.2850037.5710011-.628006.5710011-.1429901,0-.4559937-.0580006-.8269958-.1430016-.7140045-.1999989-1.4839935-.2560005-2.8540039-.2560005-.5419922,0-.6559906,0-2.0540009.0279999-1.427002,0-1.5130005,0-1.5130005.1710014,0,.0569992.0579987.1709995.1430054.2849998.1430054.1720009.2279968.3430004.2279968.5139999,0,.1720009-.0569916.257-.17099.3710003-.2000122.1999989-.2570038.257-.3130035.3430004-.0859985.1419983-.1150055.2269993-.1719971.4269981,0,.0570011-.0850067.4560013-.1990051,1.170002-.4290009,2.2819977-1.9689941,4.9650002-3.9949951,6.9619999-1.6840057,1.6269989-3.9090118,2.9679985-4.9650116,2.9679985-.1999969,0-.3139954-.0859985-.3139954-.2290001,0-.0849991.1430054-.1989994.428009-.3409996,1.7119904-.8850002,4.1089935-3.4540005,5.2219849-5.5930004.9990082-1.8839989,1.6260071-4.3089981,1.6260071-6.2209988,0-.3710003-.2850037-.5990009-.8269958-.5990009-1.1130066,0-5.1360016.5130005-6.1070099.7700005M190.4644928,43.614399c-.0279999.4570007-.2850037.6279984-.9409943.6279984-.2570038,0-.3140106,0-.9710083-.1139984-.4559937-.0569992-.8269958-.0859985-1.3119965-.0859985-1.3130035,0-5.3639984.3709984-6.6490021.6279984-.7409973.1420021-.9409943.1710014-1.227005.1710014-.7979889,0-1.1409912-.257-1.5399933-1.1410027-.2859955-.5999985-.3999939-.8849983-.3999939-1.0849991,0-.1709976.0859985-.257.2569885-.257.1139984,0,.2000122.0289993.3710022.1140022.6849976.2859993,1.3119965.3999977,2.3970032.3999977,1.6260071,0,2.8820038-.0849991,4.5650024-.3419991q.1149902,0,.2279968-.0279999c1.0850067-.144001,1.7689972-.2859993,2.1690063-.4570007.3999939-.1430016.7139893-.2290001.9129944-.2290001.7420044,0,2.2259979,1.170002,2.1690063,1.7410011v.0289993l-.029007.0279999Z"/>
          <path class="cls-3" d="M211.5162048,44.9552956c-.1430054.257-.1710052.3139992-.1710052.4850006,0,.257.1990051.3999977.6560059.3999977.8269958,0,1.6829987-.2290001,4.4230042-1.197998.2569885-.0859985.5130005-.1430016.6839905-.1430016.4290009,0,1.0559998.4280014,2.0270081,1.3980026.3990021.3999977.6269989.7699986.6269989,1.0839996,0,.257-.0850067.3709984-.3990021.6279984-.5420074.4000015-.8560028.7420006-1.3130035,1.427-1.9400024,3.5950012-2.9960022,5.1359997-4.9079895,7.2749996-2.2250061,2.4550018-4.9080048,4.5950012-7.3610077,5.8780003-1.2850037.6570015-2.3970032,1.0570011-2.9960022,1.0570011-.1719971,0-.3139954-.0860004-.3139954-.1720009,0-.0569992.0279999-.1140003.0569916-.1709995,6.5340118-3.6800003,11.098999-8.9020004,13.6960144-15.6079998.0849915-.2280006.1139984-.3710003.1139984-.5699997,0-.3430023-.1710052-.5419998-.4850006-.5419998-.3420105,0-.9410095.1699982-2.2830048.7409992-.8560028.3430004-1.0550079.3999996-1.3410034.3999996-.2279968,0-.3990021-.0569992-.7420044-.2859993-.3419952-.257-.5130005-.3129997-.6839905-.3129997-.1999969,0-.3710022.0849991-.5140076.2279987-1.7689972,2.2259998-2.6539917,3.1670017-4.1660004,4.394001-1.197998.9699993-2.3109894,1.5979996-2.8249969,1.5979996-.1419983,0-.2279968-.0860004-.2279968-.1999989,0-.1430016.1419983-.3129997.4559937-.5419998,1.0850067-.8270016,3.6529999-3.967001,5.1650085-6.3350029,1.0839996-1.6839981,1.397995-2.3959999,1.397995-3.223999,0-.4279976-.0849915-.7420006-.3139954-1.0849991-.1710052-.1990013-.3139954-.4560013-.3139954-.5979996,0-.1430016.0859985-.2000008.2859955-.2000008.6269989,0,2.026001.5709991,2.79599,1.1409988.4000092.2849998.5710144.5139999.5710144.7709999s-.1430054.5130005-.5420074.8850021c-.4570007.4269981-.5709991.5699997-.970993,1.2539978l-.0850067.1430016Z"/>
          <path class="cls-3" d="M231.1699982,52.1174965c-2.6259918,2.368-5.0219879,4.052-5.8209991,4.052-.1139984,0-.1719971-.0290012-.1719971-.1429996,0-.0849991.1719971-.2849998.8280029-.8269997,1.0269928-.8570004,2.3110046-2.0550003,3.3099976-3.0820007q-.3999939.0279999-.6569977.0279999c-.427002.0289993-.7129974.0580006-.9129944.0580006h-.1420135q-.3429871,0-.5419922-.3710003c-.1150055-.2290001-.1999969-.4860001-.1999969-.6000004,0-.0279999,0-.0569992.0279999-.0849991.0289917-.0279999.0569916-.0279999.1149902-.0279999.0570068,0,.2280121,0,.4560089.0279999.9700012.1140003,1.427002.1429996,2.625.1709995,1.1699982-1.2560005,2.026001-2.2259998,2.8249969-3.2250004h-3.5670013c-.4279938,0-1.197998.0300007-2.0540009.1149998l-.6849976.0279999c-.3990021,0-.4559937-.0279999-.598999-.3139992-.1430054-.2280006-.2570038-.5979996-.2570038-.7119999,0-.0300007,0-.0580006.029007-.0860004.0279999-.0289993.0569916-.0289993.1139984-.0289993l.4279938.0289993c1.1690063.1420002,2.5680084.2280006,4.1940002.2280006h.4570007v-3.5960007h-.7129974c-.4290009,0-1.4839935.0579987-2.1410065.1150017l-.6849976.0279999c-.3419952,0-.3699951,0-.5699921-.3710022-.0859985-.1989975-.1999969-.5139999-.1999969-.6269989,0-.0859985.0289917-.1139984.17099-.1139984l.4570007.0279999c1.0270081.1139984,2.1399994.1709976,3.6809998.1989975v-2.3959999c0-.5419998,0-.6559982-.0859985-1.197998l-.0279999-.4000015c0-.2280006.0850067-.3429985.3139954-.3429985.256012,0,1.1410065.1719971,1.6260071.3149986.598999.1710014.8560028.3129997.8560028.5139999,0,.2270012-.2570038.4840012-1.0270081.8829994v2.625h.8269958c.9130096-1.3969994,1.056015-1.5400009,1.3130035-1.5400009.2570038,0,.5130005.1990013,1.7120056,1.3130035.598999-1.0559998,1.0839996-2.0270004,1.1410065-2.3120003.17099-.5420036.2849884-.6840019.5139923-.6840019.1139984,0,.2279968.0279999.4279938.1419983,1.1130066.4280014,2.2250061,1.170002,2.2250061,1.4840012,0,.2849998-.5130005.4850006-1.3410034.5419998-.1139984,0-.1429901,0-.2279968.0289993-.9989929,1.7680016-2.2259979,3.5950012-3.6239929,5.3360023h1.1989899q.0850067-.1140003.1419983-.2000008l.1430054-.2010002.1430054-.1700001c.0569916-.0860004.1139984-.1709995.1419983-.1999989l.3430023-.5130005c.1139984-.1430016.2849884-.257.4279938-.257.2850037,0,1.397995.9130001,1.7689972,1.427.1710052.2269993.2279968.3699989.2279968.5130005,0,.2279987-.1999969.3699989-.5419922.3699989h-4.6220093c-.8559875,1.0570011-1.9409943,2.2259998-2.996994,3.2530003h3.5390015l.1419983-.1709995.1999969-.1989994.2000122-.2280006c.2569885-.2849998.3989868-.3999996.5699921-.3999996.2859955,0,.8849945.4559994,1.6560059,1.2269993.1989899.2280006.2279968.257.3419952.3430004.1419983.1709995.1999969.2849998.1999969.427,0,.3139992-.1719971.4570007-.6849976.5139999-.4850006.0569992-.6569977.0859985-.8849945.1429996-.0570068,0-.0850067.0279999-1.0550079.684-.7709961.5139999-1.1419983.7420006-1.6269989,1.0279999h.0279999l.029007.0279999.0569916.0289993h.0570068q.0289917.0279999.0569916.0279999c.2570038.1150017.3430023.2000008.3430023.3140011,0,.1999989-.2290039.3990002-.9420013.828001v.9409981c.7420044-.1139984.9990082-.1709995,1.3980103-.2279987.17099-.0280018.7139893-.1140003,1.7119904-.3140011.9990082-.1709995,1.5130005-.2560005,1.5700073-.2560005.1139984,0,.2279968.085001.2279968.1710014,0,.3990002-1.2559967.8839989-4.9080048,1.882.029007,1.3129997.0570068,2.512001.0850067,2.9109993l.0289917.9700012c0,1.1419983-.9129944,1.9119987-2.4819946,2.1409988h-.2290039c-.1419983-.0579987-.2279968-.0860004-.3419952-.171999-.0279999-.0279999-.0850067-.1140003-.2279968-.2280006l-.2279968-.2560005c-.1430054-.1439991-.6850128-.5139999-1.1420135-.7709999-.598999-.3990002-.798996-.5429993-.798996-.7139988,0-.085001.0570068-.1140003.1430054-.1140003q.0279999,0,.9700012.0580006c1.2839966.1139984,1.6549988.1419983,1.9689941.1419983.3999939,0,.5420074-.1999989.5420074-.8279991v-2.7390003c-.9130096.2279987-1.6829987.3999996-3.5670013.8000011l-.5420074.112999c-.0849915.5139999-.3419952.9710007-.5419922.9710007-.2570038,0-.9700012-1.2280006-1.3980103-2.3969994.029007-.1720009.2280121-.2280006,1.1699982-.2860012,1.4260101-.1429996,2.6820068-.2849998,4.8500061-.5990009-.0279999-.8279991-.0559998-1.1699982-.1130066-1.7409992-.0289917-.2849998-.0579987-.5699997-.0579987-.7409992,0-.2849998.0860138-.4000015.3710022-.4000015.1430054,0,.2860107.0290012.4850006.085001.3430023.0860004.4290009.0860004.5709991.1149998.4570007-.598999.7140045-.9699993,1.4550018-1.9689999l.2570038-.3710003h-4.2510071ZM233.4810028,47.3524971c1.0550079-1.427002,1.7689972-2.4819984,2.4250031-3.5960007h-3.2810059v3.5960007h.8560028ZM250.4020081,63.6734962c-.1719971.1149998-.3720093.2000008-.5429993.2000008-.3710022,0-.3990021-.0290012-2.2539978-2.1119995-.7990112-.913002-1.855011-2.4239998-2.7110138-3.9370003-1.6259918,2.1689987-2.6539917,3.223999-4.2799988,4.3939991-1.4830017,1.0839996-3.3099976,1.9120007-4.1369934,1.9120007-.1999969,0-.3139954-.0570011-.3139954-.1429996,0-.1140003.2569885-.2849998.598999-.4840012,3.1669922-1.9979992,5.4499969-4.2810001,7.2480011-7.3049984-1.0850067-2.1690006-1.855011-4.4230003-2.1970062-6.3630009-.970993,1.9680004-1.6840057,3.052-2.0549927,3.052-.1140137,0-.1710052-.0849991-.1710052-.2280006,0-.0849991,0-.112999.0569916-.2280006,1.8840027-5.2509995,3.1670074-10.072998,3.5380096-13.4109993.0289917-.5419998.1149902-.6559982.4850006-.6559982,1.1129913,0,2.4830017.5139999,2.4830017.9129982,0,.1710014-.2000122.3419991-.6000061.5419998-.4839935.2280006-.5130005.257-.6269989.9700012-.2859955,1.3120003-.8560028,3.3099976-1.2839966,4.5369987h4.2799988l.0859985-.1139984q.0849915-.1430016.2279968-.3139992c.1430054-.2280006.1710052-.2570038.2850037-.4570007.3710022-.5990028.6279907-.8269997.8849945-.8269997.2279968,0,.7700043.3709984,1.6829987,1.197998.4000092.3710022.5420074.5709991.5420074.7989998,0,.2859993-.2570038.4570007-.6269989.4570007h-2.7680054c.7700043.2849998,1.4830017.7129993,1.4830017.8850002-.0279999.2849998-.1139984.3710003-.7980042.6269989-.1999969.0860004-.2289886.0860004-.2569885.1140003q-.029007,0-.0570068.0290012c-.3999939,3.1959991-1.3410034,6.0769997-2.7969971,8.6169987,1.4559937,2.2540016,3.3099976,4.3090019,5.6790009,6.2779999.1139984.1140003.17099.1710014.17099.2270012,0,.1149998-.1999969.2859993-.8279877.6000004l-.1140137.0579987-.3129883.1700001ZM243.3820038,46.0684967c-.3990021,1.0839996-.6849976,1.7980003-.9409943,2.3959999.0849915.257.1129913.3150005.2559967.8570004.5999908,2.1970005,1.1419983,3.5949993,2.1119995,5.3640003,1.197998-2.6529999,1.7689972-5.0220013,1.9400024-8.3040009v-.3129997h-3.3670044Z"/>
          <path class="cls-3" d="M267.0001831,43.1579971c-1.0839844,1.5400009-2.3389893,2.9669991-3.5089722,3.9949989,2.8249817-.0289993,5.5639954-.0849991,9.5299988-.257l.8279724-.0289993c-.5999756-.5699997-.9139709-.855999-1.769989-1.5410004-.8269958-.6839981-1.026001-.8549995-1.026001-1.0270004,0-.1139984.0849915-.1709976.1990051-.1709976.9129944,0,3.5379944,1.3129997,4.9649963,2.4539986,1.1409912.9420013,1.8829956,1.9689999,1.8829956,2.6819992,0,.5139999-.3989868.913002-.8559875.913002-.4850159,0-.7990112-.2280006-1.3980103-1.026001-.3989868-.5429993-.8559875-1.0849991-1.3699951-1.6269989-2.196991.4569988-7.5610046.9409981-15.4370117,1.3979988-.1989746.3710003-.6559753.7989998-.9129944.7989998-.2850037,0-.7129822-.7140007-1.2550049-2.1689987,0-.0570011,0-.085001-.0279846-.1140022-.0289917-.1139984-.0289917-.1709976-.0289917-.1999989,0-.1420002.0569763-.1999989.2859802-.1999989.0559998,0,.2279968,0,.3990173.0299988.6839905.0559998.7129822.0559998,2.2539978.0849991h2.8529968c1.0279846-1.769001,1.6269836-2.9389992,2.0830078-3.9949989h-5.1360168c-1.4840088,0-2.7389832.0569992-3.8799896.1429977-.1999969.0280037-.4000092.0280037-.5429993.0280037-.2570038,0-.5420074-.4850006-.5420074-.9990005,0-.0279999,0-.0559998.029007-.0850029.0279999-.0289993.0569916-.0569992.1139984-.0569992.0859985,0,.1999969.0279999.3139954.0569992,1.197998.1430016,2.2250061.2000008,4.052002.2000008h7.3609924v-2.0259972c0-.314003-.0279846-.5709991-.0849915-1.0559998l-.0289917-.5130005c0-.2860031.1429749-.401001.4570007-.401001.4559937,0,1.2269897.1719971,1.9679871.4290009.6279907.2279968.7709961.3419991.7709961.5419998,0,.2289963-.3139954.4850006-1.1130066.8269997v2.197998h7.3910217c.9129944-1.4839973,1.1409912-1.769001,1.3979797-1.769001.1990051,0,.7409973.3990021,1.7400208,1.2830048.0579834.0579987.1139832.1139984.1429749.1139984l.085022.0859985c.1719971.1430016.2859802.3710022.2859802.5419998,0,.257-.2569885.4570007-.6279907.4570007h-11.8420105ZM271.880188,50.8329964c.1140137-.1419983.1710205-.1709995.428009-.4279995l.0570068-.0559998.1430054-.1429996c.17099-.2280006.3710022-.3430004.5419922-.3430004.4559937,0,2.1679993,1.3990002,2.1679993,1.7980003,0,.1999989-.17099.3710003-.6839905.5990009-.1430054.0579987-.2000122.0859985-.3430176.171999,0,4.2509995,0,6.0489998.0570068,8.4449997v.6860008c0,.8829994-.1430054,1.3119993-.6560059,1.7679996-.4849854.4860001-1.2839966.7989998-2.196991.8850002q-.0289917.0279999-.0859985.0279999c-.2000122,0-.3710022-.085001-.5700073-.2849998-.4289856-.4850006-.8850098-.7990007-1.9119873-1.2560005-.6280212-.3129997-.8560181-.4559994-.8560181-.5979996,0-.0580006.0570068-.1149998.1710205-.2000008h.1139832c.2279968,0,.4850159.0290012,2.196991.1420002.428009.0289993.9700012.0580006,1.1990051.0580006.5700073,0,.684021-.2000008.684021-1.1990013v-2.1969986h-9.3590088l.0289917,1.7119999.0289917,2.1689997c.0280151,1.198-.3429871,1.7969999-1.1419983,1.7969999-.5419922,0-.8280029-.2849998-.8280029-.8559999v-.1420002l.0570068-5.165.0289917-3.4519997c.0290222-.9430008.0290222-1.5990009.0290222-2.1130009,0-.684-.0290222-1.0839996-.0859985-1.5690002-.0290222-.257-.0290222-.4559994-.0290222-.5699997,0-.257.0859985-.3709984.2290039-.3709984.2850037,0,1.1410217.3419991,1.7969971.6839981h8.7890015ZM263.5481873,51.6039963c-.2569885.1140003-.4279785.2280006-.4849854.3140011q-.0859985.1140003-.0859985,1.3689995v.9990005h9.302002v-2.6820011h-8.7310181ZM272.308197,57.9669971v-2.9379997h-9.3309937v2.9379997h9.3309937Z"/>
          <path class="cls-3" d="M296.9826965,43.6429977h7.3329773c.4570007-.598999.4850159-.6280022.8560181-1.1990013.2279968-.3129997.4279785-.4850006.6279907-.4850006.2279968,0,.9420166.5139999,1.7690125,1.2840004l.1139832.1150017.0859985.0569992c.1430054.1430016.257019.3419991.257019.4850006,0,.2849998-.2290039.4569969-.6000061.4569969h-10.4429932v4.9070015h4.0229797c.1719971-.1429996.2000122-.1709995.3710022-.3699989.1140137-.144001.1710205-.2000008.3430176-.3430004.1139832-.1140003.2279968-.1709995.3710022-.1709995.5130005,0,2.2539978,1.4829998,2.2539978,1.9109993,0,.257-.7140198.6280003-1.4550171.7140007-1.427002,2.4249992-3.1109924,4.5079994-5.1650085,6.3919983,2.9390259,2.0250015,6.3060303,3.5090008,10.2440186,4.507.3139954.0860023.3989868.1150017.3989868.2290001,0,.1710014-.34198.5420008-.9700012,1.0270014l-.2850037.2290001c-.0569763.0279999-.1149902.085-.1999817.1709995-.2860107.257-.4570007.342-.6570129.342-.5130005,0-3.2810059-1.1409998-5.0209961-2.0540009-1.7980042-.9709988-3.0820007-1.8549995-4.8509827-3.3109989-2.4830017,1.8840008-3.8520203,2.7110004-6.0780029,3.710001-2.1400146.9419985-4.4510193,1.5979986-5.7350159,1.5979986-.3710022,0-.5709839-.0570002-.5709839-.1709995,0-.1430006.1999817-.2290001.6560059-.3430004,4.1089783-1.427001,7.447998-3.2810011,10.5009766-5.9059992-2.3399963-2.2830009-4.2519836-5.1070004-5.0509949-7.4190006h-.3139954c-.7409973,0-1.4830017.0279999-2.1109924.0860004-.1710205.0279999-.3990173.0279999-.4850159.0279999-.2850037,0-.3429871-.0279999-.4570007-.3129997-.1139832-.2290001-.1999817-.5430012-.1999817-.6560001,0-.0300007,0-.0580006.0289917-.0860004.0289917-.0289993.0570068-.0289993.0859985-.0289993l.2279968.0289993c.9129944.1420002,1.9400024.1989994,3.7090149.1989994h4.5369873v-4.9070015h-6.7049866q-1.5980225,0-2.6820068.0850029l-.5419922.0289993c-.3140259,0-.3710022-.0289993-.5140076-.2859993-.1140137-.2000008-.2290039-.5130005-.2290039-.6570015,0-.0279999,0-.0559998.0289917-.0839996.0289917-.0579987.0570068-.0579987.1140137-.0579987s.1999817.0289993.3139954.0579987c1.1130066.1420021,2.6820068.1990013,4.6799927.1990013h5.5350037v-3.1110001c0-.5979996,0-.6840019-.0849915-1.3120003l-.0290222-.4280014c0-.2849998.0859985-.3989983.3140259-.3989983.3139954,0,1.3699951.1709976,1.8549805.3129997.7130127.2000008,1.0559998.428997,1.0559998.6559982,0,.2869987-.3429871.5430031-1.2559814.9710007v3.3100014ZM290.9336853,50.0059967c.1140137.1709995.1430054.2000008.3710022.5699997,1.5409851,2.4260006,2.9960022,4.0810013,5.0220032,5.7649994,1.9679871-1.9119987,3.5090027-3.9669991,4.7359924-6.3349991h-10.1289978Z"/>
          <path class="cls-3" d="M318.1481018,54.0016975c.1139832,0,.6560059-.1149998,1.6839905-.3150005.684021-.1140003.8269958-.1429996.9129944-.1429996.1140137,0,.2280273.0860004.2280273.1709995,0,.3710003-1.3410034.9710007-3.8520203,1.7420006-.0289917,2.1680012-.0579834,4.1660004-.0289917,4.8500004.0289917.7989998.0289917,1.5130005.0289917,1.684,0,.5699997-.17099.9989996-.5709839,1.3689995-.428009.3999996-1.2270203.7420006-1.6830139.7420006-.2569885,0-.3999939-.0570002-.598999-.257-.3999939-.427-.6570129-.6280003-1.427002-1.1120005-.6279907-.3709993-.8280029-.5710001-.8280029-.7139997,0-.0570011.0570068-.1420002.1430054-.1420002.17099,0,.3990173,0,.6560059.0279999.6279907.0289993,1.1990051.0569992,1.8829956.0569992.6570129,0,.7139893-.0849991.7139893-.9419994l-.0289917-.4279995v-4.6499996c-.769989.2269993-.9129944.257-1.5119934.3990002,0,0,0,.0289993-.0289917.0849991-.085022.3150005-.3710022.6569996-.5700073.6569996-.3430176,0-1.2839966-1.4839993-1.2839966-2.0259991,0-.2280006.1999817-.3140011.8840027-.3430004l.2850037-.0279999c.0289917,0,.1719971,0,.2859802-.0279999l.4559937-.0580006.428009-.0279999.428009-.0569992.3999939-.0570011.2279968-.0289993v-3.8810005l-.0279846-3.7660007h-.6280212c-.5419922,0-1.1130066.0290012-1.6259766.0860023-.2000122.0279999-.3710022.0279999-.5140076.0279999-.1140137,0-.1710205-.0279999-.2860107-.085001-.1419983-.2279987-.3129883-.6560001-.3129883-.8560009,0-.0859985.0279846-.1149979.1419983-.1149979.1139832,0,.3429871.0289993.5419922.0579987.7420044.0849991,1.7409973.1710014,2.1409912.1710014h.5420227l-.0290222-5.5930023c0-.3129997-.0289917-.5699997-.0859985-.9699974-.0279846-.2280006-.0559998-.4280014-.0559998-.5709991,0-.2570038.1130066-.3710022.3420105-.3710022.2279968,0,1.5119934.3139992,1.9970093.4570007.5419922.1989975.8849792.4280014.8849792.598999,0,.257-.3710022.5130005-1.2839966.8839989v5.5650024h1.1119995l.0859985-.1140022.1140137-.1709976.0859985-.1720009.1430054-.1990013c.0279846-.0289993.0849915-.1429977.1419983-.257.3999939-.6279984.598999-.8569984.8280029-.8569984.1999817,0,.3989868.1429977.9129944.5719986l.1419983.1419983.3139954.2570038.2569885.2289963c.1140137.0850029.2000122.170002.2000122.170002.3139954.257.428009.4280014.428009.6570015,0,.257-.257019.4559975-.6280212.4559975h-4.1369934v7.3900013l1.0270081-.1700001ZM333.9841003,51.9746971c.1149902-.1419983.17099-.2280006.2000122-.2849998l.3989868-.5999985c.3999939-.5980015.6570129-.8270016.8850098-.8270016.1999817,0,.9129944.5139999,1.7399902,1.2560005.3999939.342001.5140076.5139999.5140076.7409992,0,.257-.2279968.4000015-.6560059.4000015h-10.7860107c-.17099.855999-.3989868,1.6269989-.7420044,2.5109997h6.7630005c.0570068-.0290012.257019-.2560005.598999-.6560001.257019-.257.3710022-.3140011.5420227-.3140011.4849854,0,2.1119995,1.4260006,2.1119995,1.8540001,0,.2290001-.257019.401001-.9710083.6560001q-.1140137.0300007-.256012.0860004c-.7419739,1.0839996-1.6269836,2.0830002-2.7109985,3.1110001,1.5410156.9990005,3.5670166,1.9689999,5.5920105,2.7390003.2569885.0859995.3720093.1709995.3720093.2849998,0,.0579996-.0290222.1140003-.3999939.3710003l-.2000122.1429996-.256012.1999998c-.4859924.342-.7139893.4560003-.9989929.4560003-.17099,0-.4559937-.1140003-.8850098-.3710003-.2849731-.1709995-.34198-.1989994-1.1699829-.6280003-1.1119995-.5990009-2.196991-1.3409996-3.2529907-2.1959991-1.7970276,1.282999-2.7670288,1.8540001-4.3360291,2.4529991-1.1989746.4570007-2.4549866.7420006-3.1959839.7420006-.3710022,0-.5429993-.0570002-.5429993-.1420002,0-.1149998.1719971-.2000008.7420044-.3999996,2.4830017-.8850002,4.3370056-1.9689999,6.1640015-3.6520004-1.5410156-1.3990002-2.8250122-2.9400005-3.3670044-4.052h-.5710144c-1.427002,3.2810001-2.7109985,5.1070004-4.6799927,6.7910004-1.0839844.8850002-2.3110046,1.5689993-2.881012,1.5689993-.1429749,0-.2289734-.0279999-.2289734-.1139994,0-.0860004.1429749-.2280006.3429871-.342001,3.1669922-2.3109989,5.3919983-6.0209999,6.5339966-10.8999996l.0280151-.0279999v-.171999h-.9410095c-.5710144,0-1.5979919.0569992-1.8259888.0859985-.1150208.0279999-.257019.0279999-.3140259.0279999-.2569885,0-.6849976-.5419998-.6849976-.8849983,0-.0559998.0280151-.085001.0570068-.1420021.0570068-.0289993.0859985-.0289993.1140137-.0289993.0289917,0,.1139832,0,.1999817.0289993.9420166.1710014,1.8829956.2280006,3.5670166.2280006.17099-.9130001.34198-1.9399986.427002-3.0240002h-.9410095c-.7130127,0-1.7120056.0560017-1.9119873.1140003-.1140137.0279999-.2280273.0279999-.2850037.0279999-.2000122,0-.6570129-.6279984-.6570129-.9130001,0-.0279999.0289917-.0559998.0580139-.1140003.0569763-.0279999.0849915-.0279999.1139832-.0279999l.2850037.0279999c.9420166.1430016,2.026001.2000008,3.5670166.2000008h5.2219849l.0849915-.1420002c1.1130066-2.1690006,1.3130188-2.6550007,2.28302-5.1369991q.0859985-.1990013.1429749-.3709984c.085022-.2570038.1420288-.314003.256012-.314003q.1140137,0,.9129944.3430023c.8569946.3139992,1.3990173.6849976,1.3990173.9699974,0,.2280006-.5140076.4570007-1.2839966.5700035-1.1419983,1.8839989-2.2260132,3.3389969-3.0540161,4.0809975h1.9120178c.17099-.2280006.2859802-.4290009.3429871-.4850006l.2569885-.3709984.2279968-.342001c.2280273-.3430004.428009-.5139999.6270142-.5139999.2000122,0,.4570007.1429996.8280029.4849987.0859985.0570011.1999817.1420021.3139954.2560005.256012.2010002.2850037.2290001.598999.5139999l.1430054.1140003c.2569885.2290001.3710022.3999996.3710022.6000004,0,.257-.2290039.4279995-.6279907.4279995h-9.3310242c-.0569763.9990005-.1419983,1.5970001-.4279785,3.0240002h7.5329895ZM334.8691101,41.0176964q-.0570068,0-2.0830078.3430023c-2.4259949.4279976-7.618988.9129982-9.730011.9129982-.9989929,0-1.4839783-.0579987-1.4839783-.1999969,0-.1990013.5419922-.3420029,1.4839783-.4280014,4.1369934-.656002,7.6750183-1.4830017,9.730011-2.3110008q.598999-.257.7129822-.257c.2860107,0,1.6550293.6279984,2.2540283,1.0270004.3719788.257.5419922.4570007.5419922.6279984,0,.1990013-.1990051.3129997-.598999.3129997l-.8269958-.0279999ZM325.3960876,45.3546982c.4560242.6279984.7700195,1.3699989.7700195,1.8839989,0,.5130005-.3420105.8850002-.7990112.8850002-.1999817,0-.428009-.1149998-.598999-.3150005q-.17099-.1709995-1.2839966-2.6529999c-.2569885-.4860001-.6849976-1.1699982-.7990112-1.2840004-.1429749-.1709976-.1999817-.257-.1999817-.3429985,0-.0849991.0570068-.112999.1430054-.112999.5699768-.0300026,2.0829773,1.0259972,2.7679749,1.9389992M328.6770935,44.0716972c.7130127.769001,1.1130066,1.5970001,1.1130066,2.3100014,0,.5999985-.3139954.9989986-.7990112.9989986-.4279785,0-.7139893-.3129997-.9129944-1.0269985-.5419922-1.7400017-.8559875-2.5110016-1.2559814-3.2530022-.1140137-.1419983-.1420288-.1990013-.1420288-.257,0-.0859985.0570068-.1419983.1420288-.1419983.2849731,0,1.2269897.6839981,1.8549805,1.3699989M326.7080994,55.8556976l.3989868.3710003c1.1700134,1.1700001,1.9410095,1.8260002,3.1110229,2.7110004.9129944-.9710007,1.6549988-1.9400005,2.3110046-3.0820007h-5.8210144Z"/>
          <path class="cls-3" d="M359.1724854,53.4874973c-1.6830139,1.1420002-2.1400146,1.3969994-2.4819946,1.3969994-.1140137,0-.1710205-.0559998-.1710205-.1700001,0-.1429996.3130188-.5419998.9410095-1.1989994,1.4840088-1.5690002,2.4250183-2.9389992,2.4250183-3.4810009,0-.3139992-.256012-.5139999-.684021-.5139999-.5429993,0-3.3670044.6860008-5.3079834,1.3130016-1.4830017.4569988-1.5119934.4849987-1.5690002,1.4259987-.0570068.8570004-.1140137,2.0830002-.1140137,2.7970009,0,2.0259991.0859985,2.5679989.5419922,3.1110001.7990112,1.0259991,2.1110229,1.3969994,4.7369995,1.3969994,1.1980286,0,1.2840271,0,3.3670044-.257.085022-.0279999.1990051-.0279999.2850037-.0279999.6849976,0,1.197998.4279995,1.197998.9990005,0,.5699997-.4279785.9699993-1.1690063,1.0839996-.9419861.1429996-1.9689941.2290001-3.1109924.2290001-3.1959839,0-5.5929871-.743-6.677002-2.0550003-.7420044-.9130001-.940979-1.7399998-.940979-3.737999,0-1.2270012,0-1.4260006.0279846-2.5960007v-.8000011c0-.4839993-.1139832-.6559982-.4559937-.6559982-.3139954,0-1.2269897.257-3.4240112.9419994l-.2859802.0849991c-.7130127.2290001-.9130249.2849998-1.3120117.2849998-.6849976,0-1.1130066-.2559986-1.4840088-.9130001-.2850037-.4839993-.4279785-.9979992-.4279785-1.539999,0-.2859993.0859985-.3990002.2849731-.3990002.0860291,0,.1430054.0279999.2860107.1130009.5700073.3429985,1.2839966.5139999,2.2820129.5139999,1.1699829,0,2.8819885-.2280006,3.9949951-.5139999q.0859985-.0280018.1430054-.0280018c.5419922-.1149998.598999-.2849998.598999-2.1679993,0-1.1420002-.085022-2.4539986-.2279968-3.2819977-.1430054-.8560028-.428009-1.3130035-1.1130066-1.6830025-.257019-.1139984-.3430176-.2000008-.3430176-.3429985,0-.3129997.5140076-.5699997,1.2280273-.5699997,1.6539917,0,2.96698.7409973,2.96698,1.6819992q0,.1720009-.1999817,1.1139984l-.1140137.4850006c-.0570068.3419991-.0570068.4280014-.0859985.5419998v.1710014l-.0570068.4849987c-.0559998.6280003-.1130066,1.1700001-.17099,1.769001-.0570068.3999996-.0570068.5139999-.0570068.6569996,0,.3990002.0859985.5419998.3139954.5419998.1430054,0,1.2839966-.2859993,2.6539917-.6560001.7990112-.2290001.8270264-.2290001,2.4250183-.7709999.598999-.2279987.8850098-.3139992,1.3410034-.5419998.2290039-.1429996.4849854-.2000008.6560059-.2000008.4859924,0,1.4559937.6280003,2.8539734,1.8830013.6560059.5429993.8850098.9130001.8850098,1.3129997s-.2860107.6569996-.9419861.9139996c-1.0280151.3409996-1.855011.7689991-3.2810059,1.7399998l-.2290039.1140003Z"/>
          <path class="cls-3" d="M374.8883057,58.6510983c.4839783.171999.8549805.257,1.1409912.257,1.6549988,0,5.2220154-1.8260002,8.303009-4.2790012,3.2819824-2.5679989,6.6199951-5.9919987,8.9029846-9.1030006.1990051-.3139992.3420105-.3989983.4559937-.3989983.1140137,0,.2000122.1430016.2000122.3419991,0,.3430023-.5419922,1.4840012-1.1130066,2.3970013-3.2529907,4.993-8.4169922,9.8719997-13.0969849,12.3549995-.5419922.2860012-.9410095.4850006-1.0270081.5430012-.2000122.112999-.4559937.2849998-.7420044.4839993-.428009.3150005-.6279907.3710003-.8840027.3710003-.4289856-.0279999-1.0279846-.3129997-1.5409851-.7989998-.6849976-.5990009-1.427002-1.6270008-1.427002-1.9680004,0-.1709995.1430054-.3150005.3710022-.3150005.0849915,0,.1430054,0,.3139954.0580006.0279846.0279999.0570068.0279999.1430054.0559998M378.0552979,45.1270981c2.1400146.9410019,3.4530029,2.2819996,3.4530029,3.566,0,.6849995-.6279907,1.3409996-1.2850037,1.3409996-.4849854,0-.8559875-.257-1.2550049-.8840008-1.0559998-1.6829987-2.1399841-2.8250008-3.9379883-4.0519981-.5419922-.3699989-.7990112-.598999-.7990112-.7130013,0-.1139984.1149902-.1709976.257019-.1709976.7989807,0,2.3969727.4279976,3.5669861.9129982"/>
          <path class="cls-3" d="M401.3605042,62.7608976c3.6239929-1.7699995,6.5629883-4.1090002,8.7890015-6.9910002.8269958-1.0559998,1.0270081-1.3409996,1.0270081-1.5410004,0-.1139984-.0290222-.1989994-.1140137-.2849998-.4859924-.5139999-1.9979858-1.5699997-3.3099976-2.3110008-.8850098-.5139999-1.256012-.7999992-1.256012-.9709988,0-.0559998.0860291-.1420002.2000122-.1420002.7420044,0,4.052002,1.2560005,5.25,1.9969997.1430054.0860004.2000122.1140003.2569885.1140003.1710205,0,.9420166-1.1119995,1.6830139-2.5109997.8559875-1.5410004,1.3420105-2.8249989,1.3420105-3.5380001,0-.427002-.2000122-.6559982-.5710144-.6559982-.2850037,0-.7709961.1429977-1.855011.5419998-1.197998.4279976-1.5690002.513998-2.2259827.513998-.256012,0-.4850159-.1149998-.769989-.3710003-.1990051-.1709976-.257019-.2010002-.3990173-.2010002q-.2290039,0-1.4559937,1.6840019c-1.368988,1.8549995-4.8500061,4.5649986-5.8779907,4.5649986-.085022,0-.1419983-.0559998-.1419983-.1420002,0-.085001.0849915-.1989994.3139954-.3710003.5419922-.4279995,2.625-2.7099991,3.4239807-3.7659988,1.8260193-2.3969994,3.1670227-5.0219994,3.1670227-6.1640015,0-.3419991-.0859985-.5139999-.3420105-.7700005-.2290039-.2279968-.3139954-.3999977-.3139954-.5419998,0-.1999969.1999817-.2859993.5130005-.2859993.4849854,0,1.5409851.3430023,2.0549927.6850014.5700073.3709984.9129944.855999.9129944,1.2840004,0,.257-.0570068.3429985-.4570007.7709999-.5709839.5699997-1.197998,1.5690002-1.197998,1.8829994,0,.2280006.2279968.3419991.598999.3419991,1.0270081,0,2.5400085-.3419991,3.8800049-.8549995.5710144-.2290001.7709961-.2859993,1.1130066-.2859993.5709839,0,1.0849915.2859993,1.8840027,1.0559998.8559875.7989998,1.1699829,1.1990013,1.1699829,1.5400009,0,.3149986-.17099.5419998-.6000061.7989998-.5419922.3429985-.6279907.4569988-1.197998,1.5129986-.7129822,1.2259998-1.1989746,1.9969997-2.5390015,3.9950008-.1149902.1429996-.1429749.257-.1429749.3419991,0,.2000008.0569763.257.7419739.8279991,1.8540039,1.5400009,2.6540222,2.4820023,2.6540222,3.1390018,0,.6560001-.5429993,1.2259998-1.1419983,1.2259998-.5140076,0-.6849976-.1420002-1.6549988-1.3409996-.9700012-1.2560005-1.6830139-1.9980011-1.8830261-1.9980011-.0859985,0-.1429749.0580006-.2289734.144001-1.4550171,2.1110001-4.3940125,4.5649986-7.2470093,6.0769997-1.6270142.8849993-3.2810059,1.4839993-4.052002,1.4839993-.2279968,0-.3420105-.0569992-.3420105-.1719999,0-.0839996.0280151-.1419992.0570068-.1700001.0570068-.0289993.1419983-.0859995.2850037-.1429996"/>
          <path class="cls-3" d="M445.9240112,50.5763969c.3710022.4290009.6560059.9419994.6560059,1.2560005,0,.3129997-.3420105.6280003-.7130127.6280003-.17099,0-.4559937-.0290012-.8840027-.0860004-1.4549866-.2290001-2.4259949-.2849998-4.1949768-.2849998-4.1090088,0-8.4460144.257-10.9000244.6280003-.2279968.0559998-.34198.0559998-.5130005.0559998-.5139771,0-.8559875-.1709995-1.2269897-.5699997-.4859924-.6000004-.8280029-1.427-.8280029-2.1410007,0-.3700008.1140137-.5699997.3420105-.5699997.1719971,0,.2859802.0579987.5429993.2290001.8269958.5699997,1.9109802.8839989,3.1669922.8839989.6560059,0,4.1950073-.1420002,6.7340088-.257,3.0820007-.1420002,3.9660034-.1999989,5.5069885-.4569988.3990173-.0559998.5140076-.085001.6849976-.085001.6270142,0,1.1690063.2560005,1.6260071.7700005"/>
        </g>
      </g>
    </g>
  </g>
</svg>