<?xml version="1.0" encoding="UTF-8"?>
<svg id="_レイヤー_2" data-name="レイヤー 2" xmlns="http://www.w3.org/2000/svg" width="928" height="95.6826019" xmlns:xlink="http://www.w3.org/1999/xlink" viewBox="0 0 928 95.6826019">
  <defs>
    <style>
      .cls-1 {
        fill: none;
      }

      .cls-2 {
        clip-path: url(#clippath-1);
      }

      .cls-3 {
        clip-path: url(#clippath-3);
      }

      .cls-4 {
        clip-path: url(#clippath-4);
      }

      .cls-5 {
        clip-path: url(#clippath-2);
      }

      .cls-6 {
        fill: #fff;
      }

      .cls-7 {
        opacity: .899994;
      }

      .cls-8 {
        fill: url(#_名称未設定グラデーション);
      }

      .cls-9 {
        clip-path: url(#clippath);
      }
    </style>
    <clipPath id="clippath">
      <rect class="cls-1" width="928" height="95.6826019"/>
    </clipPath>
    <clipPath id="clippath-1">
      <rect class="cls-1" width="928" height="95.6826019"/>
    </clipPath>
    <clipPath id="clippath-2">
      <rect class="cls-1" y="-.0003967" width="928" height="95.6829987"/>
    </clipPath>
    <clipPath id="clippath-3">
      <rect class="cls-1" width="928" height="95.6826019"/>
    </clipPath>
    <clipPath id="clippath-4">
      <polygon class="cls-1" points="898.4860229 95.6826019 0 95.6826019 29.5139999 -.0003967 928 -.0003967 898.4860229 95.6826019"/>
    </clipPath>
    <linearGradient id="_名称未設定グラデーション" data-name="名称未設定グラデーション" x1="5435.1368534" y1="2946.0682302" x2="5436.1368534" y2="2946.0682302" gradientTransform="translate(-5043807 2733999.1586838) scale(928 -928)" gradientUnits="userSpaceOnUse">
      <stop offset="0" stop-color="#a1d280"/>
      <stop offset="1" stop-color="#2095a2"/>
    </linearGradient>
  </defs>
  <g id="_コンテンツ" data-name="コンテンツ">
    <g id="_アートワーク_2" data-name="アートワーク 2">
      <g class="cls-9">
        <g class="cls-2">
          <g class="cls-5">
            <g class="cls-7">
              <g class="cls-3">
                <g class="cls-4">
                  <rect class="cls-8" y="-.0003967" width="928" height="95.6830025"/>
                </g>
              </g>
            </g>
            <path class="cls-6" d="M102.1657104,40.3222046c-2.3200073-1.4750023-5.1929932-2.2120056-8.6170044-2.2120056-3.0790405,0-6.2800293.5660019-9.6040039,1.696003.59198-1.5730019,1.5089722-3.882,2.7529907-6.9299965,4.1190186-1.1800003,7.1759644-2.2860031,9.1710205-3.3180008,1.7909546-.9329987,3.0999756-1.6949997,3.9229736-2.2850037.8239746-.5899963,1.3079834-1.1299973,1.4530029-1.6220016.2459717-.8349991-.2390137-1.3269958-1.4530029-1.473999-1.5170288-.147995-3.0960083-.4169998-4.7369995-.810997-1.6400146-.3929977-2.8499756-.8110046-3.6309814-1.2529984.1300049-.2950058.2749634-.7120056.43396-1.2540054.3320312-1.1299973.4550171-1.9169998.368042-2.3589935-.0859985-.590004-.5790405-1.0930023-1.473999-1.5110016-.8970337-.4169998-1.7130127-.6269989-2.4500122-.6269989-.6069946,0-1.3150024.1969986-2.125.5899963-.809021.3939972-1.2860107.8359985-1.4299927,1.3270035-.0289917.098999.0719604.159996.3029785.1839981.2310181.026001.447998.0629959.651001.1110001.447998.098999.8740234.3440018,1.2789917.7369995.4039917.3939972.6569824.9339981.7590332,1.6220016.0570068.3939972-.1090088,1.2529984-.4990234,2.5799942-.5059814,1.7210007-1.2360229,3.7600021-2.1900024,6.1190033-1.6760254.3939972-3.2529907.701004-4.7260132.9219971-1.473999.2210007-2.4279785.3310013-2.8609619.3310013-1.5620117,0-3.1220093-.6629944-4.6830444-1.9899979-.1739502-.1470032-.3689575-.2210007-.5859985-.2210007-.3469849,0-.5780029.1969986-.6929932.5889969-.0579834.1970062-.0159912.5660019.1300049,1.1060028.2739868.9840012,1.0440063,1.9420013,2.309021,2.8759995,1.2630005.9329987,2.5249634,1.4000015,3.78302,1.4000015.9529419,0,2.8179932-.2949982,5.5929565-.8840027-.7669678,1.8680038-1.7639771,4.3740005-2.9920044,7.5190048-3.4679565,1.6219978-6.8869629,3.8099976-10.2539673,6.560997-3.3690186,2.7529984-6.2770386,5.7140007-8.7260132,8.8840027-2.4509888,3.1699982-4.0859985,6.1549988-4.9110107,8.9569969-.6499634,2.2110004-.7160034,4.0170002-.1950073,5.4180012.5200195,1.4009991,1.7560425,2.1009998,3.7080078,2.1009998,1.5170288,0,3.4429932-.6509991,5.7770386-1.9529991,2.3339844-1.302,5.0969849-3.4770012,8.2929688-6.5250015-.0440063,1.0320015.0209961,2.0640011.1950073,3.0970001.0859985.4420013.2630005.7989998.5310059,1.0690002.2669678.2700005.5960083.4050007.9859619.4050007.4330444,0,.8740234-.1720009,1.3220215-.5160007.447998-.3430004.7739868-.8589993.9760132-1.5480003.2310181-.7859993.2819824-1.9169998.1519775-3.3909988-.0719604-.7859993-.0440063-1.9169998.0870361-3.3909988,6.0409546-6.3889999,9.7559814-11.9430008,11.1430054-16.6620026.3029785-1.0319977.5130005-2.1119995.6279907-3.2429962.3609619-.0490036.8250122-.0740051,1.3889771-.0740051,2.7310181,0,5.0499878.6270027,6.9580078,1.8800049,1.90802,1.2529984,3.197998,3.0599976,3.8699951,5.4189987s.5310059,5.159996-.4219971,8.4039993c-1.9810181,6.7340012-5.6740112,11.9549999-11.0789795,15.6660004-5.4060059,3.7109985-11.9089966,6.105999-19.5110474,7.1870003-.6369629.0979996-1.0119629.343998-1.1279907.7369986-.1010132.3439999.151001.5170002.7590332.5170002,1.6759644-.099,3.0570068-.2220001,4.1409912-.3690004,5.7230225-.7369995,10.7279663-2.1999989,15.0130005-4.3869991,4.2860107-2.1860008,7.7719727-4.8649998,10.460022-8.0349998,2.6889648-3.1700001,4.5739746-6.5980015,5.6589966-10.2840023,1.1849976-4.0289993,1.3969727-7.4829979.6389771-10.3579979-.7590332-2.875-2.2979736-5.0499992-4.617981-6.5239983M89.8197021,26.0202026l.7369995-1.6220016c.7509766.5410004,1.4160156.9339981,1.9949951,1.1790009.7359619.2949982,1.0540161.6159973.9530029.9589996-.0430298.1470032-.1619873.2949982-.3569946.4420013-.1960449.1480026-.3660278.2460022-.5100098.2949982-.9979858.4420013-2.3779907.9339981-4.1409912,1.4749985l1.322998-2.7279968ZM76.0307007,53.8862c-.6929932,2.3590012-1.1920166,4.3500023-1.4949951,5.9720039-2.7460327,2.5559998-5.3770142,4.6439991-7.8920288,6.2659988s-4.3800049,2.4330006-5.5930176,2.4330006c-.6939697,0-1.1089478-.3190002-1.2459717-.9590015-.1380005-.6369991-.0469971-1.4979992.2709961-2.5799999.7650146-2.6039982,2.4530029-5.5030003,5.0620117-8.6989994,2.6069946-3.1940002,5.625-6.1189995,9.0509644-8.7729988,1.3440552-1.0320015,3.0490112-2.1860008,5.1160278-3.465004-1.1849976,3.1460037-2.276001,6.4140015-3.2739868,9.8050003M88.1286621,41.943203c-.9969482,3.3920021-3.5849609,7.3979988-7.7609863,12.0170021l-1.1489868,1.2529984c.3900146-1.769001.8740234-3.6360016,1.4520264-5.6030006.7949829-2.7019997,1.6039429-5.1599998,2.4279785-7.3719978,1.7780151-.7370033,3.5559692-1.2530022,5.3330078-1.5480042-.0300293.2470016-.1300049.6640015-.3030396,1.2530022M124.9636841,47.7312012c-3.6289673,5.7750015-6.5559692,10.3830032-8.7810059,13.8220024-.3909912.5900002-.8930054,1.0819969-1.5059814,1.4749985-.6149902.394001-1.1610107.5900002-1.6380005.5900002-.5629883,0-.8740234-.3440018-.9310303-1.0330009-.0579834-.6870003.0640259-1.5480003.368042-2.579998.1589966-.5400009.2999878-.9090004.4229736-1.1049995.1220093-.196003.348999-.4910011.6829834-.8850021.7650146-.9829979,1.4370117-1.8670006,2.0160522-2.6539993,1.3439941-1.9169998,2.9189453-4.0300026,4.7259521-6.3400002,2.5-3.3419991,4.6240234-6.2539978,6.3740234-8.7360001,1.7479858-2.4810028,3.3670044-5.0009995,4.8569946-7.5569992-1.0709839.2470016-1.9310303.3690033-2.5800171.3690033-1.8219604,0-3.1589966-.4660034-4.0109863-1.401001-.8540039-.9330063-1.3880005-1.9900055-1.6049805-3.1700058-.1450195-.5399933-.1520386-1.0319977-.0220337-1.473999.0870361-.2949982.2390137-.4420013.4559937-.4420013.1719971,0,.4040527.2460022.6930542.7370071.6499634,1.0319977,2.05896,1.5479965,4.2279663,1.5479965,1.2999878,0,3.0999756-.3690033,5.3989868-1.1060028.4180298-.8349991.7869873-1.7929993,1.1050415-2.875.4619751-1.572998.5479736-2.8259964.2599487-3.7599945-.1739502-.590004-.5209961-1.0690002-1.039978-1.4370041-.5209961-.3689957-.7589722-.6269989-.7160034-.7750015.0570068-.1949997.2490234-.3679962.5750122-.5149994.3250122-.147995.6820068-.2220001,1.072998-.2220001.6060181,0,1.177002.1240005,1.7119751.3690033,1.1570435.4919968,1.90802,1.1059952,2.2550049,1.8430023.3460083.7369995.3540039,1.6709976.0220337,2.8019943-.2900391.9830017-.7449951,2.0149994-1.3660278,3.0960007l1.3660278-.6640015c.4190063-.2449951.7909546-.4789963,1.1159668-.6999969s.5170288-.4300003.5750122-.6269989c.0570068-.1959991-.0579834-.4660034-.3469849-.8110046-.1309814-.1469955-.3290405-.3189926-.5960083-.5159988-.2680054-.1959991-.3800049-.3679962-.3359985-.5159988.0570068-.1959991.2810059-.2949982.6719971-.2949982l2.3189697.0739975c.3030396,0,.7050171-.0739975,1.2040405-.2210007.4989624-.147995.9429932-.2210007,1.3330078-.2210007.6069946,0,1.032959.2089996,1.2789917.6260071.2449951.4189987.2739868.9469986.0869751,1.5849991-.1449585.4919968-.3980103.9839935-.7589722,1.4749985-.3619995.4919968-.7800293.8839951-1.257019,1.1790009-3.2529907,2.0649948-6.4689941,3.711998-9.6480103,4.9389954-3.0639648,4.965004-6.4110107,10.3339996-10.0369873,16.1090012M163.0006714,32.8392029c-.947998-1.4990005-2.0499878-2.6169968-3.3059692-3.3540039-.4060059-.2459946-.90802-.4539948-1.5079956-.6269989-.598999-.1719971-1.072998-.2579956-1.4200439-.2579956-.3029785,0-.4689941.048996-.4979858.147995-.0289917.0979996.0499878.2700043.2380371.5149994.4919434.5419998.9289551,1.2300034,1.3119507,2.0650024.382019.8359985.4880371,1.5480042.3150024,2.1380005-.2039795.6880035-.7529907,1.1549988-1.6489868,1.4000015-3.2520142,1.0319977-5.7979736,2.2490005-7.6419678,3.6500015-1.842041,1.3999977-3.2800293,3.0839996-4.3140259,5.048996-1.03302,1.9670029-2.0490112,4.6450043-3.0460205,8.0360031-.5349731,1.8190002-1.4450073,5.4309998-2.7319946,10.836998-.9829712-.1959991-1.9939575-.2949982-3.0339966-.2949982-3.2099609,0-6.125.7010002-8.7479858,2.1009979-2.6229858,1.401001-4.3029785,3.3540001-5.0410156,5.8610001-.4909668,1.6710014-.4519653,3.1220016.1190186,4.3500004.5709839,1.2290001,1.4849854,2.1739998,2.742981,2.8379993,1.257019.663002,2.6229858.9950008,4.0969849.9950008,2.4280396,0,4.7620239-.75,7.0030518-2.2489986,2.2389526-1.4980011,3.742981-3.5490017,4.5099487-6.1550007.2450562-.835001.4030151-1.4490013.4760132-1.8430004,1.8500366.7870007,3.5549927,1.9169998,5.1170044,3.3910007.6780396.6389999,1.2250366,1.105999,1.6359863,1.4009991.4120483.2940006.8140259.4419994,1.2040405.4419994.4760132,0,.9359741-.1959991,1.3759766-.5900002.440979-.3929996.7410278-.8589993.9000244-1.3999996.2600098-.8850002.0709839-1.868-.5629883-2.9489994-.5940552-.9330006-1.6780396-1.8549995-3.2530518-2.7650013-1.5759888-.9089985-3.3319702-1.6829987-5.2680054-2.3219986.2160034-1.0320015.4990234-2.579998.8460083-4.6450005.9240112-5.2080002,1.7990112-9.2150002,2.6230469-12.0159988.8959961-3.0470009,2.1859741-5.3320007,3.8699951-6.8560028,1.68396-1.522995,3.5009766-2.2859955,5.4519653-2.2859955.6069946,0,1.1030273.1240005,1.4849854.3689957.3830566.2470016.8050537.6149979,1.269043,1.1060028.4179688.4919968.7910156.8479996,1.1159668,1.0690002.3250122.2210007.7260132.3320007,1.2030029.3320007.7810059,0,1.5670166-.3190002,2.3640137-.9589996.7940063-.6380005,1.3220215-1.4000015,1.5820312-2.2850037.3899536-1.3269958.1109619-2.7389984-.8340454-4.2389984M134.6427002,72.4272022c-1.1780396,1.3530006-3.0250244,2.0279999-5.5380249,2.0279999-1.6060181,0-2.8949585-.3689995-3.8699951-1.105999-.9769897-.7380009-1.2619629-1.7940006-.8569946-3.1700001.3900146-1.3269997,1.3580322-2.3339996,2.9050293-3.0230007,1.5459595-.6879997,3.2959595-1.0319996,5.2469482-1.0319996,1.6470337,0,3.3170166.2210007,5.0079956.6630001-.7529907,2.4090004-1.71698,4.2889996-2.8949585,5.6399994M198.1306763,30.811203c.1589966-.5400009.1119995-.9319992-.1409912-1.1790009-.2520142-.2450027-.7039795-.5159988-1.3540039-.810997-1.085022-.4420013-1.8079834-.7860031-2.1679688-1.0320053-.7090454-.5400009-1.382019-1.3509979-2.0160522-2.4329987.2590332-.5899963.4180298-.9820023.4760132-1.1790009.3330078-1.1299973.3389893-1.9649963.0220337-2.5069962-.3179932-.5400009-.875-1.0800018-1.6690063-1.6220016-.4780273-.2949982-1.0670166-.5400009-1.7670288-.7369995-.7019653-.1959991-1.2909546-.2949982-1.7669678-.2949982-.5640259,0-.8890381.147995-.9750366.4420013-.072998.246994.0280151.4929962.3030396.737999.9389648.9339981,1.4959717,1.7319946,1.6690063,2.3959961.1729736.663002.0359497,1.7580032-.4120483,3.2799988-.21698.737999-.4839478,1.5-.802002,2.2860031-1.1129761,2.7529984-2.0599976,5.0130005-2.8399658,6.7819977-1.7200317.689003-3.2449951,1.2290039-4.5750122,1.6220016-1.5750122.4919968-2.9699707.7369995-4.1829834.7369995-1.3010254,0-2.4360352-.2699966-3.4039917-.810997-.3619995-.2450027-.651001-.3680038-.8670044-.3680038-.2610474,0-.434021.1470032-.5209961.4420013-.0720215.2470016-.007019.5410004.1959839.8840027,1.4299927,2.3599968,3.1430054,3.5389977,5.1380005,3.5389977,1.5609741,0,3.5759888-.368,6.0479736-1.105999-5.4199829,11.7959976-11.2160034,22.0680008-17.3869629,30.8159981-.5790405.7860012-.9750366,1.5480003-1.1929932,2.2849998-.2890015.9840012-.2560425,1.7580013.0979614,2.3220005.3550415.5650005.8779907.8479996,1.5720215.8479996.5629883,0,1.1599731-.3309994,1.7879639-.9949989.6290283-.6639996,1.4200439-1.8059998,2.3740234-3.4279995,1.4160156-2.4570007,6.8649902-13.5400009,16.3469849-33.2480011,3.2659912-1.3759995,6.5900269-3.1699982,9.9730225-5.3819962,1.1409912-.7860031,1.8200073-1.5480042,2.0369873-2.2860031M192.7976685,30.148201c-.2019653.689003-1.5619507,1.6959991-4.0749512,3.0230026l1.3439941-2.802002,1.7339478-3.685997c.4180298.9339981.7190552,1.6469955.9000244,2.1380005.1799927.4919968.2130127.9339981.0969849,1.3269958M208.7106934,71.8012028c.1729736.4419994.1740112.9580002,0,1.5480003-.3759766,1.2779999-1.2689819,2.1379986-2.677002,2.5799999-1.4100342.4429989-3.2200317.6630001-5.4310303.6630001-4.5959473,0-8.0979614-.9209995-10.5039673-2.7639999-2.4069824-1.8430004-3.0020142-4.8290005-1.7880249-8.9570007.2740479-.9330006.6019897-1.7940006.9860229-2.5799999.382019-.7859993.6829834-1.3279991.9000244-1.6219978.3169556-.4910011.6419678-.9330025.9749756-1.3270035.3330078-.3929977.6069946-.5900002.8239746-.5900002.1730347,0,.210022.1730003.1080322.5160027l-.5200195,1.3269997c-.1450195.343998-.2819824.7369995-.4119873,1.178997-.2890015.9840012-.434021,2.0650024-.4329834,3.2440014-.0010376,1.1800003.3319702,2.2609997.9970093,3.2440014.5339966.8359985,1.4699707,1.5240002,2.8069458,2.0639992,1.3370361.5419998,2.9810181.8110008,4.9330444.8110008.4759521,0,1.6539917-.0980015,3.532959-.2950001.6210327-.0480003,1.2000122-.0980015,1.7350464-.1470013.5339966-.0489998.9749756-.0739994,1.322998-.0739994,1.6029663,0,2.4849854.3939991,2.6439819,1.1800003M220.2766724,36.7832031c.1940308,1.0319977.19104,1.8929977-.0109863,2.5800018-.2890015.9839973-1.3439941,1.6959991-3.164978,2.1379967-.8380127.1970024-1.4830322.321003-1.9290161.3689995-.6799927.098999-1.5180054.295002-2.5150146.5890007-.7229614.2469978-1.539978.5900002-2.4500122,1.0330009-.9109497.4420013-1.6119995.8359985-2.1029663,1.1790009-.3619995.1969986-.651001.2949982-.8670044.2949982-.21698,0-.2969971-.0979996-.2390137-.2949982.0720215-.2450027.2600098-.5159988.5640259-.8110008.2890015-.2449989,1.032959-.7849998,2.2329712-1.6219978,2.9620361-1.965004,4.5740356-3.3910027,4.835022-4.2750015.1439819-.4909973-.0150146-.9830017-.4769897-1.4749985-.7230225-.7850037-1.5540161-1.3510056-2.493042-1.6949997-.9400024-.3440018-1.8219604-.5160065-2.6449585-.5160065-.5209961,0-.9650269.0360031-1.3330078.1100006-.3699951.0740051-.5759888.1110001-.6190186.1110001-.6069946,0-.8529663-.1959991-.7369995-.5899963.1010132-.3430023.4689941-.6380005,1.1060181-.8850021,1.7489624-.6380005,3.4689941-.9580002,5.1599731-.9580002,1.4310303,0,2.7059937.1969986,3.8259888.590004,1.1199951.3929977,1.9760132.909996,2.5690308,1.5479965.6640015.689003,1.0939941,1.5480042,1.289978,2.5800018M268.0587158,27.0152054c-3.1430054-1.6949997-6.5150146-2.5440063-10.1130371-2.5440063-4.4229736,0-8.9829712,1.1320038-13.6799927,3.3920059-4.6970215,2.260994-8.8930054,5.4679947-12.585022,9.6209946-3.6929932,4.1530037-6.3189697,8.8830032-7.8800049,14.1910019-.9109497,3.0960007-1.3849487,6.0699997-1.4209595,8.920002-.0360107,2.8509979.3720093,5.1489983,1.2249756,6.8929996.8530273,1.7449989,2.0599976,2.6169987,3.6210327,2.6169987,1.039978,0,2.657959-.8219986,4.855957-2.4699993,2.1960449-1.6450005,4.6890259-4.078001,7.4790039-7.2979984,2.7890015-3.2180023,5.5430298-7.0149994,8.2600098-11.3899994,2.9490356-4.7180023,4.9570312-8.8950043,6.0270386-12.5330048.4329834-1.473999.7649536-3.1199951.9979858-4.9389954.2299805-1.8180008.2509766-3.3660049.0650024-4.6440048.3599854-.048996.9089966-.0739975,1.6469727-.0739975,3.2949829,0,6.2330322.7740021,8.8129883,2.3219986,2.5790405,1.5480042,4.3600464,4.0070038,5.3439941,7.3720016.9820557,3.3670006.7080078,7.6559982-.8239746,12.8649979-2.2399902,7.6180038-6.2949829,13.5160027-12.1619873,17.6930027-5.8690186,4.1779995-12.7260132,7.0030003-20.5740356,8.4779987-1.8359985.3440018-2.7969971.6630001-2.8829956.9580002-.0719604.2450008.1940308.3689995.802002.3689995,3.1640015,0,7.2770386-.6029987,12.335022-1.8059998,5.0579834-1.2039986,10.2509766-3.8209991,15.5770264-7.8519993,5.3249512-4.0290012,9.1159668-9.8780003,11.3709717-17.5459995,1.7189941-5.8479996,1.8859863-10.6520004.4979858-14.4119987-1.3880005-3.7600021-3.6519775-6.4869995-6.7959595-8.1829987M252.850708,32.7282028c-1.0560303,3.5879974-2.6240234,7.1879997-4.7050171,10.8010025-2.0809937,3.6119995-4.9639893,7.5559998-8.6489868,11.8319969-1.9240112,2.2610016-3.9030151,4.3129997-5.94104,6.156002-2.0379639,1.8419991-3.598999,2.763998-4.6829834,2.763998-.4769897,0-.9680176-.4659996-1.473999-1.4009991-.5059814-.9329987-.7849731-2.3829994-.835022-4.348999-.0509644-1.9660034.3580322-4.4230042,1.2260132-7.3720016,1.2850342-4.3740005,3.309021-8.3050003,6.0690308-11.7959976,2.7600098-3.489006,5.8969727-6.3030014,9.4089966-8.4410019,3.5119629-2.1380005,7.0319824-3.4520035,10.5579834-3.9440002-.0139771,1.6709976-.3399658,3.5879974-.9749756,5.75M315.1577148,16.5832062h-18.9260254l-16.585022,56.3969955h-2.927002l17.5610352-59.7139969h21.8529663l-.9759521,3.3170013ZM365.4326782,56.2822037c.5339966.9099998.7510071,1.5369987.6500244,1.8799973-.4050293.7870026-1.0620117,1.1800003-1.9720154,1.1800003h-24.519989l-4.401001,14.9650021c-.4620361,1.5719986-1.0050049,2.8259983-1.6260376,3.7600002-.6219482.9329987-1.5539551,1.7069988-2.7969971,2.3219986-1.242981.6140003-2.9629517,1.0440006-5.1599731,1.29.1300049-.8839998.1489868-1.6099997.0549927-2.1749983-.0939941-.5650024-.3430176-1.0440006-.7479858-1.4370003-.882019-.8360004-2.8480225-1.5240021-5.8970337-2.0640011l.3250122-1.1060009c5.4199829.4420013,8.6279907.663002,9.6260376.663002.6069946,0,1.0619507-.1100006,1.3659668-.3320007.3029785-.2200012.5490112-.6499996.7369995-1.2900009l4.2930298-14.5960007h-15.5440063c-3.0950317.0490036-6.447998.394001-10.0599976,1.0320015l-.5640259-3.8339996c2.2969971.2949982,5.1240234.4920006,8.4769897.5900002h18.3410034c.9819946-3.3420029,1.632019-6.0690002,1.9509888-8.1829987l3.6640015.810997c3.8720093-2.8499985,7.0460205-5.382,9.5170288-7.5929985h-15.8040161c-3.0939941.0489998-6.4469604.394001-10.0599976,1.0320015l-.6499634-3.7600021c2.2979736.2949982,5.1229858.4920006,8.4769897.5900002h19.6409912l1.8209839-1.7700005c.230011-.1949997.6029968-.5400009,1.1170044-1.0319977.5119934-.4900055.8999939-.7369995,1.1600037-.7369995.3900146,0,.9649963.810997,1.7229919,2.4329987.7590027,1.6220016,1.059021,2.7029991.8999939,3.2439995-.3329773.2459984-.7079773.4179993-1.1269836.5159988-.4200134.0990028-1.0050049.1730003-1.756012.2210007-2.7030029,1.9659996-6.894989,4.348999-12.5740051,7.1509972l.368042.0740051c-.4330444,1.0319977-1.3080444,1.6469955-2.6230469,1.8429985l-1.5169678,5.1599998h17.2339783l2.1040039-2.2849998c.1870117-.196003.5010071-.5280037.9429932-.9949989.4400024-.4670029.7910156-.8110046,1.0510254-1.0330048.2599792-.2209969.4769897-.3309975.651001-.3309975.2589722,0,.7259827.4050026,1.3979797,1.2159996.6710205.8110008,1.2740173,1.6710014,1.8099976,2.5800018M371.5896912,32.8022003c-1.4309998,1.3270035-3.1940002,2.7900009-5.2900085,4.387001s-4.0109863,2.9120026-5.7449951,3.9440002l-.4769897-.5899963c2.5869751-3.3420029,4.6749878-6.2410049,6.2649841-8.6990051h-41.2339783c-.651001,2.3590012-1.5690308,4.4110031-2.7529907,6.1549988-1.1860352,1.7460022-2.4000244,3.0360031-3.6420288,3.8710022-1.1419678.7870026-2.1469727,1.1790009-3.0139771,1.1790009-.868042,0-1.3880005-.368-1.5610352-1.105999-.0150146-.3920021.0289917-.7609978.1300049-1.1049995.3330078-1.1300011,1.1630249-2.112999,2.492981-2.9489975,1.6760254-.9830017,3.3170166-2.6910019,4.9210205-5.1240005,1.6040039-2.4319992,2.7030029-5.0240021,3.2960205-7.7770004l1.1270142-.0740051c-.0870361,1.9169998-.2600098,3.538002-.5200195,4.8660049h27.901001c.2599792-.2950058.5709839-.651001.9329834-1.0690002.3600159-.4169998.7730103-.8970032,1.2360229-1.4380035,1.7339783-2.0639954,3.5039978-4.397995,5.3109741-7.0039978,1.8059998-2.6040039,3.2150269-4.8889999,4.2270203-6.8560028,2.1099854,1.0820007,3.5589905,1.9060059,4.3479919,2.4700012.7860107.5660019,1.1380005.9960022,1.0509949,1.2900009-.0579834.1969986-.3259888.3690033-.802002.5159988l-1.3450012.3690033c-1.7200012,1.8679962-3.7359924,3.8590012-6.0480042,5.9710007-2.3129883,2.1139984-4.6109924,4.0309982-6.8939819,5.7509995h11.5119934l1.7340088-1.6959991c.2299805-.1960068.6029968-.5400009,1.1170044-1.0320053.5119934-.4909973.8989868-.7369995,1.1589966-.7369995.2609863,0,.6719971.4049988,1.2359924,1.2160034.5639954.810997,1.0539856,1.6839981,1.473999,2.6169968.4190063.9339981.5780029,1.5740051.4769897,1.9169998-.3039856.2949982-.6399841.4790039-1.0079956.5530014-.368988.0739975-.9079895.1360016-1.6149902.1839981M346.6586914,20.6012039c-.2319946-2.3830032-.7230225-4.4350052-1.4749756-6.1549988l.9319458-.5170059c2.3560181,1.5740051,3.9020386,3.3180008,4.6400146,5.2350006.7369995,1.9160004.8529968,3.7350006.3470154,5.4550018-.3040161,1.0319977-.7709961,1.8799973-1.3990173,2.5429993-.6289673.6640015-1.2680054.9960022-1.9179688.9960022-.651001,0-1.1860352-.3190002-1.6050415-.9589996.5490112-2.0139999.7080078-4.2129974.4780273-6.5979996M332.956665,21.6332016c-.4769897-2.284996-1.1499634-4.2389984-2.0159912-5.8600006l.8670044-.5159988c2.6740112,1.3759995,4.4580078,3.0100021,5.3540039,4.9020004.8959961,1.8929977,1.098999,3.6750031.6080322,5.3450012-.2750244.9339981-.7010498,1.6839981-1.2790527,2.2480011-.5789795.5659943-1.1709595.8479996-1.7779541.8479996-.5640259,0-1.0560303-.2450027-1.473999-.7369995.2890015-1.8670044.1939697-3.9440002-.2820435-6.2300034M431.1216736,21.0072021c-.3469849-1.0319977-.7449951-1.8180008-1.1919861-2.3600006-.4490051-.5400009-1.1640015-1.1289978-2.1470032-1.7679977-.3330078-.1969986-.625-.3440018-.8779907-.4430008-.2530212-.0979996-.4530029-.1959991-.5960083-.2949982-.144989-.0979996-.1950073-.2210007-.1520081-.3680038.1450195-.4909973.9750061-.737999,2.4940186-.737999.9100037,0,1.9499817.1839981,3.1210022.5530014,1.1699829.3689957,2.1279907.9469986,2.8729858,1.7330017.7440186.7859955.928009,1.8190002.553009,3.0960007-.2030029.6889954-.5419922,1.1800003-1.0190125,1.473999-.4769897.2949982-.9109802.4430008-1.3009949.4430008-.8240051,0-1.4089966-.4430008-1.756012-1.3270035M421.2786865,47.8412018c.7220154.7870026.9249878,1.7210007.6069946,2.802002-.4190063,1.4259987-1.2359924,2.137001-2.4499817,2.137001-.9530029,0-1.7480164-.3920021-2.3840027-1.1790009-1.5039978-1.965004-2.6419983-4.0289993-3.4150085-6.1920013s-1.42099-5.086998-1.9400024-8.7740021l-.303009,1.9169998c-.4049988,2.7040024-.7709961,4.8660049-1.0959778,6.4880028-.3250122,1.6219978-.7260132,3.243-1.2030029,4.8650017-1.3439941,4.5709991-3.1860046,8.9579964-5.5280151,13.159996-2.3410034,4.2020016-5.2839966,7.7160015-8.8240051,10.5420017-3.5409851,2.8249989-7.5449829,4.2390003-12.0099792,4.2390003-3.07901,0-5.5970154-.7630005-7.5550232-2.2859993-1.9589844-1.5220013-3.2019958-3.6360016-3.7289734-6.3400002-.5280151-2.7020016-.2790222-5.7980003.7479858-9.288002,1.2279968-4.1769981,3.5190125-8.6499977,6.8720093-13.4179993,3.3529968-4.7659988,7.3630066-9.4849968,12.0329895-14.1540031-1.9670105,1.0810013-3.8169861,1.6220016-5.5509949,1.6220016-1.0840149,0-2.1180115-.3929977-3.1000061-1.1800003-.4629822-.3429947-.803009-.9949951-1.0189819-1.9529953-.2170105-.9589996-.2680054-1.6340027-.151001-2.0279999.0289917-.0979996.0849915-.1470032.1729736-.1470032.0859985,0,.1620178.0370026.2280273.1100006.0649719.0739975.1759949.1360016.3349915.1849976.1589966.0490036.5859985.2210007,1.2789917.5159988.6950073.2950058,1.4970093.4420013,2.4070129.4420013,1.5169983,0,3.0099792-.3190002,4.4769897-.9580002,1.4660034-.6389999,3.1109924-1.4749985,4.9320068-2.5069962,1.4159851-.8349991,2.2980042-1.2529984,2.644989-1.2529984,1.17099,0,2.0339966.2709961,2.5910034.810997.5559998.5410004.7550049,1.0810013.5960083,1.6220016-.0720215.2459946-.3080139.4909973-.70401.7369995-.3980103.2460022-.8280029.4919968-1.2900085.7369995-1.2290039.6389999-2.1470032,1.1800003-2.7539978,1.6220016-4.6259766,3.6380005-8.7049866,7.961998-12.2379761,12.9749985-3.5340271,5.0130005-5.9660034,9.7799988-7.2950134,14.3019981-1.3009949,4.4230003-1.3479919,8.0110016-.1409912,10.7630005,1.2059937,2.7530003,3.8039856,4.1280003,7.7939758,4.1280003,5.1590271,0,9.7470093-2.2600002,13.7660217-6.7819996,4.0180054-4.5209999,7.2330017-10.8849983,9.6470032-19.0929985,1.2869873-4.3740005,2.3199768-9.2160034,3.1009827-14.5240021l.4980164-3.685997c.3320007-2.4570007.5639954-3.9070053.6940002-4.3500061.2460022-.8349991.59198-1.534996,1.0409851-2.1009979.446991-.5639954.9320068-.8470001,1.4530029-.8470001.6920166,0,1.1400146.2460022,1.3439941.7369995.2010193.4920044.2480164,1.0690002.1400146,1.7320023-.1080017.6640015-.3430176,1.8320007-.70401,3.5019989-.79599,3.8830032-1.1059875,6.8929977-.9320068,9.0309982.1719971,2.1380005.7440186,3.920002,1.7120056,5.3450012.9680176,1.4260025,2.7030029,3.4160004,5.2030029,5.9710007M427.468689,24.0292053c.9029846.9839935,1.1300049,2.2369995.6820068,3.7599945-.2160034.7369995-.5679932,1.3030014-1.0509949,1.6959991-.4840088.3940048-.9860229.5890045-1.507019.5890045-.4329834,0-.8339844-.1470032-1.2030029-.4420013-.367981-.2949982-.5749817-.7369995-.6170044-1.3270035-.144989-1.2769928-.4059753-2.345993-.7809753-3.2069931-.3760071-.8590012-.9900208-1.6090012-1.8430176-2.2480011-.072998-.0490036-.2859802-.2089996-.6390076-.4800034-.3549805-.2689972-.4949951-.5270004-.4229736-.772995.1009827-.3440018.4979858-.5170059,1.1919861-.5170059.651001,0,1.618988.2470016,2.9049988.737999,1.2860107.4910049,2.3800049,1.2290039,3.2850037,2.2110062M475.1756897,71.8012028c.1730042.4419994.1730042.9580002,0,1.5480003-.3760071,1.2779999-1.2690125,2.1379986-2.677002,2.5799999-1.4100037.4429989-3.2200012.6630001-5.4309998.6630001-4.5960083,0-8.0979919-.9209995-10.5039978-2.7639999-2.4070129-1.8430004-3.0029907-4.8290005-1.7890015-8.9570007.2749939-.9330006.6029968-1.7940006.9869995-2.5799999.3819885-.7859993.6820068-1.3279991.8999939-1.6219978.3170166-.4910011.6419983-.9330025.9750061-1.3270035.3320007-.3929977.6059875-.5900002.8240051-.5900002.1730042,0,.2089844.1730003.1080017.5160027l-.5200195,1.3269997c-.144989.343998-.2819824.7369995-.4119873,1.178997-.2890015.9840012-.4339905,2.0650024-.4330139,3.2440014,0,1.1800003.3320007,2.2609997.9970093,3.2440014.5339966.8359985,1.4700012,1.5240002,2.8070068,2.0639992,1.3370056.5419998,2.9809875.8110008,4.9329834.8110008.4760132,0,1.6540222-.0980015,3.53302-.2950001.6219788-.0480003,1.1999817-.0980015,1.7349854-.1470013.5339966-.0489998.9750061-.0739994,1.3220215-.0739994,1.6039734,0,2.4859924.3939991,2.644989,1.1800003M486.7416992,36.7832031c.1949768,1.0319977.190979,1.8929977-.0110168,2.5800018-.2890015.9839973-1.3439941,1.6959991-3.1650085,2.1379967-.8379822.1970024-1.4819946.321003-1.9299927.3689995-.6789856.098999-1.5169983.295002-2.5140076.5890007-.7229919.2469978-1.539978.5900002-2.4499817,1.0330009-.9110107.4420013-1.6119995.8359985-2.1029968,1.1790009-.3619995.1969986-.651001.2949982-.8670044.2949982-.2180176,0-.2969971-.0979996-.2390137-.2949982.072998-.2450027.2600098-.5159988.5639954-.8110008.2890015-.2449989,1.03302-.7849998,2.2330017-1.6219978,2.9620056-1.965004,4.5750122-3.3910027,4.835022-4.2750015.1439819-.4909973-.0160217-.9830017-.4779968-1.4749985-.7230225-.7850037-1.553009-1.3510056-2.4920044-1.6949997-.9400024-.3440018-1.8220215-.5160065-2.6459961-.5160065-.5200195,0-.9640198.0360031-1.3330078.1100006-.3690186.0740051-.5750122.1110001-.6170044.1110001-.6080017,0-.8540039-.1959991-.7380066-.5899963.1010132-.3430023.4689941-.6380005,1.1060181-.8850021,1.7479858-.6380005,3.4689941-.9580002,5.1589966-.9580002,1.4309998,0,2.7070007.1969986,3.8269958.590004,1.1199951.3929977,1.9759827.909996,2.5690002,1.5479965.6640015.689003,1.0950012,1.5480042,1.2900085,2.5800018M464.5956726,30.811203c.1590271-.5400009.11203-.9319992-.1409912-1.1790009-.2519836-.2450027-.7039795-.5159988-1.3540039-.810997-1.0849915-.4420013-1.8079834-.7860031-2.1679993-1.0320053-.7089844-.5400009-1.3819885-1.3509979-2.0169983-2.4329987.2600098-.5899963.4200134-.9820023.4779968-1.1790009.3320007-1.1299973.3380127-1.9649963.0209961-2.5069962-.3190002-.5400009-.8759766-1.0800018-1.6699829-1.6220016-.4769897-.2949982-1.0660095-.5400009-1.7659912-.7369995-.7020264-.1959991-1.2900085-.2949982-1.7669983-.2949982-.5640259,0-.8890076.147995-.9760132.4420013-.071991.246994.0289917.4929962.3039856.737999.9380188.9339981,1.4950256,1.7319946,1.6690063,2.3959961.1730042.663002.0360107,1.7580032-.4119873,3.2799988-.2170105.737999-.4850159,1.5-.802002,2.2860031-1.1140137,2.7529984-2.0589905,5.0130005-2.8399963,6.7819977-1.7210083.689003-3.2460022,1.2290039-4.5750122,1.6220016-1.5749817.4919968-2.9700012.7369995-4.1839905.7369995-1.3000183,0-2.4349976-.2699966-3.4030151-.810997-.3619995-.2450027-.651001-.3680038-.8669739-.3680038-.2600098,0-.434021.1470032-.5210266.4420013-.071991.2470016-.0079956.5410004.1960144.8840027,1.4289856,2.3599968,3.1430054,3.5389977,5.1380005,3.5389977,1.5599976,0,3.5769958-.368,6.0480042-1.105999-5.4200134,11.7959976-11.2160034,22.0680008-17.3869934,30.8159981-.57901.7860012-.9760132,1.5480003-1.1920166,2.2849998-.2890015.9840012-.2569885,1.7580013.0970154,2.3220005.3549805.5650005.8779907.8479996,1.571991.8479996.5629883,0,1.1589966-.3309994,1.7890015-.9949989.6279907-.6639996,1.4190063-1.8059998,2.3739929-3.4279995,1.4150085-2.4570007,6.8640137-13.5400009,16.3450012-33.2480011,3.2669983-1.3759995,6.5910034-3.1699982,9.973999-5.3819962,1.1409912-.7860031,1.8210144-1.5480042,2.0369873-2.2860031M459.2637024,30.148201c-.20401.689003-1.5620117,1.6959991-4.0770264,3.0230026l1.3450012-2.802002,1.7340088-3.685997c.4190063.9339981.7189941,1.6469955.8999939,2.1380005.1809998.4919968.2130127.9339981.0980225,1.3269958M506.416687,53.5912018c.131012,0,.1520081.1480026.0650024.4430008-.071991.2460022-.2380066.663002-.4980164,1.2529984-1.1719971,2.5070038-2.0599976,4.7919998-2.6669922,6.8560028-.2160034.7369995-.401001,1.4379997-.5529785,2.1009979-.1520081.6640015-.2640076,1.1920013-.3360291,1.585001-.2319946.934-.3039856,1.9909992-.21698,3.1700001,0,1.1800003-.0650024,1.9909992-.1950073,2.4330006-.1879883.6389999-.4880066,1.1429996-.8999939,1.5109997-.4120178.3689995-.8999939.5529995-1.4630127.5529995-.8670044,0-1.8869934-.3689995-3.0570068-1.1060009-1.17099-.7369995-2.3339844-1.9399986-3.4899902-3.6119995-2.9349976-4.3239994-3.2299805-10.4679985-.8890076-18.4300003.7230225-2.4569969,1.848999-5.4799995,3.382019-9.067997.8959961-2.1620026,1.4599915-3.6360016,1.690979-4.4230042.3470154-1.1800003.4760132-2.2490005.3900146-3.2070007-.0870056-.9580002-.447998-1.9039993-1.0840149-2.8389969-.1879883-.2450027-.2599792-.4420013-.2159729-.5889969.0429993-.1480026.1609802-.2580032.3569946-.3320007.1940002-.0740051.3789978-.1100006.5529785-.1100006.8670044,0,1.7630005.3069992,2.6880188.9209976.9249878.6149979,1.6289978,1.4260025,2.1139832,2.4329987.4840088,1.0080032.5750122,2.0270004.2710266,3.0589981-.1880188.640007-.4980164,1.364006-.9330139,2.1750031-.4330139.8110008-.9089966,1.6590004-1.4299927,2.5429993-1.1710205,2.064003-2.1140137,3.8339996-2.82901,5.3090019-.7160034,1.473999-1.3619995,3.1949997-1.9400024,5.1599998-.7810059,2.6539993-1.0409851,5.0499992-.7810059,7.1879997.2600098,2.1380005.809021,3.8089981,1.6480103,5.0130005.8370056,1.204998,1.6900024,1.8059998,2.5580139,1.8059998.519989,0,1.0179749-.5160007,1.4949951-1.5480003,1.0119934-2.112999,1.9849854-3.980999,2.9169922-5.6030006.9320068-1.6219978,1.6149902-2.7280006,2.0480042-3.3180008.2309875-.3429985.4729919-.6499977.7269897-.9210014.2510071-.2699966.4440002-.4059982.5740051-.4059982M534.7086792,52.8171997c-.7089844.7140045-1.4750366,1.0690002-2.2980347,1.0690002-.8679199,0-1.4059448-.1949997-1.6149902-.5889969-.2099609-.3929977-.3219604-.9329987-.3359375-1.6220016-.0150146-.0979996.0719604-1.6829987.2600098-4.7549973.1869507-3.0709991-.585083-5.1980019-2.3200684-6.3769989-.8239746-.590004-2.0809326-.8850021-3.7719727-.8850021h-.7800293c-.3909912,0-.5429688-.1470032-.4559326-.4420013.0570068-.1959991.3319702-.3929977.8239746-.5900002.2020264-.0979958.6610107-.2209969,1.3759766-.3689995.7160034-.1470032,1.4860229-.2210007,2.309021-.2210007,3.0349731,0,5.3049927,1.2050018,6.8079834,3.612999,1.0690308,1.6710014,1.6430054,3.3300018,1.7230225,4.9760017.0789795,1.6469994-.0100098,2.9119987-.2700195,3.7960014-.2609863.8849983-.7460327,1.6849976-1.4530029,2.3959961M573.0596924,22.7032013l-17.5599976,59.7130013h-21.8529663l.9749756-3.3170013h18.9260254l16.5849609-56.3959999h2.927002ZM621.1896973,39.5112c.5050049-1.7200012.3569946-3.0970001-.4450073-4.1289978s-1.9190063-1.5479965-3.3500366-1.5479965c-1.7339478,0-3.7209473.5659943-5.9609375,1.6959991-2.2420654,1.1309967-4.2420654,2.4819946-6.0060425,4.0550003-1.7630005,1.572998-3.3269653,3.1329956-4.6929932,4.6809998-1.3660278,1.5479965-2.742981,3.3539963-4.1300049,5.4179993.2739868-2.2600021.0100098-4.0540009-.7919922-5.3810043-.8030396-1.3279953-2.2649536-1.9909973-4.3899536-1.9909973-1.2140503,0-2.572998.4179993-4.0750732,1.2529984,2.6300049-3.7839966,5.5640259-8.526001,8.8010254-14.2279968,2.4869995-.9329987,4.552002-1.8430023,6.2010498-2.727005,1.1699219-.5899963,2.2069702-1.2779999,3.1109619-2.0649948.9030151-.7850037,1.447998-1.4980011,1.6369629-2.137001.2449951-.8359985-.1309814-1.2539978-1.1269531-1.2539978-.4350586,0-.8840332.0499954-1.3439941.147995-.3480225.1470032-.8250122.2210007-1.4310303.2210007-1.1710205,0-2.0250244-.2699966-2.5579834-.810997.2879639-.6880035.4759521-1.1800003.5629883-1.4749985.2310181-.7850037.2810059-1.3270035.151001-1.6210022-.1439819-.3929977-.7149658-.7369995-1.7120361-1.0329971-.9969482-.2940063-1.6919556-.4420013-2.0809326-.4420013-.6500244,0-1.1070557.3689957-1.3660278,1.1059952-.0580444.1970062-.0089722.3940048.151001.590004.9829712,1.2289963,1.1859741,2.8269958.6079712,4.7919998-.3039551,1.0309982-.8099365,2.2369995-1.5179443,3.6119995-1.8510132.6889954-3.5020142,1.1429977-4.9530029,1.3639984-1.4540405.2210007-2.5700684.3320007-3.3500366.3320007-1.5609741,0-2.9489746-.2949982-4.1630249-.8850021-.3899536-.147995-.6729736-.2210007-.8449707-.2210007-.2180176,0-.3540039.098999-.4119873.2950058-.0429688.1469955,0,.2949982.1300049.4419937,1.0250244,1.2290039,1.9580078,2.114006,2.7969971,2.654007.8370361.5409927,1.9730225.810997,3.4039917.810997,1.6470337,0,3.3949585-.2700043,5.2460327-.810997-2.776001,4.8659973-5.8970337,9.435997-9.3660278,13.711998-1.2279663,1.5239983-2.5150146,2.875-3.8590088,4.0540009-1.3450317,1.1800003-2.927002,2.5069962-4.7470093,3.9819984l-1.5179443,1.178997c-.651001.590004-1.1490479,1.4740028-1.4960327,2.6540031-.2600098.8849983-.2890015,1.6469994-.0859985,2.2859993.2020264.6389999.6699829.9580002,1.407959.9580002.3030396,0,.7449951-.2460022,1.322998-.7369995.5770264-.4910011,1.223999-1.1430016,1.9400635-1.9540024.7149658-.810997,1.1669922-1.3139992,1.3549805-1.5109978,2.3410034-2.507,4.6789551-4.8159981,7.0130005-6.9300003,2.3339844-2.1130028,4.2819824-3.170002,5.8429565-3.170002,2.6879883,0,3.2740479,2.5800018,1.7560425,7.7410011-.2890015.9829979-.5349731,1.7449989-.7369995,2.2849998-3.9169922,1.9659996-7.1040039,3.9939995-9.5610352,6.0820007-2.4569702,2.0900002-4.0899658,4.5100002-4.8989868,7.2619991-.7809448,2.6540012-.5319824,4.9020004.7479858,6.7450008,1.2790527,1.8429985,4.6270142,2.7649994,10.0480347,2.7649994,2.6449585,0,5.2680054-.2950001,7.8699951-.8850002,2.6010132-.5900002,4.1189575-1.6219997,4.5530396-3.0959988.3899536-1.3270016-.2600098-1.9910011-1.9520264-1.9910011-.9539795,0-2.3630371.2210007-4.2270508.6639996-.9829712.2460003-2.0239258.4680004-3.1219482.6630001-1.098999.1970005-2.1459961.2950001-3.1430054.2950001-6.5910034,0-9.3369751-1.8669987-8.2390137-5.6029987.6220093-2.1119995,1.8889771-4.0289993,3.8049927-5.75,1.9140015-1.7200012,4.3609619-3.3660011,7.3380127-4.9389992l-2.059021,5.6759987c-.5349731,1.3769989-.8809814,2.3349991-1.039978,2.875-.2030029.6889992-.1889648,1.3029995.0429688,1.8430004.2310181.5419998.6070557.8109989,1.1270142.8109989.5640259,0,1.1710205-.2579994,1.8209839-.7740002.6500244-.5159988,1.1060181-1.1429996,1.3660278-1.8799992.1730347-.4419994.7730103-2.4070015,1.7990112-5.8969994.651001-2.2120018,1.1929932-3.8339996,1.6269531-4.8660011,1.2410278-.5400009,3.677002-1.5229988,7.3060303-2.9489975l5.4630127-2.2120018c3.322998-1.4239998,6.05896-2.9119987,8.2049561-4.4600029,2.1470337-1.5479965,3.5450439-3.4279976,4.1960449-5.6389999M600.0296631,22.113205l.5640259.5159988c.2600098.2939987.3610229.5410004.3040161.7369995-.0579834.1969986-.269043.3939972-.6300049.5899963-.2020264.098999-.4370117.2330017-.7039795.4050064-.2680664.1729965-.5750732.3319931-.9210205.4789963.881958-1.6699982,1.3439941-2.5800018,1.3869629-2.7269974M614.5546875,42.2751999c-1.8220215,1.696003-4.0040283,3.2570038-6.5469971,4.682003-1.460022.8360023-4.2340088,2.2369995-8.3239746,4.2019997l-1.5830078.7369995-.9760132.4420013.0220337-.0740013c.9819336-1.718998,2.3439941-3.6970024,4.0859375-5.9340019,1.7410278-2.2360001,3.394043-4.0179977,4.9540405-5.3449974,1.7349854-1.4740028,3.4970093-2.6779976,5.289978-3.6120033,1.7919922-.9329987,3.2739868-1.4009933,4.4450073-1.4009933,1.6470337,0,2.2609863.7129974,1.84198,2.1379929-.3179932,1.0820007-1.3880005,2.4700012-3.2089844,4.1650009M672.7647095,37.9632034c-.3040161,0-.7190552.2330017-1.2470093.6999969-.5280151.4680023-.8779907.7740021-1.0510254.9220047l-1.7559814,1.5479965h-10.7969971l3.7719727-12.8280029h24.1950073c.9099731,0,1.5679932-.3929977,1.9730225-1.1789932.0999756-.3440018-.1160278-.9700012-.651001-1.8800049-.5349731-.9089966-1.1420288-1.7569962-1.8209839-2.5429993-.6790161-.7859955-1.1490479-1.1800003-1.4090576-1.1800003-.1739502,0-.3899536.1100006-.6499634.3310013-.2609863.2220001-.5930176.5419998-.9979858.9589996-.4050293.4179993-.7300415.75-.9760132.9950027l-2.1019897,2.284996h-16.9110107l2.2550049-7.6660004,1.2789917-.810997c.4190063-.2460022.664978-.4909973.7379761-.7369995.217041-.737999-1.6189575-1.7939987-5.506958-3.1709976-.493042,3.1459961-1.4890137,7.2739944-2.9920044,12.3849945h-17.2999878c-3.3530273-.0970001-6.1790161-.2939987-8.4770508-.5889969l.5640259,3.8330002c3.6119995-.6380005,6.9650269-.9820023,10.059021-1.0320053h14.5039673l-3.7719727,12.8280029h-13.3980103c-3.3540039-.0979996-6.1790161-.2949982-8.4769897-.5899963l.6719971,3.685997c2.1809692-.6380005,4.1919556-.9830017,6.0269775-1.0319977h3.2520142c.0289917,8.3059998,1.8200073,15.4069977,5.3770142,21.3049984-9.2660522,6.882-19.7510376,12.1639996-31.4570312,15.8499994l.151001,1.2539997c12.3430176-3.0479994,23.3629761-7.8629999,33.0620117-14.4499998,4.5809937,6.3899994,11.2069702,11.132,19.8789673,14.2279997.6500244-1.1789999,1.4450073-2.1129999,2.3850098-2.8009996.9400024-.6889992,1.901001-1.0820007,2.8840332-1.1800003l.3029785-.8109989c-9.0910034-2.4070015-16.3609619-6.4370003-21.80896-12.0900002,7.4859619-5.7010021,14.1489868-12.5070019,19.9879761-20.4210033.8380127-.0479965,1.4559937-.1219978,1.8540039-.2209969.3959961-.0979996.7979736-.3190002,1.2030029-.6629982.1589966-.5400009-.1740112-1.5480042-.9970093-3.0230026-.8250122-1.473999-1.4310303-2.2109985-1.8209839-2.2109985M650.4127197,61.9962006c-4.25-5.3079987-6.677002-11.5749969-7.2840576-18.798996h24.8450317c-4.8280029,6.9789963-10.6820068,13.2459984-17.5609741,18.798996M750.0296631,16.5102005l1.4960327,2.2109985c-.3460083.2950058-.802002.4430008-1.3649902.4430008-.5209961,0-1.0630493-.147995-1.6260376-.4430008-4.6549683.9350052-9.9660034,1.7820053-15.9349976,2.5440063-5.9699707.7619934-11.5629883,1.2409973-16.7799683,1.4379959l.2600098-1.3279953c5.3759766-.7370071,11.1619873-1.7930069,17.3549805-3.1700058,6.1929932-1.375,11.2329712-2.7019958,15.1220093-3.9809952l1.4729614,2.2859955ZM743.3746948,21.2282028c-.940979,2.0159988-2.2659912,4.348999-3.9780273,7.0039978-1.7139893,2.6529999-3.4369507,5.0130005-5.1709595,7.0770035-.3760376.3939972-.8970337.9830017-1.5610352,1.7689972h-13.2680054c-3.3529663-.0979996-6.1790161-.2949982-8.4769897-.5899963l.5209961,3.7599983c2.2249756-.6380005,4.3210449-.9830017,6.2869873-1.0320015h3.4470215c-.8540039,2.3110008-1.8939819,4.8170013-3.1220093,7.519001h-3.5769653c-2.9630127-.0970001-5.4639893-.2940025-7.5010376-.5890007l.6069946,3.6860008c2.2250366-.6380005,4.3210449-.9829979,6.2869873-1.0330009h3.3170166c-3.0780029,6.487999-6.6339722,12.3860016-10.6660156,17.6940002-4.032959,5.3080006-8.7369385,10.026001-14.1139526,14.1540003l.3689575.9589996c4.8120117-2.9489985,9.1050415-6.3399992,12.8770142-10.1739988,3.7720337-3.8340015,7.1830444-8.1340008,10.2330322-12.9009991.3319702,4.4729996,1.4019775,8.355999,3.2089844,11.6479988-5.5650024,4.3249989-11.815979,7.7409992-18.7529907,10.2469997l.0429688,1.1799994c7.5740356-2.0159998,14.3520508-5.013999,20.3359985-8.9949999,2.8170166,3.8339996,6.8650513,6.8069992,12.1400146,8.9210005,1.1859741-2.2610006,2.723999-3.5880003,4.617981-3.9809999l.3030396-.8110008c-5.507019-1.473999-10.0300293-3.7099991-13.5709839-6.7089996,4.3359375-3.3910007,8.2819824-7.4460011,11.8369751-12.1639996.7509766-.0480003,1.3410034-.1339989,1.7670288-.2579994.4259644-.1220016.7909546-.3310013,1.0949707-.6259995.1589966-.5400009-.1849976-1.4750023-1.0300293-2.802002-.8449707-1.3269997-1.4629517-1.9900017-1.8529663-1.9900017-.3049927,0-.690979.2089996-1.1600342.6259995-.4710083.4190025-.7919922.701004-.9649658.8480034l-1.5830078,1.4009972h-14.3079834c.7799683-1.3269958,1.8919678-3.4149971,3.3379517-6.2669983h22.8290405c.8670044,0,1.4949951-.368,1.8859863-1.1049995.1010132-.3429985-.0830078-.9330025-.5529785-1.769001-.4689941-.8349991-1.0120239-1.6100006-1.6260376-2.322998-.6149902-.7120018-1.0509644-1.0690002-1.3109741-1.0690002-.1740112,0-.4050293.1240005-.6940308.3689995-.289978.2469978-.5819702.5410004-.8779907.8839989-.2969971.3450012-.5679932.6399994-.8129883.8850021l-1.9069824,2.0639992h-15.8699951c.8369751-1.8169975,1.9219971-4.3240013,3.2520142-7.519001h20.1619873c.9099731,0,1.5669556-.3929977,1.9719849-1.1800003.1010132-.3430023-.0650024-.9209976-.4979858-1.7320023-.434021-.810997-.9400024-1.5599976-1.5180054-2.2479935-.5780029-.6880035-.9970093-1.0330048-1.257019-1.0330048-.1740112,0-.3770142.098999-.6069946.2949982-.2319946.1970062-.5250244.4920044-.8779907.8850021-.3540039.3940048-.625.689003-.8129883.8850021l-1.7560425,1.9899979h-6.2439575c2.1679688-1.6220016,4.3399658-3.4769974,6.5149536-5.5660019,2.1750488-2.0879974,4.0350342-4.0659943,5.5820312-5.9349976l1.3009644-.4420013c.4760132-.1469955.7510376-.3429947.8240356-.5899963.1740112-.5890045-1.5180054-1.6949997-5.072998-3.3170013M731.4716797,57.2782021c-2.7020264,3.8829994-5.8530273,7.3719997-9.4509888,10.4680004-2.5889893-2.9969997-4.2059937-6.4880009-4.8569946-10.4680004h14.3079834ZM692.9907227,74.4552021c-.4470215,1.5220013-.9350586,2.7390003-1.4630127,3.6490002-.5270386.9090004-1.3120117,1.658-2.3520508,2.2480001-1.0409546.5900002-2.4649658,1.007-4.2709961,1.2539997.3179932-1.8189993.2890625-3.0479994-.0869751-3.6859999-.5339966-.8369999-1.9219971-1.427-4.1619873-1.7700005l.367981-1.2530003c3.5410156.3440018,5.7020264.5160007,6.4830322.5160007.5189819,0,.9099731-.1110001,1.1699829-.3319988.2600098-.2210007.4699707-.6010017.6289673-1.1430016l6.3520508-21.5999985-6.2650146,3.3909988c-.434021,1.0330009-.9980469,1.6959991-1.69104,1.9910011l-.9110107-5.9710007c2.4420166-.7859993,5.8240356-2.0389977,10.1460571-3.7609978l4.5750122-15.5550003h-2.7320557c-1.4890137.0499954-3.1079712.3949966-4.855957,1.0329971l-.5200195-3.7600021c1.6040039.2950058,3.5830078.4920044,5.9389648.590004h2.7980347l.4329834-1.4749985c1.8209839-6.1920013,3.0200195-11.2300034,3.5980225-15.112999,2.1829834.836998,3.6709595,1.4869995,4.46698,1.9539948.7940063.4680023,1.1409912.8730011,1.0400391,1.2170029-.0720215.2460022-.3389893.4909973-.802002.7369995l-1.4090576.810997-3.4899902,11.8690033h1.69104l1.690979-1.9910049c.2020264-.2449951.4760132-.5529938.822998-.9209976.3460083-.3689957.625-.651001.835022-.8479996.2089844-.1959991.4000244-.2949982.5739746-.2949982.3909912,0,1.019043.6999969,1.8859863,2.1009979.8670044,1.401001,1.2220459,2.3720016,1.0629883,2.9120026-.4049683.7869949-1.0409546,1.1790009-1.907959,1.1790009h-7.2839966l-4.0759888,13.8600006c3.7279663-1.4740028,6.8509521-2.7280045,9.3659668-3.7600021l.0209961,1.0319977-2.7529907,1.6220016c-3.6279907,2.1640015-6.1719971,3.6620026-7.6309814,4.4970016l-7.2849731,24.770998ZM719.1586914,34.5722046c.2739868-1.5240021.3309937-3.1949997.1729736-5.0139999-.1599731-1.8170013-.4630127-3.439003-.9099731-4.8650055l.9099731-.4419937c1.9510498,1.1789932,3.2370605,2.5189972,3.8590088,4.0169983.6210327,1.5.7369995,2.9119949.3470459,4.2389984-.2460327.8359985-.6430664,1.5240021-1.1930542,2.0650024-.5490112.5410004-1.1270142.8099976-1.7339478.8099976-.6070557,0-1.0910645-.2689972-1.4520264-.8099976M728.6107178,34.0562057c.375-1.5730057.5050049-3.3050003.3899536-5.1980057-.1159668-1.8909988-.3829956-3.5999985-.802002-5.1240005l.9750366-.4419937c1.8359985,1.2789993,3.0360107,2.6909943,3.598999,4.2389984.5639648,1.5479965.6439819,3.0110016.2390137,4.3860016-.2600098.8849945-.6690674,1.6110001-1.2250366,2.1749954-.5570068.5660019-1.1380005.8479996-1.7449951.8479996-.5640259,0-1.0410156-.2949982-1.4309692-.8839951M808.3916626,32.1392059c.2310181-.7860031.1410522-1.364006-.2709961-1.7330017-.4119873-.3680038-1.1459961-.6750031-2.1999512-.9210052-.1160278-.048996-.7020264-.121994-1.7560425-.2220001-.7669678-.0479965-1.6449585-.1579971-2.6339722-.3309937-.9899902-.1720047-2.0360107-.4540024-3.1329956-.8479996-2.197998-.7860031-4.9580078-2.6040039-8.2820435-5.4550018.5500488-1.1300049.8530273-1.7939987.9110107-1.9910049.4190063-1.4249954-.1669922-2.6039963-1.7559814-3.5389938-.6229858-.3920059-1.322998-.5890045-2.1030273-.5890045-.5199585,0-1.0809937.098999-1.6799927.2949982-.6009521.1970062-.9509888.4670029-1.052002.8110046-.0429688.1469955.0620117.3440018.3150024.5889969.2520142.2470016.4869995.5159988.7040405.8110046.3469849.4420013.5819702,1.1920013.7049561,2.2490005.1220093,1.0569992.0250244,2.1999969-.2929688,3.4279938-.2470093,1.1310043-.7520142,3.1460037-1.5180054,6.0450058-3.1940308.5419998-6.5469971,1.1429977-10.059021,1.8059998-3.5119629.6640015-6.1499634,1.1920013-7.9129639,1.5849991-1.8210449.4430008-3.4470215.6640015-4.8780518.6640015-.8239746,0-1.8999634-.1720047-3.2299805-.5160065-.664978-.2459946-1.2149658-.3689957-1.6480103-.3689957-.3029785,0-.4979858.1480026-.5849609.4420013-.1450195.4919968.0359497,1.2049942.5419922,2.1380005.5059814.9339981,1.1419678,1.7210007,1.90802,2.3589973.9819946.7869987,2.1019897,1.1800003,3.3599854,1.1800003.9539795,0,1.84198-.1479988,2.6660156-.4419975.8239746-.295002,1.7849731-.6880035,2.8839722-1.1800003,3.1359863-1.3759995,5.9829712-2.4700012,8.5419922-3.2810059,2.5579834-.810997,5.1010132-1.3879929,7.6309814-1.7319946-1.1569824,3.9329987-2.355957,7.1999969-3.598999,9.8050003-.7229614-.7860031-1.6480103-1.1800003-2.7749634-1.1800003-1.9949951,0-3.7869873.8239975-5.3770142,2.4699974-1.5889893,1.6469994-2.723999,3.625-3.4030151,5.9340019-.3469849,1.1800003-.5789795,2.4830017-.6939697,3.9079971-.1160278,1.4260025-.1010132,2.7770004.0440063,4.0550003.1430054,1.4250031.532959,2.6420021,1.1699829,3.6490021.6359863,1.007,1.5819702,1.5109978,2.8399658,1.5109978.651001,0,1.5360107-.3189964,2.6560059-.9589996,1.1199951-.6379967,1.8670044-1.2280006,2.2440186-1.769001l-.1079712.3690033c-.7380371,2.5059986-2.3070068,5.4439983-4.7050171,8.8089981-2.4000244,3.3670006-6.1140137,6.1560001-11.1430054,8.368-.5349731.1960011-.8530273.4659996-.9539795.8110008-.0720215.2449989.0429688.368.3469849.368.1300049,0,.3609619-.0489998.6929932-.1469994,2.0670166-.5410004,4.4559937-1.585001,7.164978-3.1330013,2.710022-1.5489998,5.3300171-3.7469997,7.8590088-6.5979996,2.5300293-2.8500004,4.3939819-6.3150005,5.5939941-10.3949986.5060425-1.7200012.822998-3.6490021.9540405-5.7870026.1289673-2.1380005.0209961-4.0919991-.3260498-5.8610001.217041-.8849983.6730347-2.5059967,1.3660278-4.8659973.651001-2.2109985,1.6400146-5.4290009,2.9700317-9.6569977,1.690979-.1470032,3.4259644-.2210007,5.2039795-.2210007,3.0780029,0,6.9509888.3199997,11.6199951.9580002,1.5899658.1969986,2.4049683.2949982,2.4489746.2949982,1.4310303,0,2.342041-.663002,2.7319946-1.9899979M777.3897095,52.6332016c-.5630493,1.9169998-1.2600098,3.2929993-2.092041,4.1290016-.8309937.8359985-1.7009888,1.2529984-2.6119995,1.2529984-1.1279907,0-1.9489746-.7489967-2.4609985-2.2489967-.5130005-1.4980011-.5169678-3.1080017-.0099487-4.8280029.59198-2.0149994,1.4269409-3.637001,2.5039673-4.8659973,1.0759888-1.2280045,2.2000122-1.8430023,3.3710327-1.8430023,1.3009644,0,1.9719849.9580002,2.0159912,2.875.0429688,1.9169998-.1950073,3.7600021-.7160034,5.5289993M793.7796631,29.5222015c-.21698.072998-.5349731.1230011-.9539795.1470032-.4199829.0250015-.7369995.0369949-.9530029.0369949-.9689941.0490036-2.4790039.2460022-4.5310059.590004.9240112-2.8499985,1.6539917-4.9640045,2.1890259-6.340004l3.96698,4.2020035c.0579834.098999.1989746.2460022.4229736.4420013.2230225.1969986.3070068.3939972.25.5899963-.0439453.1470032-.1739502.2580032-.3909912.3320007M842.376709,22.8502045c-.9470215-.5410004-1.7890015-.8110046-2.526001-.8110046-.7810059,0-1.7709961.3440018-2.9710083,1.0320053-2.125,1.1800003-4.1229858,2.1499939-5.9940186,2.9119949-1.8720093.7630005-3.1110229,1.1430054-3.7180176,1.1430054s-1.09198-.3440018-1.4530029-1.0330048c-.3759766-.784996-.6279907-1.1790009-.7579956-1.1790009-.1739502,0-.3189697.1970062-.43396.590004l-.3470459,1.4000015c-.7229614,3.6380005.0870361,5.4559937,2.4280396,5.4559937,1.3880005,0,3.0310059-.5769958,4.9329834-1.7329941,1.9000244-1.1539993,3.7390137-2.6170044,5.5170288-4.3860016.8519897-.8349991,1.5390015-1.2529984,2.0599976-1.2529984.3460083,0,.6170044.2210007.8129883.6629944.1950073.4420013.2199707.9100037.0750122,1.401001-.0859985.2950058-.2530518.602005-.4980469.9210052-.2469482.3209991-.5959473.7009964-1.052002,1.1429977-.4549561.4420013-.8339844.810997-1.1380005,1.1060028l-2.8619995,2.875c-.9249878.9339981-3.4759521,3.4899979-7.6519775,7.666996-4.1779785,4.1779976-7.7329712,7.6430016-10.6669922,10.3950005-2.8759766,2.7029991-5.065979,4.8779984-6.5690308,6.5240021-1.5039673,1.6469955-2.4569702,3.1579971-2.8609619,4.5339966-.21698.7369995-.2210083,1.3759995-.0120239,1.9170017.2089844.5409985.7050171.8109989,1.4860229.8109989.4769897,0,.9680176-.1959991,1.473999-.5900002.5059814-.3929996,1.1010132-1.0200005,1.7879639-1.8799973.6860352-.8590012,1.1950073-1.4860001,1.5290527-1.8800011,3.8009644-4.6690025,7.157959-7.9730034,10.0700073-9.9150009,2.9119873-1.9409981,5.7559814-2.9119987,8.5309448-2.9119987,2.9920044,0,5.3510132.8969994,7.0790405,2.6899986,1.7249756,1.795002,2.0269775,4.6079979.8989868,8.4420013-.7509766,2.5559998-2.1530151,4.8899994-4.2059937,7.0029984-2.052002,2.1140003-4.3359985,3.7600002-6.8500366,4.9390011.0130005-2.4070015-.5289917-4.25-1.6269531-5.5290012-1.0980225-1.2770004-2.5150146-1.9169998-4.2490234-1.9169998-1.5180054,0-3.0100098.5050011-4.4760132,1.512001-1.4679565,1.0079994-2.4459839,2.3470001-2.9379883,4.0179996-.5930176,2.0149994-.1480103,3.6000004,1.3330078,4.7549992,1.4819946,1.1550007,3.3699951,1.7320004,5.6699829,1.7320004,2.7310181,0,5.5570068-.6509991,8.4760132-1.9529991s5.5280151-3.1340008,7.8270264-5.493c2.2969971-2.3590012,3.8949585-5.0609989,4.789978-8.1089993.9259644-3.1450005,1.0120239-5.7989998.2609863-7.9620018-.7520142-2.1619987-2.0599976-3.7600021-3.9240112-4.7919998-1.8649902-1.0319977-3.9899902-1.5480003-6.3739624-1.5480003-3.6860352,0-7.7540283,1.3760033-12.2050171,4.1280022,6.690979-6.9780045,13.8590088-13.2200012,21.5050049-18.7249985,1.3010254-.8850021,2.132019-1.9410019,2.4940186-3.1700058.2890015-.9819946.151001-1.9169998-.4120483-2.8009949-.5639648-.8850021-1.3189697-1.5970001-2.2649536-2.1380005M824.3496704,72.0952034c-.6369629.0999985-1.1489868.1479988-1.539978.1479988-1.4299927,0-2.6589966-.355999-3.6849976-1.0690002-1.026001-.7119999-1.4020386-1.5349998-1.1279907-2.4699993.1740112-.5890007.5169678-1.0930004,1.0299683-1.5109997.5140381-.4169998,1.1600342-.6270008,1.94104-.6270008,1.4309692,0,2.3869629.5419998,2.8719482,1.6219997.4840088,1.0820007.6540527,2.3850002.5100098,3.9070015M864.0116577,65.8292027c-.3259888-1.4740009-1.0119629-2.6410007-2.0599976-3.5010014-1.0479736-.8600006-2.3309937-1.2910004-3.8479614-1.2910004-1.5180054,0-3.0650024.4309998-4.6390381,1.2910004-1.5769653.8600006-2.9599609,2.0270004-4.1519775,3.5010014-1.1929932,1.4750004-2.0419922,3.073-2.5479736,4.7919998-.5200195,1.7689991-.618042,3.3910007-.2919922,4.8659992.3249512,1.4740009,1.0219727,2.6410007,2.09198,3.5020008,1.0700073.8590002,2.3619995,1.29,3.8809814,1.29,1.5170288,0,3.0529785-.4309998,4.6060181-1.29,1.5549927-.8610001,2.927002-2.0279999,4.1199951-3.5020008,1.190979-1.4749985,2.0479736-3.0970001,2.5689697-4.8659992.5060425-1.7189999.5950317-3.3169994.2709961-4.7919998M862.1796875,70.6212025c-.6359863,2.1639996-1.8510132,4.0060005-3.6420288,5.5289993-1.7929688,1.5230007-3.6429443,2.2860012-5.5499878,2.2860012-1.9089966,0-3.3109741-.7630005-4.2059937-2.2860012-.8969727-1.5229988-1.026001-3.3649998-.3900146-5.5289993.6210327-2.1119995,1.8280029-3.9309998,3.6199951-5.4549999,1.7910156-1.5229988,3.6420288-2.2859993,5.5500488-2.2859993,1.9069824,0,3.30896.7630005,4.2059937,2.2859993.8949585,1.5240002,1.032959,3.3430004.4119873,5.4549999"/>
          </g>
        </g>
      </g>
    </g>
  </g>
</svg>