<?xml version="1.0" encoding="UTF-8"?>
<svg id="_レイヤー_2" data-name="レイヤー 2" xmlns="http://www.w3.org/2000/svg" width="588" height="175.3580017" xmlns:xlink="http://www.w3.org/1999/xlink" viewBox="0 0 588 175.3580017">
  <defs>
    <style>
      .cls-1 {
        fill: none;
      }

      .cls-2 {
        clip-path: url(#clippath-1);
      }

      .cls-3 {
        clip-path: url(#clippath-3);
      }

      .cls-4 {
        clip-path: url(#clippath-4);
      }

      .cls-5 {
        clip-path: url(#clippath-2);
      }

      .cls-6 {
        fill: #fff;
      }

      .cls-7 {
        opacity: .899994;
      }

      .cls-8 {
        fill: url(#_名称未設定グラデーション);
      }

      .cls-9 {
        clip-path: url(#clippath);
      }
    </style>
    <clipPath id="clippath">
      <rect class="cls-1" width="588" height="175.3580017"/>
    </clipPath>
    <clipPath id="clippath-1">
      <rect class="cls-1" width="588" height="175.3580017"/>
    </clipPath>
    <clipPath id="clippath-2">
      <rect class="cls-1" width="588" height="175.3580017"/>
    </clipPath>
    <clipPath id="clippath-3">
      <rect class="cls-1" width="588" height="175.3580017"/>
    </clipPath>
    <clipPath id="clippath-4">
      <polygon class="cls-1" points="533.9099731 175.3580017 0 175.3580017 54.0900002 0 588 0 533.9099731 175.3580017"/>
    </clipPath>
    <linearGradient id="_名称未設定グラデーション" data-name="名称未設定グラデーション" x1="5254.0493197" y1="2759.3871463" x2="5255.0493197" y2="2759.3871463" gradientTransform="translate(-3089381 1622607.3209991) scale(588 -588)" gradientUnits="userSpaceOnUse">
      <stop offset="0" stop-color="#a1d280"/>
      <stop offset="1" stop-color="#2095a2"/>
    </linearGradient>
  </defs>
  <g id="_コンテンツ" data-name="コンテンツ">
    <g id="_アートワーク_7" data-name="アートワーク 7">
      <g class="cls-9">
        <g class="cls-2">
          <g class="cls-5">
            <g class="cls-7">
              <g class="cls-3">
                <g class="cls-4">
                  <rect class="cls-8" width="588" height="175.3580017"/>
                </g>
              </g>
            </g>
            <path class="cls-6" d="M113.842926,44.4680023c-2.0570068-1.3069916-4.6040039-1.9609985-7.6400146-1.9609985-2.7299805,0-5.5679932.5019989-8.5149841,1.5039978.5249939-1.394989,1.3379822-3.4420013,2.4410095-6.144989,3.6519775-1.0460052,6.3619995-2.026001,8.1309814-2.9410095,1.5890198-.8279877,2.7489929-1.5039978,3.4790039-2.0269928.730011-.5220032,1.1600037-1.0010071,1.2879944-1.4380035.2180176-.7400055-.2120056-1.1759949-1.2879944-1.3069916-1.3450012-.131012-2.7460022-.3700104-4.2000122-.7190094-1.4549866-.3479919-2.5279846-.7189941-3.2199707-1.1109924.1149902-.2610016.243988-.631012.3849792-1.1110077.2940063-1.0019989.4030151-1.6999969.3260193-2.0919952-.0760193-.522995-.5130005-.9690094-1.3070068-1.3399963-.7950134-.3700104-1.5180054-.5550079-2.1719971-.5550079-.5390015,0-1.1660156.173996-1.8840027.5220032-.7170105.3500061-1.1400146.7420044-1.2680054,1.177002-.026001.0879974.0629883.1419983.2690125.1629944.2039795.0230103.3959961.0559998.5759888.0980072.3970032.0879974.776001.3059998,1.1350098.6539917.3580017.348999.5820007.8280029.6729736,1.4380035.0500183.348999-.0969849,1.1110077-.4429932,2.2879944-.447998,1.526001-1.0950012,3.3330078-1.940979,5.4250031-1.4869995.348999-2.8840027.6210022-4.1910095.8170013s-2.1530151.2940063-2.5370178.2940063c-1.3839722,0-2.7679749-.5880127-4.1519775-1.7649994-.1540222-.1300049-.3269958-.1950073-.5190125-.1950073-.3079834,0-.5119934.173996-.6149902.5220032-.0509949.1750031-.0130005.5019989.1149902.9810028.2430115.871994.9259949,1.7220001,2.0480042,2.548996,1.1199951.8280029,2.2390137,1.2420044,3.3540039,1.2420044.8450012,0,2.4989929-.2610016,4.9589844-.7840118-.6799927,1.6560059-1.5639954,3.8790131-2.6529846,6.6670074-3.0750122,1.4380035-6.1060181,3.3769989-9.0920105,5.8170013-2.9859924,2.4409943-5.5650024,5.0659943-7.7369995,7.8769989-2.1719971,2.8099976-3.6229858,5.4580002-4.3529968,7.9409943-.5769958,1.9610062-.6350098,3.5630035-.1730042,4.8050079.4609985,1.2419968,1.5570068,1.8619995,3.2870178,1.8619995,1.3450012,0,3.0529785-.576004,5.1219788-1.7320023,2.0700073-1.1529999,4.5200195-3.0820007,7.3529968-5.7840042-.0379944.9150085.0190125,1.8300018.1730042,2.7450027.0760193.3920059.2330017.7090073.4710083.9480057.2369995.2399979.5280151.3589935.8739929.3589935.3840027,0,.7749939-.1519928,1.1730042-.4570007.3970032-.3049927.6849976-.7619934.8649902-1.3730011.2050171-.6959991.2490234-1.6989975.1340027-3.0069962-.0639954-.6959991-.0390015-1.6989975.0780029-3.0060043,5.3560181-5.6649933,8.6490173-10.5899963,9.8800049-14.772995.2690125-.9150085.45401-1.8730011.5570068-2.8760071.3200073-.0429993.730011-.0649872,1.2309875-.0649872,2.4210205,0,4.4779968.5549927,6.1700134,1.6669922,1.6910095,1.1110001,2.8349915,2.7120056,3.4309998,4.8040009.5950012,2.0910034.4710083,4.576004-.375,7.451004-1.756012,5.970993-5.0299988,10.6009979-9.821991,13.8899994-4.7940063,3.2910004-10.5600281,5.4140015-17.3000183,6.3730011-.5650024.086998-.8970032.3049927-1,.6539917-.0899963.3050079.1340027.4580078.6730042.4580078,1.4859924-.0879974,2.7099915-.1970062,3.67099-.3270035,5.0740051-.6539993,9.5120239-1.9509964,13.3120117-3.8899994,3.7990112-1.9379959,6.8909912-4.314003,9.2739868-7.1240005,2.3840027-2.8110046,4.0559998-5.8499985,5.0169983-9.1179962,1.0510254-3.5730057,1.2390137-6.6350021.5670166-9.1840057-.6730042-2.548996-2.0379944-4.4779968-4.0950012-5.7850037M102.8969116,31.7870026l.6540222-1.4379883c.664978.4799957,1.2550049.8289948,1.7680054,1.04599.6529846.2610016.9349976.5449982.8459778.8500061-.0390015.1309967-.144989.2610016-.3179932.3919983s-.3240051.2180023-.4509888.2610016c-.8850098.3930054-2.1090088.8289948-3.6719971,1.3079987l1.1729736-2.4190063ZM90.670929,56.4950104c-.6149902,2.0919952-1.0570068,3.8559952-1.3260193,5.2939987-2.4349976,2.2669983-4.7669983,4.1189957-6.9969788,5.5569992-2.230011,1.4380035-3.8829956,2.1569977-4.9590149,2.1569977-.6149902,0-.9839783-.2829971-1.1049805-.8499985-.1220093-.5660019-.0420227-1.3290024.2399902-2.288002.6789856-2.3089981,2.1749878-4.8799973,4.4880066-7.7129974,2.3129883-2.8320007,4.9880066-5.4250031,8.0249939-7.7779999,1.1929932-.9150009,2.70401-1.9389954,4.5369873-3.0719986-1.0509949,2.7890015-2.0189819,5.685997-2.9029846,8.6930008M101.3979187,45.9060059c-.8840027,3.0070038-3.1789856,6.5590057-6.8819885,10.654007l-1.0190125,1.1119995c.3460083-1.5690002.7749939-3.2250061,1.2879944-4.9680023.7050171-2.3960037,1.4219971-4.576004,2.1530151-6.5359955,1.5759888-.654007,3.1520081-1.1120148,4.7290039-1.3730011-.0270081.2179871-.1159973.5879974-.2690125,1.1109924M134.0569153,51.0370102c-3.21698,5.1209946-5.8129883,9.2060013-7.7850037,12.2559967-.3469849.5230026-.7929993.9589996-1.3359985,1.3069992-.5449829.348999-1.0289917.5230026-1.4519958.5230026-.4989929,0-.7749939-.3040009-.8259888-.9150009-.0509949-.6100006.0570068-1.3730011.3269958-2.2879944.1409912-.4790039.2650146-.8059998.3739929-.9800034.1090088-.1740036.3099976-.4350052.6060181-.7840042.6789856-.871994,1.2739868-1.6559982,1.7869873-2.3539963,1.1929932-1.6989975,2.5889893-3.5719986,4.1910095-5.6210022,2.21698-2.9629974,4.1000061-5.5449905,5.651001-7.7459946,1.5499878-2.1999969,2.9859924-4.4329987,4.3069763-6.6999969-.9499817.2189941-1.7119751.3269958-2.2879944.3269958-1.6149902,0-2.8009949-.4130096-3.5559998-1.2420044-.7569885-.8269958-1.2309875-1.7649994-1.4230042-2.8099976-.1289978-.4790039-.1339722-.9150085-.0189819-1.3079987.0769958-.2610016.2109985-.3919983.4039917-.3919983.1530151,0,.3580017.2189941.6149902.6539917.5760193.9150085,1.8250122,1.3720093,3.7480164,1.3720093,1.1529846,0,2.7489929-.326004,4.7869873-.980011.3710022-.7409973.697998-1.5899963.980011-2.548996.4100037-1.3939972.4859924-2.5059967.230011-3.3339996-.1540222-.522995-.4620056-.947998-.9220276-1.2740021-.4619751-.3269958-.6729736-.5559998-.6349792-.6869965.0509949-.1730042.2210083-.3269958.5099792-.4570007.2880249-.1309967.605011-.1970062.9510193-.1970062.5379944,0,1.0440063.1100006,1.5189819.3270111,1.0250244.4369965,1.6910095.9810028,1.9990234,1.6349945.3069763.6529999.3139954,1.4810028.0189819,2.4839935-.2559814.8720093-.6600037,1.7870026-1.2109985,2.7450104l1.2109985-.5890045c.3720093-.2169952.7019958-.423996.9900208-.6199951.2890015-.1970062.4579773-.3820038.5090027-.5559998.0519714-.173996-.0510254-.4140015-.3070068-.7190094-.1159973-.1309967-.2920227-.2829895-.5280151-.4579926-.2380066-.1730042-.3370056-.326004-.2989807-.4570007.052002-.173996.25-.2619934.5959778-.2619934l2.0570068.0659943c.2690125,0,.625-.0659943,1.0670166-.1959991.4419861-.1309967.8359985-.1959991,1.1819763-.1959991.5380249,0,.9160156.1849976,1.1340027.5549927.2180176.3710022.2430115.8399963.0769958,1.4049988-.1279907.4360046-.3529968.8730011-.6729736,1.3079987-.3200073.4360046-.6910095.7840118-1.1150208,1.0460052-2.8829956,1.8300018-5.7349854,3.2900085-8.553009,4.3789978-2.71698,4.4020081-5.6849976,9.1620026-8.8999939,14.2820053M167.7819214,37.8330078c-.8399963-1.3280029-1.8169861-2.3200073-2.9309998-2.973999-.3599854-.2169952-.8049927-.4020081-1.3370056-.5549927-.5310059-.1520081-.9509888-.2290039-1.2590027-.2290039-.2689819,0-.4159851.0439911-.440979.1309967-.026001.0879974.0439758.2400055.2109985.4570007.4360046.4799957.822998,1.0899963,1.1629944,1.8300018.3389893.7420044.4320068,1.3730011.2789917,1.8959961-.1799927.6110077-.6669922,1.0240021-1.4609985,1.2420044-2.8850098.9149933-5.1419983,1.9940033-6.776001,3.2359924-1.6340027,1.2409973-2.9089966,2.7350006-3.8249817,4.477005-.9170227,1.7429962-1.8170166,4.1179962-2.7010193,7.125-.4750061,1.6119995-1.2819824,4.8150024-2.4219971,9.6080017-.8720093-.1730042-1.7689819-.2610016-2.6910095-.2610016-2.8459778,0-5.4299927.6210022-7.7559814,1.862999-2.3260193,1.2419968-3.8160095,2.973999-4.4689941,5.1959991-.4360046,1.4820023-.401001,2.7679977.1049805,3.8570023.506012,1.0899963,1.3160095,1.9279938,2.4320068,2.5159988,1.1149902.5889969,2.3250122.8830032,3.6329956.8830032,2.1520081,0,4.2220154-.6650085,6.2080078-1.9940033s3.3190002-3.1470032,3.9989929-5.4580002c.2180176-.7399979.3569946-1.284996.4230042-1.6339951,1.6400146.697998,3.1520081,1.6999969,4.5360107,3.0069962.6019897.5669937,1.0859985.9800034,1.4509888,1.2419968.3649902.2610016.7210083.3919983,1.0679932.3919983.4219971,0,.82901-.1729965,1.2200012-.522995.3909912-.3479996.6560059-.762001.7980042-1.2420044.230011-.7839966.0629883-1.6549988-.5-2.6139984-.526001-.8280029-1.4869995-1.6449966-2.8829956-2.4519958-1.3980103-.8050079-2.9550171-1.4920044-4.6719971-2.0590057.1919861-.9149933.4429932-2.2879944.75-4.1179962.8200073-4.6179962,1.5960083-8.1699982,2.3259888-10.6539993.7940063-2.7009964,1.9380188-4.7280045,3.4309998-6.0790024,1.4930115-1.3500061,3.105011-2.026001,4.8349915-2.026001.5370178,0,.9770203.1090088,1.3160095.3269958.3399963.2180023.7140198.5450134,1.125.980011.3710022.4359894.7010193.7519989.9899902.947998.2880249.1959991.6430054.2939911,1.0660095.2939911.6929932,0,1.3900146-.2829895,2.0960083-.8499908.70401-.5660095,1.1719971-1.2420044,1.4029846-2.026001.3460083-1.177002.098999-2.4290009-.7399902-3.7590027M142.638916,72.9340057c-1.0449829,1.1990051-2.6820068,1.7980042-4.9109802,1.7980042-1.4230042,0-2.5660095-.3270035-3.4309998-.9810028-.8659973-.6529999-1.1180115-1.5899963-.7590027-2.8099976.3459778-1.177002,1.2039795-2.0699997,2.5749817-2.6800003s2.9219971-.9150009,4.6520081-.9150009c1.4609985,0,2.9419861.1959991,4.4410095.5879974-.6679993,2.1350021-1.5220032,3.802002-2.5670166,5M198.9309387,36.0360107c.1409912-.4790039.098999-.8269958-.125-1.0460052-.2240295-.2180023-.625-.4570007-1.2010193-.7189941-.9620056-.3919983-1.6029968-.6970062-1.9219971-.9150085-.6289978-.4789886-1.2260132-1.197998-1.7879944-2.1569977.230011-.522995.3710022-.8710022.4219971-1.04599.2950134-1.0020142.3009949-1.7420044.019989-2.2220001-.2819824-.4790039-.776001-.9580078-1.4799805-1.4380035-.4240112-.2620087-.9460144-.4790039-1.5670166-.654007-.6219788-.173996-1.1439819-.2619934-1.565979-.2619934-.5010071,0-.7890015.1309967-.8650208.3929901-.0650024.2180023.0240173.4360046.2690125.6529999.8320007.82901,1.3259888,1.5360107,1.4799805,2.125.1530151.5880127.0310059,1.5580139-.3659973,2.9080048-.1919861.654007-.4289856,1.3300018-.7109985,2.0270081-.9869995,2.4409943-1.8259888,4.4449921-2.5179749,6.0130005-1.5250244.6109924-2.8770142,1.0899963-4.0560303,1.4379883-1.3959961.4370117-2.6339722.654007-3.7099915.654007-1.1529846,0-2.1589966-.2389984-3.0180054-.7190094-.3199768-.2179871-.5769958-.3269958-.7679749-.3269958-.2310181,0-.3850098.131012-.4620056.3919983-.0639954.2190094-.007019.480011.1739807.7850037,1.2669983,2.0919952,2.7860107,3.1369934,4.5550232,3.1369934,1.3840027,0,3.17099-.3259888,5.3629761-.9799957-4.8059998,10.4580078-9.9449768,19.5660095-15.4159851,27.3220062-.5140076.697998-.8649902,1.3730011-1.0580139,2.026001-.2559814.8730011-.2269897,1.5589981.0870056,2.0599976.3139954.5.7780151.7509995,1.3930054.7509995.5,0,1.0289917-.2939987,1.5859985-.8819962.5570068-.5890045,1.2590027-1.602005,2.105011-3.0400085,1.2550049-2.1779938,6.0859985-12.0039978,14.493988-29.4789886,2.894989-1.2200012,5.8430176-2.8110046,8.8420105-4.7720032,1.0119934-.6959991,1.6139832-1.3720093,1.8070068-2.026001M194.2019348,35.4470062c-.1790161.6119995-1.3850098,1.5039978-3.6140137,2.6809998l1.1920166-2.4839935,1.5379944-3.2680054c.3710022.8280029.6369934,1.4600067.7980042,1.8950043.1599731.4359894.1879883.8280029.0859985,1.1759949M208.3109131,72.3790131c.1530151.3919983.1540222.848999,0,1.371994-.3329773,1.1340027-1.125,1.8959961-2.3739929,2.288002-1.25.3919983-2.855011.5879974-4.8150024.5879974-4.0749817,0-7.1799927-.8169937-9.3129883-2.4509964-2.1340027-1.6340027-2.6620178-4.2810059-1.5859985-7.9410019.242981-.8279953.5339966-1.5909958.875-2.288002.3389893-.6969986.6049805-1.177002.7980042-1.4389954.2809753-.4340057.5690002-.8270035.8649902-1.1760025.2940063-.3479996.5369873-.5230026.730011-.5230026.1529846,0,.1859741.1529999.0959778.4580078l-.4609985,1.1759949c-.1289978.3059998-.25.6539993-.3649902,1.0460052-.2569885.871994-.3859863,1.8299942-.3850098,2.8759918,0,1.0460052.2950134,2.0050049.8840027,2.8760071.473999.7419968,1.3040161,1.3509979,2.4890137,1.8309937,1.1860046.4790039,2.6430054.7180023,4.3739929.7180023.4219971,0,1.4670105-.0870056,3.1329956-.2610016.5500183-.0429993,1.0630188-.086998,1.5379944-.1309967.4730225-.0429993.8640137-.0650024,1.1730042-.0650024,1.4210205,0,2.2030029.348999,2.3439941,1.0460052M218.565918,41.3300018c.1719971.9160004.1700134,1.6790009-.0099792,2.2880096-.256012.871994-1.1910095,1.5039978-2.8059998,1.8959961-.7430115.173996-1.3140259.2839966-1.710022.3269958-.6029968.0880127-1.3459778.2610016-2.2299805.5220032-.6410217.2189941-1.3650208.5230103-2.1730042.9160004-.8070068.3919983-1.428009.7409973-1.8640137,1.0449982-.3209839.1750031-.5769958.262001-.7689819.262001-.1930237,0-.2630005-.086998-.2109985-.262001.0639954-.2169952.2299805-.4570007.4989929-.7189941.2559814-.2170029.9159851-.6959991,1.9799805-1.4369965,2.6270142-1.7430115,4.0559998-3.0070038,4.2870178-3.7920074.1279907-.4349976-.0130005-.8710022-.4230042-1.3070068-.6409912-.6959839-1.3779907-1.197998-2.2109985-1.5029907-.8330078-.3050079-1.6149902-.4580078-2.3450012-.4580078-.4609985,0-.855011.0330048-1.1820068.0980072s-.5099792.0980072-.5480042.0980072c-.5390015,0-.7559814-.1740112-.6529846-.5230103.0889893-.3040009.4150085-.5659943.9799805-.7839966,1.5510254-.5659943,3.0760193-.8500061,4.5750122-.8500061,1.2690125,0,2.3989868.1750031,3.3930054.5230103.9930115.348999,1.7510071.8069916,2.2770081,1.3730011.5889893.6100006.9709778,1.371994,1.1439819,2.2869873M260.9319153,32.6700134c-2.7869873-1.5039978-5.7769775-2.256012-8.96698-2.256012-3.9210205,0-7.9640198,1.003006-12.1289978,3.0070038-4.1650085,2.0050049-7.8850098,4.848999-11.1590271,8.5310059-3.2739868,3.6819916-5.6029968,7.8759995-6.9869995,12.5820007-.8069763,2.7449951-1.2279968,5.3819962-1.2589722,7.9089966-.03302,2.5279999.3299866,4.5650024,1.0859985,6.1119995.7559814,1.5469971,1.8259888,2.3199997,3.2099915,2.3199997.9230042,0,2.3569946-.7289963,4.3059998-2.1899948,1.946991-1.4589996,4.1579895-3.6160049,6.6309814-6.4700012,2.4730225-2.8540039,4.9150085-6.2200012,7.3240051-10.098999,2.6140137-4.1840057,4.3950195-7.8870087,5.3430176-11.1130066.3849792-1.3069916.6789856-2.7659912.8849792-4.3789978.2050171-1.6110077.2230225-2.9839935.0580139-4.1179962.3190002-.0429993.8070068-.0650024,1.4609985-.0650024,2.92099,0,5.526001.6860046,7.8139954,2.0590057,2.2860107,1.3729858,3.8649902,3.5519867,4.7380066,6.5359955.8699951,2.9859924.6269836,6.7879944-.7309875,11.4059982-1.9860229,6.7549973-5.5810242,11.9840012-10.7840271,15.6879959-5.2029724,3.7040024-11.2829895,6.2100067-18.2409973,7.5169983-1.6279907.3050079-2.4799805.5880051-2.5569763.8500061-.0640259.2169952.1729736.3269958.7119751.3269958,2.8050232,0,6.4520264-.534996,10.9370117-1.6019974,4.4840088-1.0670013,9.0880127-3.3880005,13.8110046-6.9609985,4.7210083-3.5730057,8.0830078-8.7590027,10.0820007-15.5569992,1.5239868-5.1849976,1.6719971-9.4450073.4419861-12.779007-1.2309875-3.3339996-3.2389832-5.7519989-6.026001-7.2549896M247.4469299,37.7350159c-.9349976,3.1819916-2.3260193,6.3729858-4.1710205,9.5759888-1.8449707,3.2030029-4.4009705,6.7000046-7.6689758,10.4910049-1.7050171,2.0049973-3.460022,3.8239975-5.2669983,5.4580002-1.8070068,1.6340027-3.1910095,2.4519958-4.1520081,2.4519958-.4230042,0-.8590088-.4140015-1.3070068-1.2419968-.4490051-.8279953-.6959839-2.114006-.7399902-3.8570023-.0460205-1.7429962.3169861-3.9219971,1.0859985-6.5359955,1.1399841-3.8790054,2.9339905-7.3639984,5.3819885-10.4589996,2.4470215-3.0930023,5.2279968-5.5890045,8.3420105-7.4840088,3.1139832-1.8959961,6.2349854-3.0609894,9.3619995-3.496994-.0130005,1.4819946-.302002,3.1809998-.8659973,5.0980072M302.691925,23.4200134h-16.7810059l-14.7049866,50.0039978h-2.5950012l15.5699768-52.9450073h19.3760376l-.8650208,2.9410095ZM347.2679443,58.6190109c.473999.8069992.6659851,1.362999.5769653,1.6669998-.3589783.697998-.9419861,1.0459976-1.7489929,1.0459976h-21.7409973l-3.9019775,13.2690048c-.4089966,1.3939972-.8910217,2.5049896-1.44104,3.3329926-.5519714.8280029-1.3779907,1.5140076-2.4799805,2.0599976-1.1029968.5440063-2.6279907.9250031-4.5750122,1.1440048.1150208-.784996.132019-1.4280014.0480347-1.9290009-.0830078-.5009995-.3040161-.9260025-.6630249-1.2750015-.7819824-.7409973-2.5249939-1.3509979-5.2290039-1.8289948l.2890015-.9810028c4.8049927.3919983,7.6500244.5879974,8.5339966.5879974.5380249,0,.9420166-.0979919,1.2109985-.2939987.2690125-.1959991.4880066-.5770035.6539917-1.1439972l3.8060303-12.9420013h-13.7820129c-2.743988.0439987-5.7160034.348999-8.9189758.9150009l-.5-3.3990021c2.0369873.262001,4.5429688.4360046,7.5159912.5230026h16.2619934c.8710022-2.9630051,1.446991-5.3810043,1.730011-7.2549973l3.2479858.7189941c3.4339905-2.5270004,6.2479858-4.7720032,8.4389954-6.7330017h-14.0130005c-2.7430115.0440063-5.7160034.348999-8.9189758.9150085l-.5770264-3.3330078c2.0369873.2610016,4.5429993.4360046,7.5159912.522995h17.4150085l1.6139832-1.5690002c.2050171-.173996.5350342-.4789886.9910278-.9149933.4539795-.4349976.7979736-.654007,1.0280151-.654007.3459778,0,.855957.7190094,1.5279846,2.1570129.6730042,1.4379883.9389954,2.3970032.7980042,2.8759918-.2950134.2190094-.6279907.3710022-1,.4580078-.3710022.0879974-.8909912.1529999-1.5560303.1959991-2.3969727,1.7429962-6.1139832,3.8559952-11.1489868,6.3399963l.3270264.0650024c-.3850098.9160004-1.1610107,1.4609985-2.3270264,1.6349945l-1.3449707,4.5750046h15.2809753l1.8650208-2.026001c.1659851-.1740036.4449768-.4680023.8369751-.8830032.3900146-.4129944.7009888-.7189941.9320068-.9149933.2299805-.1960068.4219971-.2940063.5759888-.2940063.2310181,0,.6440125.3600006,1.2399902,1.0790024.5960083.7190018,1.1300049,1.4809952,1.6050415,2.2870026M352.7269287,37.8010101c-1.2689819,1.1759949-2.8320007,2.4729919-4.6900024,3.8889923s-3.5559998,2.5820007-5.0939941,3.4970093l-.4230042-.5230103c2.2939758-2.9629974,4.144989-5.5339966,5.5549927-7.7129974h-36.5599976c-.5769958,2.0920105-1.3909912,3.9120026-2.4410095,5.4580078-1.052002,1.5469971-2.1279907,2.6909943-3.2290039,3.4319916-1.0130005.6970062-1.9039917,1.0450134-2.6719971,1.0450134-.769989,0-1.2309875-.326004-1.3839722-.980011-.0130005-.3479919.0249634-.6750031.1149902-.9810028.2949829-1.0009918,1.0310059-1.8730011,2.2099915-2.6139984,1.4869995-.8710022,2.9410095-2.3860016,4.3639832-4.5429993,1.4219971-2.1569977,2.3960266-4.4550018,2.9219971-6.8959961l.9990234-.0650024c-.0769958,1.6990051-.2299805,3.1370087-.4609985,4.3139954h24.7390137c.2299805-.2619934.5059814-.5769958.8259888-.947998.3200073-.368988.6849976-.7949982,1.0960083-1.2749939,1.5379639-1.8300018,3.1069946-3.8990021,4.7099915-6.2089996,1.6009827-2.3099976,2.8500061-4.3359985,3.7480164-6.0789948,1.8699951.9589996,3.1549683,1.6889954,3.8539734,2.1899872.696991.5010071,1.0090027.8820038.9320068,1.1430054-.0509949.1750031-.2890015.3269958-.7109985.4579926l-1.1919861.3270111c-1.5250244,1.6559906-3.3130188,3.42099-5.3630371,5.2939911-2.0499878,1.875-4.0879822,3.5740051-6.1129761,5.098999h10.2070007l1.5379944-1.5029907c.2039795-.173996.5339966-.480011.9899902-.9160004.45401-.4349976.7980042-.6529999,1.0280151-.6529999.2310181,0,.5960083.3589935,1.0960083,1.0780029.5.7189941.9349976,1.4929962,1.3070068,2.3199921.3709717.8289948.5130005,1.3959961.4229736,1.6999969-.269989.2620087-.5669861.4250031-.8939819.4900055-.3270264.0659943-.8049927.1210022-1.4320068.1640015M330.6219177,26.9830017c-.2059937-2.1129913-.6409912-3.9319916-1.3069763-5.4579926l.8259888-.4580078c2.0889893,1.3950043,3.4599915,2.9420013,4.1140137,4.6410065.6529846,1.6999969.7559814,3.3130035.3079834,4.8370056-.2700195.9149933-.684021,1.6669922-1.2409973,2.2549896-.5570068.5890045-1.1239929.8830109-1.7010193.8830109-.5759888,0-1.0509644-.2830048-1.4219971-.8500061.4860229-1.7859955.6270142-3.7359924.4230042-5.8500061M318.4729309,27.8980103c-.4230042-2.026001-1.0190125-3.7579956-1.7870178-5.1959991l.7690125-.4580078c2.3699951,1.2200012,3.9519958,2.6699982,4.7469788,4.3470001.7940063,1.678009.973999,3.2580109.5390015,4.7389984-.243988.8280029-.6219788,1.4930115-1.1339722,1.9930115-.5140076.5019989-1.0390015.7519989-1.5770264.7519989-.5,0-.9359741-.2170105-1.3059692-.654007.2559814-1.6549988.1719971-3.496994-.2510071-5.522995M405.5109253,27.3420105c-.3079834-.9150085-.6610107-1.6110077-1.0570068-2.0910034-.3980103-.4790039-1.0319824-1.0019989-1.9030151-1.5690002-.2949829-.173996-.5549927-.3040009-.7789917-.3919983-.223999-.0870056-.401001-.173996-.5289917-.2619934-.1279907-.0860138-.1719971-.1960144-.1340027-.326004.1280212-.4360046.8650208-.654007,2.2110291-.654007.8069763,0,1.7299805.1630096,2.7679749.4900055,1.0370178.3269958,1.8860168.8399963,2.5469971,1.5359955.6589966.697998.822998,1.6130066.4900208,2.7460022-.1800232.6100006-.4810181,1.0449982-.9040222,1.3070068-.4230042.2610016-.8069763.3919983-1.1529846.3919983-.7310181,0-1.25-.3919983-1.5570068-1.177002M396.7839355,51.1350098c.6399841.697998.8200073,1.526001.5379944,2.4840012-.3720093,1.2639999-1.0960083,1.8959961-2.1720276,1.8959961-.8449707,0-1.5509644-.348999-2.1139832-1.0459976-1.3329773-1.7420044-2.3429871-3.572998-3.0279846-5.4909973-.6860046-1.9170074-1.2600098-4.5100098-1.7200317-7.7779999l-.2689819,1.6989899c-.3590088,2.3970032-.6829834,4.3140106-.9710083,5.7520065-.2890015,1.4379959-.6439819,2.8759995-1.0669861,4.314003-1.1919861,4.0529938-2.8249817,7.9420013-4.901001,11.6679993s-4.6849976,6.8419952-7.8240051,9.3470001c-3.1400146,2.5049973-6.6900024,3.7590027-10.6489868,3.7590027-2.730011,0-4.9620056-.677002-6.6990051-2.0270081-1.7359924-1.3499985-2.8379822-3.223999-3.3059998-5.6210022-.4680176-2.3959961-.2470093-5.1419983.6629944-8.2359924,1.0890198-3.7030029,3.1210022-7.6690063,6.0939941-11.8960037s6.5279846-8.409996,10.6679993-12.5499954c-1.743988.9589996-3.3829956,1.4380035-4.92099,1.4380035-.9609985,0-1.8780212-.348999-2.7489929-1.0460052-.4100037-.3050079-.7120056-.8829956-.9030151-1.7319946-.1929932-.8500061-.2379761-1.4490051-.1350098-1.7980042.026001-.0870056.0760193-.1300049.1540222-.1300049.0759888,0,.1440125.0319977.2019958.0970001.0579834.0660095.1560059.1210022.2980042.1640015.1399841.0440063.5190125.1959991,1.1340027.4570007.6149902.2619934,1.3269958.3930054,2.1339722.3930054,1.3450317,0,2.6680298-.2830048,3.9690247-.8500061,1.2999878-.5659943,2.7579956-1.3070068,4.3730164-2.2230072,1.2559814-.7399902,2.0369873-1.1109924,2.3449707-1.1109924,1.0380249,0,1.803009.2400055,2.2969971.7189941.4930115.480011.6690063.9589996.5289917,1.4380035-.0639648.2190094-.2729797.4360046-.625.654007-.3519897.2180023-.7339783.4359894-1.1429749.6539917-1.0899963.5660095-1.9040222,1.0449982-2.4419861,1.4380035-4.1010132,3.2250061-7.7180176,7.0590057-10.8510132,11.5039978-3.1329956,4.4440002-5.2890015,8.6720047-6.4680176,12.6809998-1.1529846,3.9210052-1.1950073,7.1029968-.125,9.5429993,1.0700073,2.4410019,3.3730164,3.6600037,6.9100037,3.6600037,4.5750122,0,8.6430054-2.0039978,12.2070007-6.0130005,3.5620117-4.0090027,6.4130249-9.6520004,8.553009-16.9300003,1.1409912-3.8779984,2.0569763-8.1700058,2.7489929-12.8770065l.4420166-3.2679901c.2949829-2.178009.5-3.4640045.6149902-3.8570099.2180176-.7399902.5249939-1.3609924.9230042-1.8619995.3970032-.5009918.8269958-.7519989,1.2879944-.7519989.6140137,0,1.0109863.2180023,1.1920166.654007.1779785.4360046.2199707.946991.1239624,1.5359955-.0959778.5879974-.3039856,1.6240082-.6239624,3.1049957-.7050171,3.4420013-.9810181,6.1110077-.8270264,8.0070038.1530151,1.8950043.6600037,3.4750061,1.5190125,4.7389984.8580017,1.2640076,2.3959961,3.029007,4.6130066,5.2940063M402.2719116,30.0220032c.8000183.8730011,1.0020142,1.9840088.605011,3.3339996-.1910095.654007-.5029907,1.1549988-.9319763,1.503006-.4290161.3500061-.8740234.522995-1.3360291.522995-.3840027,0-.7399902-.1299896-1.0669861-.3919983-.3259888-.2610016-.5090027-.6539917-.5469971-1.1759949-.1290283-1.1329956-.3600159-2.0810089-.6920166-2.8440094-.3339844-.7619934-.8779907-1.4269867-1.6339722-1.993988-.0650024-.0420074-.2540283-.1840057-.5670166-.4240112-.3150024-.2389984-.4390259-.4679871-.375-.6869965.0889893-.3040009.4420166-.4570007,1.0570068-.4570007.5769958,0,1.4349976.2180023,2.5759888.654007,1.1400146.4349976,2.1099854,1.0889893,2.9119873,1.9599915M444.5719299,72.3790131c.1529846.3919983.1529846.848999-.0010071,1.371994-.3330078,1.1340027-1.125,1.8959961-2.3739929,2.288002-1.2489929.3919983-2.8540039.5879974-4.8150024.5879974-4.0750122,0-7.1799927-.8169937-9.3130188-2.4509964-2.1339722-1.6340027-2.6619873-4.2810059-1.5859985-7.9410019.2430115-.8279953.5350037-1.5909958.875-2.288002.3390198-.6969986.605011-1.177002.7980042-1.4389954.2810059-.4340057.5690002-.8270035.8650208-1.1760025.2940063-.3479996.5369873-.5230026.7299805-.5230026.1530151,0,.1860046.1529999.0960083.4580078l-.4609985,1.1759949c-.1289978.3059998-.25.6539993-.3649902,1.0460052-.257019.871994-.3850098,1.8299942-.3850098,2.8759918,0,1.0460052.2949829,2.0050049.8840027,2.8760071.473999.7419968,1.3039856,1.3509979,2.4899902,1.8309937,1.1849976.4790039,2.6430054.7180023,4.3730164.7180023.4219971,0,1.46698-.0870056,3.1329956-.2610016.5509949-.0429993,1.0639954-.086998,1.5379944-.1309967.473999-.0429993.8649902-.0650024,1.1719971-.0650024,1.4219971,0,2.20401.348999,2.3460083,1.0460052M454.8259277,41.3300018c.1730042.9160004.1699829,1.6790009-.0090027,2.2880096-.2569885.871994-1.1919861,1.5039978-2.8070068,1.8959961-.7430115.173996-1.3139954.2839966-1.7099915.3269958-.6029968.0880127-1.3460083.2610016-2.230011.5220032-.6409912.2189941-1.3649902.5230103-2.1719971.9160004-.8079834.3919983-1.4299927.7409973-1.8649902,1.0449982-.3210144.1750031-.5769958.262001-.7690125.262001-.1929932,0-.2630005-.086998-.2109985-.262001.0640259-.2169952.230011-.4570007.4990234-.7189941.2569885-.2170029.9159851-.6959991,1.9809875-1.4369965,2.6260071-1.7430115,4.0559998-3.0070038,4.2859802-3.7920074.1280212-.4349976-.0130005-.8710022-.4229736-1.3070068-.6410217-.6959839-1.3770142-1.197998-2.210022-1.5029907-.8330078-.3050079-1.6149902-.4580078-2.3459778-.4580078-.4610291,0-.855011.0330048-1.1820068.0980072s-.5100098.0980072-.5469971.0980072c-.5390015,0-.7569885-.1740112-.6540222-.5230103.0890198-.3040009.4160156-.5659943.980011-.7839966,1.5509949-.5659943,3.0760193-.8500061,4.5750122-.8500061,1.2689819,0,2.3999939.1750031,3.3929749.5230103.9930115.348999,1.7520142.8069916,2.2780151,1.3730011.5889893.6100006.9700012,1.371994,1.1430054,2.2869873M435.190918,36.0360107c.1409912-.4790039.098999-.8269958-.125-1.0460052-.223999-.2180023-.625-.4570007-1.2009888-.7189941-.9620056-.3919983-1.6029968-.6970062-1.9230042-.9150085-.6279907-.4789886-1.223999-1.197998-1.7870178-2.1569977.230011-.522995.3720093-.8710022.4230347-1.04599.2939758-1.0020142.2999878-1.7420044.0189819-2.2220001-.2829895-.4790039-.776001-.9580078-1.4799805-1.4380035-.4240112-.2620087-.9460144-.4790039-1.5670166-.654007-.6220093-.173996-1.1440125-.2619934-1.5660095-.2619934-.5,0-.7890015.1309967-.8649902.3929901-.0650024.2180023.0249939.4360046.2690125.6529999.8319702.82901,1.3259888,1.5360107,1.4799805,2.125.1530151.5880127.0320129,1.5580139-.3649902,2.9080048-.1929932.654007-.4299927,1.3300018-.7120056,2.0270081-.9869995,2.4409943-1.8259888,4.4449921-2.5180054,6.0130005-1.5249939.6109924-2.8769836,1.0899963-4.0559998,1.4379883-1.3970032.4370117-2.6340027.654007-3.7099915.654007-1.1529846,0-2.1589966-.2389984-3.0169983-.7190094-.3210144-.2179871-.5769958-.3269958-.7690125-.3269958-.2309875,0-.3840027.131012-.4620056.3919983-.0639954.2190094-.0069885.480011.1740112.7850037,1.2669983,2.0919952,2.7869873,3.1369934,4.5549927,3.1369934,1.3840027,0,3.1719971-.3259888,5.3630066-.9799957-4.8049927,10.4580078-9.9450073,19.5660095-15.4159851,27.3220062-.5140076.697998-.8650208,1.3730011-1.0570068,2.026001-.257019.8730011-.2279968,1.5589981.0859985,2.0599976.3150024.5.7780151.7509995,1.3939819.7509995.4990234,0,1.0280151-.2939987,1.5859985-.8819962.5570068-.5890045,1.2580261-1.602005,2.105011-3.0400085,1.2550049-2.1779938,6.0859985-12.0039978,14.4930115-29.4789886,2.8959961-1.2200012,5.8429871-2.8110046,8.8429871-4.7720032,1.0119934-.6959991,1.6140137-1.3720093,1.8059998-2.026001M430.4629211,35.4470062c-.1799927.6119995-1.3849792,1.5039978-3.6149902,2.6809998l1.1929932-2.4839935,1.5370178-3.2680054c.3709717.8280029.6380005,1.4600067.7979736,1.8950043.1600037.4359894.1890259.8280029.0870056,1.1759949M472.2709351,56.2340088c.1159973,0,.1349792.1299973.0579834.3919983-.0639954.2180023-.2120056.5879974-.4419861,1.1110001-1.0390015,2.2220001-1.8260193,4.2490005-2.3650208,6.0790024-.190979.6539993-.3549805,1.2740021-.4899902,1.862999-.1350098.5880051-.2340088,1.0569992-.2980042,1.4049988-.2049866.8280029-.2689819,1.7649994-.1919861,2.810997,0,1.0460052-.0570068,1.7649994-.1730042,2.1570053-.1669922.5669937-.4330139,1.0130005-.7980042,1.340004-.3649902.3269958-.7980042.4899902-1.2969971.4899902-.7690125,0-1.6730042-.3269958-2.7109985-.9799957-1.0379944-.6539993-2.0690002-1.7210007-3.0939941-3.2030029-2.6019897-3.8339996-2.8640137-9.2819977-.7880249-16.3409958.6410217-2.1790009,1.6400146-4.8590012,2.9980164-8.0400009.7950134-1.9170074,1.2950134-3.2250061,1.5-3.9219971.3070068-1.0460052.4219971-1.9940033.3460083-2.8440094-.0769958-.848999-.3980103-1.6879883-.9620056-2.5159912-.1660156-.2180023-.230011-.3919983-.1910095-.5230103.0379944-.1309967.1430054-.2289886.3160095-.2939911s.3359985-.0980072.4909973-.0980072c.7680054,0,1.5630188.2720032,2.3829956.8170013.8200073.5449982,1.4450073,1.2640076,1.875,2.1569977.4290161.8940125.5090027,1.7970123.2400208,2.7130127-.1670227.5659943-.4420166,1.2089996-.8270264,1.9279938-.3840027.7189941-.8070068,1.470993-1.2689819,2.2550049-1.0380249,1.8300018-1.8740234,3.3989944-2.5079956,4.7059937-.6350098,1.3070068-1.2080078,2.8330002-1.7200317,4.576004-.6929932,2.3529968-.9229736,4.4769974-.6929932,6.3730011.2310181,1.8949966.7180176,3.3769989,1.4620056,4.4440002.7420044,1.0690002,1.4980164,1.6019974,2.2680054,1.6019974.4609985,0,.9029846-.4570007,1.3260193-1.3730011.8969727-1.8730011,1.7589722-3.5299988,2.5859985-4.9680023.8259888-1.4369965,1.4309692-2.4179993,1.815979-2.9410019.2050171-.3039932.4190063-.5769958.6440125-.8169937.2229919-.239006.3939819-.3590012.5090027-.3590012M497.3559265,55.5470123c-.6279907.6329956-1.3080139.947998-2.0370178.947998-.769989,0-1.2469788-.1740036-1.4319763-.5230026-.1860046-.3479996-.2860107-.8270035-.2990112-1.4379959-.0130005-.0870056.0639954-1.4920044.2309875-4.2160034.1660156-2.7229996-.5189819-4.6080017-2.0569763-5.654007-.730011-.522995-1.8450012-.7839966-3.3440247-.7839966h-.6919861c-.3460083,0-.4809875-.1309967-.4039917-.3919983.0509949-.173996.2940063-.348999.7309875-.522995.178009-.0870056.5859985-.1970062,1.2200012-.3270111.6340027-.1309967,1.3170166-.1959991,2.0469971-.1959991,2.6910095,0,4.7030029,1.0680084,6.0360107,3.2030029.947998,1.4820099,1.4570007,2.9520035,1.5279846,4.4120026.0700073,1.4599991-.0089722,2.5810013-.2399902,3.3659973-.2309875.7840042-.6610107,1.4930038-1.2879944,2.1240082M531.3599243,28.8460083l-15.5700073,52.9449997h-19.3759766l.8649902-2.9410019h16.7810059l14.7050171-50.0039978h2.5949707Z"/>
            <path class="cls-6" d="M166.1997986,134.0275002c.1790161.5670013.5950012.8500023,1.2490082.8500023.2689972,0,.6600037-.2180023,1.1730042-.6539993.5119934-.4350014,1.0849915-1.0130005,1.7200012-1.7320023.6339874-.718998,1.0349884-1.1650009,1.2019958-1.3400002,2.0749969-2.2219963,4.147995-4.2700005,6.2180023-6.144001,2.0690002-1.8729973,3.79599-2.810997,5.1799927-2.810997,2.3830109,0,2.9029999,2.2879982,1.5570068,6.8639984-.2559967.8720016-.473999,1.5470009-.654007,2.026001-3.4720001,1.743-6.2979889,3.5410004-8.4759979,5.3919983-2.1790009,1.8530006-3.6269989,3.9990005-4.3439941,6.439003-.6920013,2.3529987-.4720001,4.3469982.6629944,5.980999,1.1340027,1.6339989,4.1029968,2.4510002,8.9089966,2.4510002,2.3450012,0,4.6710052-.262001,6.9780121-.7840004,2.3059998-.5230007,3.6519928-1.4390011,4.0369873-2.7460003.3450012-1.1760006-.2309875-1.7649994-1.7309875-1.7649994-.8460083,0-2.0950012.1959991-3.7480011.5889988-.8720093.2180004-1.7940063.4139996-2.7680054.5880013-.973999.1739998-1.9029999.2609997-2.7870026.2609997-5.8439941,0-8.2779999-1.6550007-7.3049927-4.9680004.5509949-1.8730011,1.6749878-3.5719986,3.3739929-5.0979996,1.6970062-1.5250015,3.8670044-2.9840012,6.5070038-4.3790016l-1.826004,5.0330009c-.4749908,1.2200012-.7819977,2.0699997-.9230042,2.5489998-.1799927.6110001-.1669922,1.1549988.0380096,1.6339989.2050018.4799995.5390015.7190018,1,.7190018.4989929,0,1.0379944-.2290001,1.6149902-.6860008.5750122-.4580002.980011-1.0139999,1.2110138-1.6669998.1529999-.3919983.6849976-2.1349983,1.594986-5.2290001.5770111-1.9609985,1.0570068-3.3989983,1.4420013-4.3139992,1.1009979-.4790001,3.2610016-1.3499985,6.4780121-2.6149979l4.8439941-1.9610023c2.9459991-1.2630005,5.371994-2.5820007,7.2749939-3.9539986,1.9029999-1.3730011,3.1430054-3.0400009,3.7200012-5.0009995.447998-1.5250015.3160095-2.7450027-.3939972-3.6600037-.7120056-.9150009-1.7019958-1.3730011-2.970993-1.3730011-1.5380096,0-3.2990112.5019989-5.2850037,1.5040016-1.9880066,1.0030022-3.7610016,2.2010002-5.3249969,3.5950012-1.5630035,1.3950005-2.9500122,2.7779999-4.1610107,4.1499977-1.2109985,1.3730011-2.4319916,2.9740028-3.6619873,4.8040009.2429962-2.0029984.0089874-3.5940018-.7020111-4.7709961-.7119904-1.177002-2.0090027-1.7650032-3.8919983-1.7650032-1.0769958,0-2.2819977.3709984-3.6139984,1.1110001,2.3320007-3.3549995,4.9340057-7.5600014,7.8040009-12.6150017,2.2039948-.8269958,4.0359955-1.6339951,5.496994-2.4189987,1.0380096-.5230026,1.9570007-1.1319962,2.7590027-1.8300018.8010101-.6959991,1.2839966-1.3289948,1.451004-1.8949966.2180023-.7409973-.1150055-1.1119995-.9990082-1.1119995-.3849945,0-.7829895.0439987-1.1919861.1309967-.3080139.1310043-.7310028.1959991-1.2680054.1959991-1.0390015,0-1.7960052-.2389984-2.2689972-.7189941.2559967-.6090012.4229889-1.0460052.5-1.3069992.2039948-.6970062.2489929-1.177002.1340027-1.4380035-.128006-.348999-.6350098-.6539993-1.5180054-.9150009-.8840027-.262001-1.5-.3919983-1.8460083-.3919983-.5759888,0-.9809875.3259964-1.2099915.9799957-.052002.1750031-.0079956.3490067.1340027.5230026.8710022,1.090004,1.0509949,2.5060043.5379944,4.2490005-.2689972.9150009-.7180023,1.9830017-1.3450012,3.2030029-1.6409912.6100006-3.1049957,1.0130005-4.3919983,1.2089996-1.2890015.1959991-2.2789917.2939987-2.970993.2939987-1.3830109,0-2.6139984-.2610016-3.6900024-.7840042-.3460083-.1309967-.5970001-.1969986-.75-.1969986-.1930084,0-.3140106.0880051-.3650055.262001-.0379944.1310043,0,.2610016.1150055.3919983.9100037,1.090004,1.7359924,1.8740005,2.4799957,2.3530045.7429962.4799957,1.75.7189941,3.0180054.7189941,1.4609985,0,3.0110016-.2389984,4.6519928-.7189941-2.4609985,4.3149986-5.2290039,8.3669968-8.3040009,12.1579971-1.0889893,1.3509979-2.2299957,2.5489998-3.4219971,3.5950012-1.1929932,1.0459976-2.5950012,2.2229996-4.2089996,3.5299988l-1.345993,1.0460014c-.5769958.5229988-1.0190125,1.3069992-1.3260193,2.3530006l-.0769958,2.0259972ZM190.8618011,102.1295013l.5.4580002c.230011.2610016.3200073.4800034.2690125.6529999-.0510101.1750031-.2380066.3499985-.5580139.5230026-.1799927.0879974-.3879852.2080002-.625.3600006-.2369995.1529999-.5089874.2939987-.8159943.423996.7819977-1.4799957,1.1909943-2.2870026,1.2299957-2.4179993M203.7398071,120.0065002c-1.6150055,1.5040016-3.5500031,2.8880005-5.8040009,4.151001-1.2949982.7420006-3.7550049,1.9840012-7.3820038,3.7259979l-1.4029999.6540031-.8649902.3920021.0189972-.0660019c.8710022-1.5240021,2.0789948-3.2779999,3.6239929-5.262001,1.5429993-1.9820023,3.0080109-3.5620003,4.3919983-4.737999,1.5380096-1.3079987,3.1000061-2.375,4.6900024-3.2030029,1.5890045-.8279953,2.9029999-1.2429962,3.9410095-1.2429962,1.4599915,0,2.0049896.6329956,1.6339874,1.8959961-.2829895.9589996-1.2309875,2.1900024-2.845993,3.6930008M255.3518066,116.1825027c-.2700043,0-.6380005.2080002-1.1060028.6220016-.4680023.4139977-.7779999.685997-.9319916.8169975l-1.5570068,1.3719978h-9.572998l3.3450012-11.3730011h21.4519958c.8070068,0,1.3899841-.3479996,1.7489929-1.0459976.0889893-.3050003-.1029968-.8600006-.5769958-1.6669998-.473999-.8050003-1.0119934-1.5569992-1.6139832-2.2549973-.6030273-.6969986-1.0190125-1.0460052-1.25-1.0460052-.1530151,0-.3460083.0979996-.5759888.2940063-.2310181.1959991-.526001.4809952-.8840332.8499985-.3599854.3709946-.6480103.6650009-.8659668.8829956l-1.8640137,2.026001h-14.9940033l2-6.7979965,1.1339874-.7190018c.3710022-.2180023.5890045-.4349976.654007-.6539993.1920013-.6529999-1.4360046-1.590004-4.8829956-2.8110046-.4370117,2.7900009-1.3200073,6.4500046-2.6529999,10.9820023h-15.3390045c-2.9730072-.086998-5.4779968-.262001-7.5160065-.522995l.5,3.3989944c3.2030029-.5659943,6.1760101-.8709946,8.9190063-.9150009h12.8600006l-3.3450012,11.3730011h-11.8789978c-2.9730072-.086998-5.4790039-.2609978-7.5160065-.5229988l.5960083,3.269001c1.9339905-.5660019,3.7169952-.8720016,5.3439941-.9160004h2.8829956c.026001,7.3649979,1.6140137,13.6619987,4.7670135,18.8909988-8.2150116,6.1010017-17.5120087,10.7850018-27.8910065,14.0530014l.1340027,1.1110001c10.9440002-2.7019997,20.7149963-6.9710007,29.3139954-12.8110008,4.0619965,5.6650009,9.9369965,9.8700008,17.6260071,12.6150017.5769958-1.0460014,1.2819977-1.8740005,2.1149902-2.4840012.8330078-.6100006,1.6849976-.9580002,2.5570068-1.0450001l.2690125-.7189999c-8.0610199-2.1350002-14.507019-5.7089996-19.3380127-10.7200012,6.6380005-5.0550003,12.5460052-11.0899963,17.7229919-18.105999.7430115-.0429993,1.2909851-.1079979,1.6440125-.1959991.3510132-.0870018.7070007-.2830009,1.0669861-.5890007.1400146-.4790001-.1549988-1.3720016-.8840027-2.6790009-.7319946-1.3079987-1.2689972-1.961998-1.6149902-1.961998M235.5338135,137.4915009c-3.7680054-4.7060013-5.9210052-10.262001-6.4589996-16.6679993h22.0289917c-4.2810059,6.1889992-9.470993,11.7449989-15.5699921,16.6679993M323.8588257,97.161499l1.3259888,1.9610062c-.3070068.2619934-.7109985.3919983-1.2109985.3919983-.4609985,0-.9410095-.1300049-1.4410095-.3919983-4.1269836.8289948-8.8359985,1.5799942-14.1279907,2.2549973-5.2940063.677002-10.2530212,1.1009979-14.8780212,1.2750015l.230011-1.1760025c4.7669983-.6539993,9.8959961-1.5910034,15.3869934-2.810997,5.4920044-1.2200012,9.9609985-2.3960037,13.40802-3.5300064l1.3070068,2.026001ZM317.9578247,101.3455048c-.8340149,1.7869949-2.0090332,3.8559952-3.5270081,6.2099991-1.5200195,2.3519974-3.0480042,4.4440002-4.5849915,6.2739983-.3330078.3500023-.7950134.8729973-1.3840332,1.5690002h-11.7639771c-2.9730225-.0870018-5.4790039-.2610016-7.5159912-.5229988l.4619751,3.3339996c1.9730225-.5660019,3.8309937-.8710022,5.5740051-.9150009h3.0559998c-.7559814,2.0489998-1.6789856,4.2709999-2.7680054,6.6669998h-3.17099c-2.6269836-.086998-4.8450012-.2610016-6.651001-.5230026l.5379944,3.2680016c1.9730225-.5649986,3.8320007-.8709984,5.5750122-.9149971h2.9400024c-2.7290039,5.7519989-5.881012,10.980999-9.4570312,15.6879959-3.5749817,4.7060013-7.7459717,8.8890018-12.5130005,12.5500031l.3260193.848999c4.2669983-2.6140003,8.072998-5.6210003,11.4179993-9.0200005,3.3439941-3.3989983,6.3690186-7.2120018,9.072998-11.4389992.2940063,3.9659996,1.2430115,7.4090004,2.8450012,10.3279991-4.9339905,3.835001-10.4769897,6.8630009-16.6269836,9.0860004l.0379944,1.0450001c6.7149963-1.7870007,12.7259827-4.4440002,18.0309753-7.9740009,2.4980164,3.3990002,6.0870361,6.0350018,10.7640076,7.9090004,1.0509949-2.0049992,2.4150085-3.1809998,4.0940247-3.5300007l.2689819-.7179985c-4.8829956-1.3080006-8.8930054-3.2900009-12.0329895-5.9490013,3.8450012-3.007,7.3429871-6.6019974,10.4949951-10.7849998.6669922-.0429993,1.1889954-.1199989,1.5669861-.2290001.3780212-.1080017.7020264-.2939987.9710083-.5550003.1409912-.4790001-.1629944-1.3079987-.9129944-2.4840012-.75-1.1769981-1.2969971-1.7649994-1.6430054-1.7649994-.269989,0-.6130066.1860008-1.0289917.5550003-.4170227.3710022-.7019958.6210022-.8559875.7519989l-1.4020081,1.2420044h-12.6870117c.6919861-1.1760025,1.678009-3.0279999,2.9599915-5.5559998h20.2410278c.7689819,0,1.3259888-.3270035,1.6719971-.9800034.0899963-.3050003-.072998-.8279991-.4900208-1.5690002-.4159851-.7399979-.8979797-1.4269981-1.4419861-2.0589981-.5450134-.6310005-.9320068-.947998-1.1620178-.947998-.1539917,0-.3589783.1089973-.6149902.3269958-.2579956.2190018-.5159912.4800034-.7789917.7840042-.2630005.3059998-.5039978.5669975-.7210083.784996l-1.6910095,1.8300018h-14.0709839c.742981-1.6119995,1.7039795-3.8339996,2.8829956-6.6669998h17.8770142c.8069763,0,1.3899841-.3479996,1.7489929-1.0460014.0899963-.303997-.0580139-.8169975-.4420166-1.5359993-.3849792-.7190018-.8329773-1.3829994-1.3459778-1.9940033-.5120239-.609993-.8840027-.9149933-1.1140137-.9149933-.1539917,0-.3339844.0879974-.5390015.2619934-.2050171.1740036-.4649963.4360046-.7780151.7840042-.3139648.348999-.5539856.6110001-.7209778.7849998l-1.5570068,1.7639999h-5.5359802c1.9219971-1.4379997,3.8479919-3.0820045,5.7759705-4.9350014,1.9290161-1.8509979,3.5780029-3.6049957,4.9500122-5.262001l1.1529846-.3919983c.4219971-.1309967.6660156-.3040009.7310181-.5230026.1539917-.522995-1.3460083-1.5029984-4.4979858-2.9409943M307.4048157,133.3085022c-2.3960266,3.4430008-5.1900024,6.5359993-8.381012,9.2819977-2.2949829-2.6579971-3.7290039-5.7519989-4.3059998-9.2819977h12.6870117ZM273.2858276,148.5385017c-.3980103,1.3500004-.8300171,2.4290009-1.2980347,3.2360001-.46698.8050003-1.1629639,1.4699993-2.0859985,1.993-.9229736.5229988-2.1849976.8929996-3.7859802,1.1110001.2809753-1.6119995.256012-2.7019997-.0769958-3.2679996-.473999-.7410011-1.70401-1.2640018-3.6910095-1.5680008l.3269958-1.1119995c3.1390076.3059998,5.0549927.4580002,5.7470093.4580002.4609985,0,.8079834-.0980015,1.0390015-.2950001.2299805-.1949997.4159851-.5320015.5570068-1.0130005l5.6319885-19.1509972-5.5550232,3.0059967c-.3849792.9160004-.8849792,1.5040016-1.5,1.7649994l-.8069763-5.2939987c2.1659851-.6969986,5.1640015-1.8079987,8.9960022-3.3339996l4.0559998-13.7919998h-2.4220276c-1.3199768.0439987-2.7549744.3499985-4.3059692.9150009l-.4609985-3.3330002c1.4219971.2610016,3.1779785.435997,5.2669678.522995h2.4800415l.3839722-1.3079987c1.6149902-5.4899979,2.678009-9.9570007,3.1900024-13.4000015,1.9349976.7420044,3.2550049,1.3190002,3.960022,1.7330017.7049866.4140015,1.0119629.7740021.9229736,1.0780029-.0639954.2190018-.3009949.435997-.7119751.6539993l-1.2490234.7190018-3.0939941,10.5239944h1.4990234l1.4989624-1.7649994c.1790161-.2179947.4230347-.4899979.730011-.8169937.3070068-.3270035.5539856-.5770035.7409973-.7520065.1849976-.173996.355011-.260994.5090027-.260994.3460083,0,.9029846.6209946,1.6720276,1.8619995.7689819,1.2419968,1.0839844,2.1029968.9429932,2.5820007-.3600159.697998-.9230347,1.0459976-1.6920166,1.0459976h-6.4589844l-3.6130371,12.2890015c3.3050232-1.3080025,6.0740356-2.4190025,8.3030396-3.3339996l.019989.9149971-2.4410095,1.4379997c-3.21698,1.9179993-5.4729919,3.2470016-6.7669983,3.9869995l-6.4579773,21.9630013ZM296.4868164,113.1765022c.242981-1.3510017.2940063-2.8319969.1529846-4.4450035-.1409912-1.6119995-.4100037-3.0499954-.8059998-4.3139954l.8059998-.3919983c1.730011,1.0449982,2.8699951,2.2329941,3.4219971,3.5619965.5509949,1.3300018.6530151,2.5820007.3080139,3.7590027-.2189941.7409973-.5710144,1.3509979-1.0580139,1.829998-.4869995.4799995-.9989929.718998-1.5369873.718998-.5390015,0-.9679871-.2389984-1.2879944-.718998M304.8677979,112.7184982c.3320007-1.3939972.447998-2.9300003.3450012-4.6079941-.1029968-1.677002-.3389893-3.1920013-.7109985-4.5429993l.8650208-.3920059c1.6279907,1.1340027,2.690979,2.3860016,3.190979,3.7580032.5,1.3730011.5700073,2.6699982.2120056,3.8899994-.2309875.7839966-.5939941,1.4280014-1.0859985,1.9280014-.493988.5009995-1.0100098.7519989-1.5480042.7519989-.5,0-.9230042-.262001-1.2680054-.7850037M375.6047974,111.0195007c.2050171-.6969986.125-1.2089996-.2399902-1.5359955-.3649902-.3270035-1.0159912-.5990067-1.9509888-.8170013-.1030273-.0429993-.6220093-.1090012-1.5570068-.1969986-.6799927-.0420074-1.4580078-.140007-2.3349915-.2940063-.8780212-.1520004-1.8050232-.4020004-2.7780151-.7509995-1.9490051-.6969986-4.3959961-2.3089981-7.3429871-4.836998.4869995-1.0019989.7559814-1.5899963.8079834-1.7649994.3710022-1.2630005-.1489868-2.3089981-1.5579834-3.1380005-.552002-.3479996-1.1730042-.5230026-1.8640137-.5230026-.4609985,0-.9589844.0880051-1.4890137.262001-.5339966.1750031-.8439941.4150009-.9329834.7190018-.0390015.1309967.0540161.3050003.2789917.5230026.223999.2179947.4320068.4570007.6240234.7189941.3069763.3920059.5159912,1.0569992.625,1.9930038.1079712.9379959.0219727,1.9509964-.2590332,3.0400009-.2189941,1.0029984-.6679688,2.7890015-1.3459778,5.3600006-2.8320007.4799957-5.8050232,1.0130005-8.9190063,1.6009979-3.1139832.5889969-5.4530029,1.0569992-7.0169983,1.4059982-1.6140137.3920021-3.0549927.5880013-4.3240051.5880013-.7309875,0-1.6849976-.1520004-2.8639832-.4579964-.5900269-.2170029-1.0770264-.326004-1.4609985-.326004-.2690125,0-.4420166.1299973-.5190125.3919983-.1289978.4360046.0320129,1.0680008.480011,1.8950043.4489746.8289986,1.0130005,1.5259972,1.6919861,2.0919952.8710022.6980019,1.8640137,1.0460052,2.9790039,1.0460052.8460083,0,1.6340027-.1310043,2.3639832-.3920021.7310181-.262001,1.5830078-.6100006,2.5570068-1.0460014,2.7810059-1.2200012,5.3049927-2.1899986,7.5740051-2.9089966,2.2669983-.7190018,4.5230103-1.2310028,6.7660217-1.5360031-1.026001,3.4869995-2.0890198,6.3840027-3.1910095,8.6930008-.6410217-.6959991-1.4620056-1.0459976-2.4599915-1.0459976-1.7690125,0-3.3580322.7309952-4.7680054,2.1899948-1.4089966,1.4610023-2.4150085,3.2140045-3.0170288,5.262001-.3079834,1.0460014-.5139771,2.201004-.6149902,3.4640007-.1040039,1.2650032-.0899963,2.4630013.0380249,3.5960007.1269836,1.2639999.4729919,2.3419991,1.0379639,3.2350006.5630188.894001,1.4020081,1.3400002,2.5180054,1.3400002.5770264,0,1.3610229-.2830009,2.355011-.8499985.9930115-.5650024,1.6549988-1.0880013,1.9889832-1.5690002l-.0959778.3269997c-.6540222,2.2229996-2.0450134,4.8269997-4.17099,7.8109989-2.1280212,2.9860001-5.4210205,5.4589996-9.8800049,7.4190006-.4750061.1739998-.756012.4139996-.8460083.718998-.0639954.2180023.0379944.3270016.3070068.3270016.1159973,0,.3209839-.0440006.6149902-.1310005,1.8330078-.4790001,3.9509888-1.4050007,6.3529968-2.7779999,2.4030151-1.3719997,4.7260132-3.3220005,6.9679871-5.8500004,2.2430115-2.5270004,3.8960266-5.598999,4.960022-9.2159996.447998-1.5250015.7299805-3.2360001.8460083-5.1310005.1149902-1.8959999.0189819-3.6280022-.2890015-5.1969986.1929932-.7840004.5960083-2.2220001,1.2109985-4.3139992.5769958-1.9610023,1.4539795-4.814003,2.6340027-8.5620041,1.4989929-.1309967,3.0369873-.1969986,4.6129761-.1969986,2.7290039,0,6.1640015.2840042,10.303009.8499985,1.4100037.1750031,2.1329956.262001,2.1719971.262001,1.2690125,0,2.0760193-.5889969,2.4219971-1.7649994M348.1168213,129.1905022c-.4990234,1.7000008-1.1170044,2.9199982-1.8540039,3.6609993s-1.5090027,1.1110001-2.3170166,1.1110001c-1,0-1.7269897-.6640015-2.1809998-1.9939995-.4559937-1.3289986-.4589844-2.7550011-.0099792-4.281002.526001-1.7869987,1.2649841-3.2249985,2.2199707-4.3139992.9550171-1.0890007,1.9510193-1.6339989,2.9890137-1.6339989,1.1539917,0,1.7489929.848999,1.7879944,2.5489998.0379944,1.6990013-.1730042,3.3330002-.6349792,4.9020004M362.6498108,108.6985016c-.1929932.0660019-.4750061.1100006-.8460083.1309967-.3729858.0220032-.6539917.0330048-.8460083.0330048-.8589783.0439987-2.197998.2180023-4.0169983.522995.8190002-2.5269928,1.4670105-4.4009933,1.9410095-5.621994l3.5180054,3.7259979c.0509949.0879974.1749878.2190018.3739929.3919983.1990051.1750031.2730103.3499985.2220154.5230026-.0390015.1309967-.1540222.2289963-.3460083.2939987M405.7368164,102.7835007c-.8390198-.4789963-1.5859985-.7190018-2.2390137-.7190018-.6919861,0-1.5700073.3050003-2.6340027.9150009-1.8840027,1.0460052-3.6560059,1.9059982-5.3150024,2.5820007-1.6600037.6760025-2.7579956,1.0130005-3.29599,1.0130005-.5390015,0-.9689941-.3050003-1.2879944-.9150009-.3340149-.6969986-.5580139-1.0459976-.6730042-1.0459976-.1539917,0-.2820129.1749954-.3840027.5230026l-.3080139,1.2419968c-.6409912,3.2249985.0770264,4.836998,2.1530151,4.836998,1.230011,0,2.6870117-.512001,4.3739929-1.5359955,1.6839905-1.0240021,3.3150024-2.3209991,4.8910217-3.8889999.7559814-.7410049,1.3649902-1.1119995,1.8259888-1.1119995.3079834,0,.5480042.1959991.7210083.5889969.1729736.3919983.1949768.8069992.0669861,1.2419968-.0759888.2610016-.2250061.5340042-.4419861.8160019-.2180176.2850037-.5280151.6220016-.9320068,1.0139999s-.7399902.7190018-1.0090027.9800034l-2.5379944,2.5499954c-.8200073.8280029-3.0820007,3.0940018-6.7850037,6.7970047-3.70401,3.704998-6.8560181,6.7770004-9.4570007,9.2169952-2.5509949,2.3970032-4.4920044,4.3250046-5.8250122,5.7840042-1.3330078,1.4609985-2.1779785,2.8009987-2.5369873,4.0199966-.1920166.6540031-.1960144,1.2210007-.0100098,1.7000008.1860046.4799995.625.7190018,1.3170166.7190018.4229736,0,.8589783-.1739998,1.3079834-.5230026.447998-.3479996.9760132-.9039993,1.585022-1.6669998.6079712-.7619972,1.0589905-1.3169975,1.3549805-1.6669998,3.3699951-4.1389999,6.3470154-7.0689964,8.9290161-8.7909966,2.5819702-1.7210007,5.1029968-2.5820007,7.5639954-2.5820007,2.6529846,0,4.743988.7959976,6.276001,2.3859978,1.5299988,1.5909996,1.7980042,4.0850029.7980042,7.4840012-.6670227,2.2659988-1.9100037,4.336998-3.7290039,6.2099991-1.8200073,1.8740005-3.8450012,3.3330002-6.0740051,4.3789997.0119934-2.1350002-.4689941-3.7679996-1.4420166-4.9019985-.9749756-1.1329994-2.2309875-1.7000008-3.7679749-1.7000008-1.3460083,0-2.6690063.4480019-3.9690247,1.3400002-1.3009949.894001-2.1689758,2.0820007-2.6049805,3.5629997-.526001,1.7870007-.131012,3.1919994,1.1819763,4.2159996,1.3140259,1.0240002,2.9890137,1.5360012,5.0270081,1.5360012,2.4219971,0,4.927002-.5770016,7.5160217-1.7320004,2.5879822-1.1550007,4.901001-2.7779999,6.9389954-4.8699989,2.0369873-2.0920029,3.4539795-4.4880028,4.2479858-7.1900024.8200073-2.7879982.8970032-5.1409988.2310181-7.0589981-.6670227-1.9169998-1.8260193-3.3340034-3.4790039-4.2490005-1.6540222-.9150009-3.5379944-1.3730011-5.6520081-1.3730011-3.2680054,0-6.875,1.2200012-10.821991,3.6599998,5.9329834-6.1869965,12.2890015-11.7210007,19.0679932-16.6019974,1.1539917-.7850037,1.8909912-1.7210007,2.2109985-2.8110046.256012-.8709946.1340027-1.6989975-.3649902-2.4839935-.5-.7840042-1.1700134-1.4150009-2.0090027-1.8950043M389.7538147,146.4465008c-.5639954.0880013-1.0190125.1310005-1.3650208.1310005-1.2679749,0-2.3579712-.3150005-3.2679749-.948-.9090271-.6310005-1.2420044-1.3610001-.9990234-2.1889992.1540222-.5229988.4580078-.9700012.9129944-1.3400002.4550171-.3699989,1.0280151-.5559998,1.7200317-.5559998,1.2689819,0,2.1169739.4799995,2.5469971,1.4379997.4289856.9589996.5799866,2.1140003.4519958,3.4639988M424.9197998,140.8905029c-.2879944-1.307003-.8970032-2.3420029-1.8259888-3.1040001-.9290161-.762001-2.0670166-1.144001-3.4120178-1.144001-1.3459778,0-2.71698.382-4.1129761,1.144001-1.3980103.7619972-2.625,1.7969971-3.6820068,3.1040001-1.0570068,1.3079987-1.8099976,2.723999-2.2579956,4.2489986-.4609985,1.5690002-.5480042,3.007-.2600098,4.3140011.2879944,1.3069992.9070129,2.3419991,1.8559875,3.1049995.9480286.7619991,2.0940247,1.1439991,3.4400024,1.1439991,1.3450012,0,2.7070007-.382,4.085022-1.1439991,1.3779907-.7630005,2.5950012-1.7980003,3.6519775-3.1049995,1.0570068-1.3070011,1.8160095-2.7450008,2.2780151-4.3140011.447998-1.5249996.5279846-2.941.2399902-4.2489986M423.2958069,145.1395016c-.5639954,1.9179993-1.6409912,3.552-3.2290039,4.9029999-1.5899963,1.3500004-3.230011,2.0259991-4.92099,2.0259991-1.6920166,0-2.9349976-.6759987-3.730011-2.0259991-.7949829-1.3509998-.9089966-2.9850006-.3450012-4.9029999.5509949-1.8729992,1.6199951-3.4859982,3.2099915-4.8369999,1.5880127-1.3499985,3.2290039-2.026001,4.9210205-2.026001,1.690979,0,2.9329834.6760025,3.7279968,2.026001.7949829,1.3510017.9169922,2.9640007.3659973,4.8369999"/>
          </g>
        </g>
      </g>
    </g>
  </g>
</svg>